<svg width="104" height="137" viewBox="0 0 104 137" fill="none" xmlns="http://www.w3.org/2000/svg">
<path d="M87.3311 8.54318L79.4512 8.54318L79.4512 -0.000663757L87.3311 -0.000664551L87.3311 8.54318Z" fill="#BCFFD8"/>
<path d="M79.4518 17.087L71.5719 17.087L71.5719 8.54311L79.4518 8.54311L79.4518 17.087Z" fill="#BCFFD8"/>
<path d="M55.8123 17.087L47.9324 17.087L47.9324 8.54311L55.8123 8.54311L55.8123 17.087Z" fill="#BCFFD8"/>
<path d="M79.4518 25.6309L71.5719 25.6309L71.5719 17.0871L79.4518 17.0871L79.4518 25.6309Z" fill="#BCFFD8"/>
<path d="M47.9317 25.6309L40.0518 25.6309L40.0518 17.0871L47.9317 17.0871L47.9317 25.6309Z" fill="#BCFFD8"/>
<path d="M87.3311 34.1747L79.4512 34.1747L79.4512 25.6309L87.3311 25.6309L87.3311 34.1747Z" fill="#BCFFD8"/>
<path d="M47.9317 34.1747L40.0518 34.1747L40.0518 25.6309L47.9317 25.6309L47.9317 34.1747Z" fill="#BCFFD8"/>
<path d="M95.2117 42.7185L87.3318 42.7185L87.3318 34.1747L95.2117 34.1747L95.2117 42.7185Z" fill="#BCFFD8"/>
<path d="M55.8123 42.7185L47.9324 42.7185L47.9324 34.1747L55.8123 34.1747L55.8123 42.7185Z" fill="#BCFFD8"/>
<path d="M95.2117 51.2625L87.3318 51.2625L87.3318 42.7186L95.2117 42.7186L95.2117 51.2625Z" fill="#BCFFD8"/>
<path d="M63.6917 51.2625L55.8118 51.2625L55.8118 42.7186L63.6917 42.7186L63.6917 51.2625Z" fill="#BCFFD8"/>
<path d="M24.2922 51.2625L16.4122 51.2625L16.4122 42.7186L24.2922 42.7186L24.2922 51.2625Z" fill="#BCFFD8"/>
<path d="M87.3311 59.8063L79.4512 59.8063L79.4512 51.2624L87.3311 51.2624L87.3311 59.8063Z" fill="#BCFFD8"/>
<path d="M63.6917 59.8063L55.8118 59.8063L55.8118 51.2624L63.6917 51.2624L63.6917 59.8063Z" fill="#BCFFD8"/>
<path d="M16.4117 59.8063L8.53174 59.8063L8.53174 51.2624L16.4117 51.2624L16.4117 59.8063Z" fill="#BCFFD8"/>
<path d="M87.3311 68.35L79.4512 68.35L79.4512 59.8062L87.3311 59.8062L87.3311 68.35Z" fill="#50B578"/>
<path d="M55.8123 68.35L47.9324 68.35L47.9324 59.8062L55.8123 59.8062L55.8123 68.35Z" fill="#BCFFD8"/>
<path d="M16.4117 68.35L8.53174 68.35L8.53174 59.8062L16.4117 59.8062L16.4117 68.35Z" fill="#BCFFD8"/>
<path d="M103.091 76.894L95.2113 76.894L95.2113 68.3502L103.091 68.3502L103.091 76.894Z" fill="#BCFFD8"/>
<path d="M79.4518 76.894L71.5719 76.894L71.5719 68.3502L79.4518 68.3502L79.4518 76.894Z" fill="#50B578"/>
<path d="M47.9317 76.894L40.0518 76.894L40.0518 68.3502L47.9317 68.3502L47.9317 76.894Z" fill="#BCFFD8"/>
<path d="M16.4117 76.894L8.53174 76.894L8.53174 68.3502L16.4117 68.3502L16.4117 76.894Z" fill="#50B578"/>
<path d="M95.2117 85.4378L87.3318 85.4378L87.3318 76.894L95.2117 76.894L95.2117 85.4378Z" fill="#BCFFD8"/>
<path d="M71.5711 85.4378L63.6912 85.4378L63.6912 76.894L71.5711 76.894L71.5711 85.4378Z" fill="#BCFFD8"/>
<path d="M47.9317 85.4378L40.0518 85.4378L40.0518 76.894L47.9317 76.894L47.9317 85.4378Z" fill="#BCFFD8"/>
<path d="M24.2922 85.4378L16.4122 85.4378L16.4122 76.894L24.2922 76.894L24.2922 85.4378Z" fill="#BCFFD8"/>
<path d="M95.2117 93.9816L87.3318 93.9816L87.3318 85.4377L95.2117 85.4377L95.2117 93.9816Z" fill="#50B578"/>
<path d="M71.5711 93.9816L63.6912 93.9816L63.6912 85.4377L71.5711 85.4377L71.5711 93.9816Z" fill="#50B578"/>
<path d="M47.9317 93.9816L40.0518 93.9816L40.0518 85.4377L47.9317 85.4377L47.9317 93.9816Z" fill="#50B578"/>
<path d="M32.1717 93.9816L24.2917 93.9816L24.2917 85.4377L32.1717 85.4377L32.1717 93.9816Z" fill="#BCFFD8"/>
<path d="M95.2117 102.526L87.3318 102.526L87.3318 93.9817L95.2117 93.9817L95.2117 102.526Z" fill="#BCFFD8"/>
<path d="M71.5711 102.526L63.6912 102.526L63.6912 93.9817L71.5711 93.9817L71.5711 102.526Z" fill="#BCFFD8"/>
<path d="M55.8123 102.526L47.9324 102.526L47.9324 93.9817L55.8123 93.9817L55.8123 102.526Z" fill="#50B578"/>
<path d="M32.1717 102.526L24.2917 102.526L24.2917 93.9817L32.1717 93.9817L32.1717 102.526Z" fill="#50B578"/>
<path d="M8.53214 102.526L0.652222 102.526L0.652221 93.9817L8.53214 93.9817L8.53214 102.526Z" fill="#50B578"/>
<path d="M87.3311 111.069L79.4512 111.069L79.4512 102.525L87.3311 102.525L87.3311 111.069Z" fill="#BCFFD8"/>
<path d="M71.5711 111.069L63.6912 111.069L63.6912 102.525L71.5711 102.525L71.5711 111.069Z" fill="#50B578"/>
<path d="M55.8123 111.069L47.9324 111.069L47.9324 102.525L55.8123 102.525L55.8123 111.069Z" fill="#BCFFD8"/>
<path d="M40.0523 111.069L32.1724 111.069L32.1724 102.525L40.0523 102.525L40.0523 111.069Z" fill="#BCFFD8"/>
<path d="M16.4117 111.069L8.53174 111.069L8.53174 102.525L16.4117 102.525L16.4117 111.069Z" fill="#50B578"/>
<path d="M87.3311 119.613L79.4512 119.613L79.4512 111.069L87.3311 111.069L87.3311 119.613Z" fill="#BCFFD8"/>
<path d="M71.5711 119.613L63.6912 119.613L63.6912 111.069L71.5711 111.069L71.5711 119.613Z" fill="#50B578"/>
<path d="M55.8123 119.613L47.9324 119.613L47.9324 111.069L55.8123 111.069L55.8123 119.613Z" fill="#50B578"/>
<path d="M40.0523 119.613L32.1724 119.613L32.1724 111.069L40.0523 111.069L40.0523 119.613Z" fill="#50B578"/>
<path d="M24.2922 119.613L16.4122 119.613L16.4122 111.069L24.2922 111.069L24.2922 119.613Z" fill="#50B578"/>
<path d="M87.3311 128.157L79.4512 128.157L79.4512 119.613L87.3311 119.613L87.3311 128.157Z" fill="#50B578"/>
<path d="M71.5711 128.157L63.6912 128.157L63.6912 119.613L71.5711 119.613L71.5711 128.157Z" fill="#50B578"/>
<path d="M55.8123 128.157L47.9324 128.157L47.9324 119.613L55.8123 119.613L55.8123 128.157Z" fill="#50B578"/>
<path d="M40.0523 128.157L32.1724 128.157L32.1724 119.613L40.0523 119.613L40.0523 128.157Z" fill="#50B578"/>
<path d="M24.2922 128.157L16.4122 128.157L16.4122 119.613L24.2922 119.613L24.2922 128.157Z" fill="#50B578"/>
<path d="M87.3311 136.701L79.4512 136.701L79.4512 128.157L87.3311 128.157L87.3311 136.701Z" fill="#386C5E"/>
<path d="M71.5711 136.701L63.6912 136.701L63.6912 128.157L71.5711 128.157L71.5711 136.701Z" fill="#386C5E"/>
<path d="M55.8123 136.701L47.9324 136.701L47.9324 128.157L55.8123 128.157L55.8123 136.701Z" fill="#386C5E"/>
<path d="M40.0523 136.701L32.1724 136.701L32.1724 128.157L40.0523 128.157L40.0523 136.701Z" fill="#386C5E"/>
<path d="M24.2922 136.701L16.4122 136.701L16.4122 128.157L24.2922 128.157L24.2922 136.701Z" fill="#386C5E"/>
</svg>
