<svg width="92" height="100" viewBox="0 0 92 100" fill="none" xmlns="http://www.w3.org/2000/svg">
<path d="M11.7732 6.71201L17.4484 6.71201L17.4484 0.558663L11.7732 0.558663L11.7732 6.71201Z" fill="#BCFFD8"/>
<path d="M17.4484 12.8654L23.1236 12.8654L23.1236 6.71201L17.4484 6.71201L17.4484 12.8654Z" fill="#BCFFD8"/>
<path d="M34.4739 12.8654L40.1491 12.8654L40.1491 6.71201L34.4739 6.71201L34.4739 12.8654Z" fill="#BCFFD8"/>
<path d="M17.4484 19.0187L23.1236 19.0187L23.1236 12.8653L17.4484 12.8653L17.4484 19.0187Z" fill="#BCFFD8"/>
<path d="M40.1491 19.0187L45.8243 19.0187L45.8243 12.8653L40.1491 12.8653L40.1491 19.0187Z" fill="#BCFFD8"/>
<path d="M68.525 19.0187L74.2002 19.0187L74.2002 12.8653L68.525 12.8653L68.525 19.0187Z" fill="#BCFFD8"/>
<path d="M11.7732 25.172L17.4484 25.172L17.4484 19.0187L11.7732 19.0187L11.7732 25.172Z" fill="#BCFFD8"/>
<path d="M40.1491 25.172L45.8243 25.172L45.8243 19.0187L40.1491 19.0187L40.1491 25.172Z" fill="#BCFFD8"/>
<path d="M68.525 25.172L74.2002 25.172L74.2002 19.0187L68.525 19.0187L68.525 25.172Z" fill="#BCFFD8"/>
<path d="M6.09805 31.3254L11.7732 31.3254L11.7732 25.172L6.09805 25.172L6.09805 31.3254Z" fill="#BCFFD8"/>
<path d="M34.4739 31.3254L40.1491 31.3254L40.1491 25.172L34.4739 25.172L34.4739 31.3254Z" fill="#BCFFD8"/>
<path d="M68.525 31.3254L74.2002 31.3254L74.2002 25.172L68.525 25.172L68.525 31.3254Z" fill="#BCFFD8"/>
<path d="M6.09805 37.4787L11.7732 37.4787L11.7732 31.3254L6.09805 31.3254L6.09805 37.4787Z" fill="#BCFFD8"/>
<path d="M28.7988 37.4787L34.4739 37.4787L34.4739 31.3254L28.7988 31.3254L28.7988 37.4787Z" fill="#BCFFD8"/>
<path d="M57.1747 37.4787L62.8498 37.4787L62.8498 31.3254L57.1747 31.3254L57.1747 37.4787Z" fill="#BCFFD8"/>
<path d="M74.2002 37.4787L79.8754 37.4787L79.8754 31.3254L74.2002 31.3254L74.2002 37.4787Z" fill="#BCFFD8"/>
<path d="M11.7732 43.6321L17.4484 43.6321L17.4484 37.4787L11.7732 37.4787L11.7732 43.6321Z" fill="#BCFFD8"/>
<path d="M28.7988 43.6321L34.4739 43.6321L34.4739 37.4787L28.7988 37.4787L28.7988 43.6321Z" fill="#BCFFD8"/>
<path d="M62.8498 43.6321L68.525 43.6321L68.525 37.4787L62.8498 37.4787L62.8498 43.6321Z" fill="#BCFFD8"/>
<path d="M79.8754 43.6321L85.5505 43.6321L85.5505 37.4787L79.8754 37.4787L79.8754 43.6321Z" fill="#BCFFD8"/>
<path d="M11.7732 49.7854L17.4484 49.7854L17.4484 43.6321L11.7732 43.6321L11.7732 49.7854Z" fill="#50B578"/>
<path d="M34.4739 49.7854L40.1491 49.7854L40.1491 43.6321L34.4739 43.6321L34.4739 49.7854Z" fill="#BCFFD8"/>
<path d="M62.8498 49.7854L68.525 49.7854L68.525 43.6321L62.8498 43.6321L62.8498 49.7854Z" fill="#BCFFD8"/>
<path d="M85.5505 49.7854L91.2257 49.7854L91.2257 43.6321L85.5505 43.6321L85.5505 49.7854Z" fill="#BCFFD8"/>
<path d="M0.42286 55.9387L6.09804 55.9387L6.09804 49.7854L0.422861 49.7854L0.42286 55.9387Z" fill="#BCFFD8"/>
<path d="M17.4484 55.9387L23.1236 55.9387L23.1236 49.7854L17.4484 49.7854L17.4484 55.9387Z" fill="#50B578"/>
<path d="M40.1491 55.9387L45.8243 55.9387L45.8243 49.7854L40.1491 49.7854L40.1491 55.9387Z" fill="#BCFFD8"/>
<path d="M62.8498 55.9387L68.525 55.9387L68.525 49.7854L62.8498 49.7854L62.8498 55.9387Z" fill="#50B578"/>
<path d="M85.5505 55.9388L91.2257 55.9388L91.2257 49.7854L85.5505 49.7854L85.5505 55.9388Z" fill="#BCFFD8"/>
<path d="M6.09803 62.0921L11.7732 62.0921L11.7732 55.9387L6.09803 55.9387L6.09803 62.0921Z" fill="#BCFFD8"/>
<path d="M23.1236 62.0921L28.7987 62.0921L28.7987 55.9387L23.1236 55.9387L23.1236 62.0921Z" fill="#BCFFD8"/>
<path d="M40.1491 62.0921L45.8243 62.0921L45.8243 55.9387L40.1491 55.9387L40.1491 62.0921Z" fill="#BCFFD8"/>
<path d="M57.1746 62.0921L62.8498 62.0921L62.8498 55.9387L57.1746 55.9387L57.1746 62.0921Z" fill="#BCFFD8"/>
<path d="M85.5505 62.0921L91.2257 62.0921L91.2257 55.9387L85.5505 55.9387L85.5505 62.0921Z" fill="#50B578"/>
<path d="M6.09803 68.2454L11.7732 68.2454L11.7732 62.0921L6.09803 62.0921L6.09803 68.2454Z" fill="#50B578"/>
<path d="M23.1236 68.2454L28.7987 68.2454L28.7987 62.0921L23.1236 62.0921L23.1236 68.2454Z" fill="#50B578"/>
<path d="M40.1491 68.2454L45.8243 68.2454L45.8243 62.0921L40.1491 62.0921L40.1491 68.2454Z" fill="#50B578"/>
<path d="M51.4995 68.2454L57.1746 68.2454L57.1746 62.0921L51.4995 62.0921L51.4995 68.2454Z" fill="#BCFFD8"/>
<path d="M79.8754 68.2454L85.5505 68.2454L85.5505 62.0921L79.8754 62.0921L79.8754 68.2454Z" fill="#BCFFD8"/>
<path d="M6.09803 74.3988L11.7732 74.3988L11.7732 68.2454L6.09803 68.2454L6.09803 74.3988Z" fill="#BCFFD8"/>
<path d="M23.1236 74.3988L28.7987 74.3988L28.7987 68.2454L23.1236 68.2454L23.1236 74.3988Z" fill="#BCFFD8"/>
<path d="M34.4739 74.3988L40.1491 74.3988L40.1491 68.2454L34.4739 68.2454L34.4739 74.3988Z" fill="#50B578"/>
<path d="M51.4995 74.3988L57.1746 74.3988L57.1746 68.2454L51.4995 68.2454L51.4995 74.3988Z" fill="#50B578"/>
<path d="M68.525 74.3988L74.2002 74.3988L74.2002 68.2454L68.525 68.2454L68.525 74.3988Z" fill="#50B578"/>
<path d="M74.2002 74.3988L79.8754 74.3988L79.8754 68.2454L74.2002 68.2454L74.2002 74.3988Z" fill="#BCFFD8"/>
<path d="M11.7732 80.5521L17.4484 80.5521L17.4484 74.3988L11.7732 74.3988L11.7732 80.5521Z" fill="#BCFFD8"/>
<path d="M23.1236 80.5521L28.7988 80.5521L28.7988 74.3988L23.1236 74.3988L23.1236 80.5521Z" fill="#50B578"/>
<path d="M34.4739 80.5521L40.1491 80.5521L40.1491 74.3988L34.4739 74.3988L34.4739 80.5521Z" fill="#BCFFD8"/>
<path d="M45.8243 80.5521L51.4995 80.5521L51.4995 74.3988L45.8243 74.3988L45.8243 80.5521Z" fill="#BCFFD8"/>
<path d="M62.8498 80.5521L68.525 80.5521L68.525 74.3988L62.8498 74.3988L62.8498 80.5521Z" fill="#50B578"/>
<path d="M11.7732 86.7055L17.4484 86.7055L17.4484 80.5521L11.7732 80.5521L11.7732 86.7055Z" fill="#BCFFD8"/>
<path d="M23.1236 86.7055L28.7988 86.7055L28.7988 80.5521L23.1236 80.5521L23.1236 86.7055Z" fill="#50B578"/>
<path d="M34.4739 86.7055L40.1491 86.7055L40.1491 80.5521L34.4739 80.5521L34.4739 86.7055Z" fill="#50B578"/>
<path d="M45.8243 86.7055L51.4995 86.7055L51.4995 80.5521L45.8243 80.5521L45.8243 86.7055Z" fill="#50B578"/>
<path d="M57.1746 86.7055L62.8498 86.7055L62.8498 80.5521L57.1746 80.5521L57.1746 86.7055Z" fill="#50B578"/>
<path d="M11.7732 92.8588L17.4484 92.8588L17.4484 86.7055L11.7732 86.7055L11.7732 92.8588Z" fill="#50B578"/>
<path d="M23.1236 92.8588L28.7988 92.8588L28.7988 86.7055L23.1236 86.7055L23.1236 92.8588Z" fill="#50B578"/>
<path d="M34.4739 92.8588L40.1491 92.8588L40.1491 86.7055L34.4739 86.7055L34.4739 92.8588Z" fill="#50B578"/>
<path d="M45.8243 92.8588L51.4995 92.8588L51.4995 86.7055L45.8243 86.7055L45.8243 92.8588Z" fill="#50B578"/>
<path d="M57.1746 92.8588L62.8498 92.8588L62.8498 86.7055L57.1746 86.7055L57.1746 92.8588Z" fill="#50B578"/>
<path d="M11.7732 99.0122L17.4484 99.0122L17.4484 92.8589L11.7732 92.8589L11.7732 99.0122Z" fill="#386C5E"/>
<path d="M23.1236 99.0122L28.7988 99.0122L28.7988 92.8589L23.1236 92.8589L23.1236 99.0122Z" fill="#386C5E"/>
<path d="M34.4739 99.0122L40.1491 99.0122L40.1491 92.8589L34.4739 92.8589L34.4739 99.0122Z" fill="#386C5E"/>
<path d="M45.8243 99.0122L51.4995 99.0122L51.4995 92.8589L45.8243 92.8589L45.8243 99.0122Z" fill="#386C5E"/>
<path d="M57.1746 99.0122L62.8498 99.0122L62.8498 92.8589L57.1746 92.8589L57.1746 99.0122Z" fill="#386C5E"/>
</svg>
