<svg width="100" height="134" viewBox="0 0 100 134" fill="none" xmlns="http://www.w3.org/2000/svg">
<path d="M84.6425 8.82653L77.0068 8.82653L77.0068 0.547489L84.6425 0.547488L84.6425 8.82653Z" fill="#101528"/>
<path d="M77.0073 17.1056L69.3716 17.1056L69.3716 8.82656L77.0073 8.82656L77.0073 17.1056Z" fill="#101528"/>
<path d="M54.0993 17.1056L46.4636 17.1056L46.4636 8.82656L54.0993 8.82656L54.0993 17.1056Z" fill="#101528"/>
<path d="M77.0073 25.3846L69.3716 25.3846L69.3716 17.1055L77.0073 17.1055L77.0073 25.3846Z" fill="#101528"/>
<path d="M46.4642 25.3846L38.8285 25.3846L38.8285 17.1055L46.4642 17.1055L46.4642 25.3846Z" fill="#101528"/>
<path d="M84.6425 33.6636L77.0068 33.6637L77.0068 25.3846L84.6425 25.3846L84.6425 33.6636Z" fill="#101528"/>
<path d="M46.4642 33.6637L38.8285 33.6637L38.8285 25.3846L46.4642 25.3846L46.4642 33.6637Z" fill="#101528"/>
<path d="M92.2776 41.9427L84.6419 41.9427L84.6419 33.6637L92.2776 33.6637L92.2776 41.9427Z" fill="#101528"/>
<path d="M54.0993 41.9427L46.4636 41.9427L46.4636 33.6637L54.0993 33.6637L54.0993 41.9427Z" fill="#101528"/>
<path d="M92.2776 50.2217L84.6419 50.2217L84.6419 41.9427L92.2776 41.9427L92.2776 50.2217Z" fill="#101528"/>
<path d="M61.7344 50.2217L54.0988 50.2217L54.0988 41.9427L61.7344 41.9427L61.7344 50.2217Z" fill="#101528"/>
<path d="M23.5561 50.2217L15.9204 50.2217L15.9204 41.9427L23.5561 41.9427L23.5561 50.2217Z" fill="#101528"/>
<path d="M84.6425 58.5008L77.0068 58.5008L77.0068 50.2217L84.6425 50.2217L84.6425 58.5008Z" fill="#101528"/>
<path d="M61.7344 58.5008L54.0988 58.5008L54.0988 50.2217L61.7344 50.2217L61.7344 58.5008Z" fill="#101528"/>
<path d="M15.921 58.5008L8.28531 58.5008L8.28531 50.2217L15.921 50.2217L15.921 58.5008Z" fill="#101528"/>
<path d="M84.6425 66.7798L77.0068 66.7798L77.0068 58.5008L84.6425 58.5008L84.6425 66.7798Z" fill="#101528"/>
<path d="M54.0993 66.7798L46.4636 66.7798L46.4636 58.5008L54.0993 58.5008L54.0993 66.7798Z" fill="#101528"/>
<path d="M15.921 66.7799L8.28531 66.7799L8.28531 58.5008L15.921 58.5008L15.921 66.7799Z" fill="#101528"/>
<path d="M99.9154 75.0588L92.2797 75.0588L92.2797 66.7798L99.9154 66.7798L99.9154 75.0588Z" fill="#101528"/>
<path d="M77.0073 75.0588L69.3716 75.0588L69.3716 66.7798L77.0073 66.7798L77.0073 75.0588Z" fill="#101528"/>
<path d="M46.4642 75.0588L38.8285 75.0588L38.8285 66.7798L46.4642 66.7798L46.4642 75.0588Z" fill="#101528"/>
<path d="M15.921 75.0588L8.28531 75.0588L8.28531 66.7798L15.921 66.7798L15.921 75.0588Z" fill="#101528"/>
<path d="M92.2776 83.3379L84.6419 83.3379L84.6419 75.0589L92.2776 75.0589L92.2776 83.3379Z" fill="#101528"/>
<path d="M69.3722 83.3379L61.7365 83.3379L61.7365 75.0589L69.3722 75.0589L69.3722 83.3379Z" fill="#101528"/>
<path d="M46.4642 83.3379L38.8285 83.3379L38.8285 75.0589L46.4642 75.0589L46.4642 83.3379Z" fill="#101528"/>
<path d="M23.5561 83.3379L15.9204 83.3379L15.9204 75.0589L23.5561 75.0589L23.5561 83.3379Z" fill="#101528"/>
<path d="M92.2776 91.617L84.6419 91.617L84.6419 83.3379L92.2776 83.3379L92.2776 91.617Z" fill="#101528"/>
<path d="M69.3722 91.617L61.7365 91.617L61.7365 83.3379L69.3722 83.3379L69.3722 91.617Z" fill="#101528"/>
<path d="M46.4642 91.617L38.8285 91.617L38.8285 83.3379L46.4642 83.3379L46.4642 91.617Z" fill="#101528"/>
<path d="M31.1939 91.617L23.5582 91.617L23.5582 83.3379L31.1939 83.3379L31.1939 91.617Z" fill="#101528"/>
<path d="M92.2776 99.896L84.6419 99.896L84.6419 91.6169L92.2776 91.6169L92.2776 99.896Z" fill="#101528"/>
<path d="M69.3722 99.896L61.7365 99.896L61.7365 91.6169L69.3722 91.6169L69.3722 99.896Z" fill="#101528"/>
<path d="M54.0993 99.896L46.4636 99.896L46.4636 91.6169L54.0993 91.6169L54.0993 99.896Z" fill="#101528"/>
<path d="M31.1939 99.896L23.5582 99.896L23.5582 91.6169L31.1939 91.6169L31.1939 99.896Z" fill="#101528"/>
<path d="M8.28581 99.896L0.650116 99.896L0.650115 91.6169L8.28581 91.6169L8.28581 99.896Z" fill="#101528"/>
<path d="M84.6425 108.175L77.0068 108.175L77.0068 99.896L84.6425 99.896L84.6425 108.175Z" fill="#101528"/>
<path d="M69.3722 108.175L61.7365 108.175L61.7365 99.896L69.3722 99.896L69.3722 108.175Z" fill="#101528"/>
<path d="M54.0993 108.175L46.4636 108.175L46.4636 99.896L54.0993 99.896L54.0993 108.175Z" fill="#101528"/>
<path d="M38.829 108.175L31.1933 108.175L31.1933 99.896L38.829 99.896L38.829 108.175Z" fill="#101528"/>
<path d="M15.921 108.175L8.28531 108.175L8.28531 99.896L15.921 99.896L15.921 108.175Z" fill="#101528"/>
<path d="M84.6425 116.454L77.0068 116.454L77.0068 108.175L84.6425 108.175L84.6425 116.454Z" fill="#101528"/>
<path d="M69.3722 116.454L61.7365 116.454L61.7365 108.175L69.3722 108.175L69.3722 116.454Z" fill="#101528"/>
<path d="M54.0993 116.454L46.4636 116.454L46.4636 108.175L54.0993 108.175L54.0993 116.454Z" fill="#101528"/>
<path d="M38.829 116.454L31.1933 116.454L31.1933 108.175L38.829 108.175L38.829 116.454Z" fill="#101528"/>
<path d="M23.5561 116.454L15.9204 116.454L15.9204 108.175L23.5561 108.175L23.5561 116.454Z" fill="#101528"/>
<path d="M84.6425 124.733L77.0068 124.733L77.0068 116.454L84.6425 116.454L84.6425 124.733Z" fill="#101528"/>
<path d="M69.3722 124.733L61.7365 124.733L61.7365 116.454L69.3722 116.454L69.3722 124.733Z" fill="#101528"/>
<path d="M54.0993 124.733L46.4636 124.733L46.4636 116.454L54.0993 116.454L54.0993 124.733Z" fill="#101528"/>
<path d="M38.829 124.733L31.1933 124.733L31.1933 116.454L38.829 116.454L38.829 124.733Z" fill="#101528"/>
<path d="M23.5561 124.733L15.9204 124.733L15.9204 116.454L23.5561 116.454L23.5561 124.733Z" fill="#101528"/>
<path d="M84.6425 133.012L77.0068 133.012L77.0068 124.733L84.6425 124.733L84.6425 133.012Z" fill="#101528"/>
<path d="M69.3722 133.012L61.7365 133.012L61.7365 124.733L69.3722 124.733L69.3722 133.012Z" fill="#101528"/>
<path d="M54.0993 133.012L46.4636 133.012L46.4636 124.733L54.0993 124.733L54.0993 133.012Z" fill="#101528"/>
<path d="M38.829 133.012L31.1933 133.012L31.1933 124.733L38.829 124.733L38.829 133.012Z" fill="#101528"/>
<path d="M23.5561 133.012L15.9204 133.012L15.9204 124.733L23.5561 124.733L23.5561 133.012Z" fill="#101528"/>
</svg>
