<svg width="125" height="135" viewBox="0 0 125 135" fill="none" xmlns="http://www.w3.org/2000/svg">
<path d="M15.5134 8.41107L23.2708 8.41107L23.2708 3.24249e-05L15.5134 3.1644e-05L15.5134 8.41107Z" fill="#101528"/>
<path d="M23.2708 16.8222L31.0282 16.8222L31.0282 8.41117L23.2708 8.41116L23.2708 16.8222Z" fill="#101528"/>
<path d="M46.5445 16.8222L54.3019 16.8222L54.3019 8.41117L46.5445 8.41116L46.5445 16.8222Z" fill="#101528"/>
<path d="M23.2708 25.2331L31.0282 25.2331L31.0282 16.8221L23.2708 16.8221L23.2708 25.2331Z" fill="#101528"/>
<path d="M54.3004 25.2331L62.0578 25.2331L62.0578 16.8221L54.3004 16.8221L54.3004 25.2331Z" fill="#101528"/>
<path d="M93.0874 25.2331L100.845 25.2331L100.845 16.8221L93.0874 16.8221L93.0874 25.2331Z" fill="#101528"/>
<path d="M15.5134 33.6442L23.2708 33.6442L23.2708 25.2332L15.5134 25.2332L15.5134 33.6442Z" fill="#101528"/>
<path d="M54.3004 33.6442L62.0578 33.6442L62.0578 25.2332L54.3004 25.2332L54.3004 33.6442Z" fill="#101528"/>
<path d="M93.0874 33.6442L100.845 33.6442L100.845 25.2332L93.0874 25.2332L93.0874 33.6442Z" fill="#101528"/>
<path d="M7.75751 42.0553L15.5149 42.0553L15.5149 33.6442L7.75751 33.6442L7.75751 42.0553Z" fill="#101528"/>
<path d="M46.5445 42.0553L54.3019 42.0553L54.3019 33.6442L46.5445 33.6442L46.5445 42.0553Z" fill="#101528"/>
<path d="M93.0874 42.0553L100.845 42.0553L100.845 33.6442L93.0874 33.6442L93.0874 42.0553Z" fill="#101528"/>
<path d="M7.75751 50.4663L15.5149 50.4663L15.5149 42.0552L7.75751 42.0552L7.75751 50.4663Z" fill="#101528"/>
<path d="M38.7871 50.4663L46.5445 50.4663L46.5445 42.0552L38.7871 42.0552L38.7871 50.4663Z" fill="#101528"/>
<path d="M77.5741 50.4663L85.3315 50.4663L85.3315 42.0552L77.5741 42.0552L77.5741 50.4663Z" fill="#101528"/>
<path d="M100.848 50.4663L108.605 50.4663L108.605 42.0552L100.848 42.0552L100.848 50.4663Z" fill="#101528"/>
<path d="M15.5134 58.8773L23.2708 58.8773L23.2708 50.4663L15.5134 50.4663L15.5134 58.8773Z" fill="#101528"/>
<path d="M38.7871 58.8773L46.5445 58.8773L46.5445 50.4663L38.7871 50.4663L38.7871 58.8773Z" fill="#101528"/>
<path d="M85.3315 58.8773L93.0889 58.8773L93.0889 50.4663L85.3315 50.4663L85.3315 58.8773Z" fill="#101528"/>
<path d="M108.604 58.8773L116.361 58.8773L116.361 50.4663L108.604 50.4663L108.604 58.8773Z" fill="#101528"/>
<path d="M15.5134 67.2884L23.2708 67.2884L23.2708 58.8773L15.5134 58.8773L15.5134 67.2884Z" fill="#101528"/>
<path d="M46.5445 67.2884L54.3019 67.2884L54.3019 58.8773L46.5445 58.8773L46.5445 67.2884Z" fill="#101528"/>
<path d="M85.3315 67.2884L93.0889 67.2884L93.0889 58.8773L85.3315 58.8773L85.3315 67.2884Z" fill="#101528"/>
<path d="M116.361 67.2884L124.119 67.2884L124.119 58.8773L116.361 58.8773L116.361 67.2884Z" fill="#101528"/>
<path d="M0.000109196 75.6994L7.75754 75.6994L7.75754 67.2883L0.000109834 67.2883L0.000109196 75.6994Z" fill="#101528"/>
<path d="M23.2708 75.6994L31.0282 75.6994L31.0282 67.2883L23.2708 67.2883L23.2708 75.6994Z" fill="#101528"/>
<path d="M54.3004 75.6994L62.0578 75.6994L62.0578 67.2883L54.3004 67.2883L54.3004 75.6994Z" fill="#101528"/>
<path d="M85.3315 75.6994L93.0889 75.6994L93.0889 67.2883L85.3315 67.2883L85.3315 75.6994Z" fill="#101528"/>
<path d="M116.361 75.6994L124.119 75.6994L124.119 67.2883L116.361 67.2883L116.361 75.6994Z" fill="#101528"/>
<path d="M7.75751 84.1105L15.5149 84.1105L15.5149 75.6994L7.75751 75.6994L7.75751 84.1105Z" fill="#101528"/>
<path d="M31.0297 84.1105L38.7871 84.1105L38.7871 75.6994L31.0297 75.6994L31.0297 84.1105Z" fill="#101528"/>
<path d="M54.3004 84.1105L62.0578 84.1105L62.0578 75.6994L54.3004 75.6994L54.3004 84.1105Z" fill="#101528"/>
<path d="M77.5741 84.1105L85.3315 84.1105L85.3315 75.6994L77.5741 75.6994L77.5741 84.1105Z" fill="#101528"/>
<path d="M116.361 84.1105L124.119 84.1105L124.119 75.6994L116.361 75.6994L116.361 84.1105Z" fill="#101528"/>
<path d="M7.75751 92.5215L15.5149 92.5215L15.5149 84.1105L7.75751 84.1105L7.75751 92.5215Z" fill="#101528"/>
<path d="M31.0297 92.5215L38.7871 92.5215L38.7871 84.1105L31.0297 84.1105L31.0297 92.5215Z" fill="#101528"/>
<path d="M54.3004 92.5215L62.0578 92.5215L62.0578 84.1105L54.3004 84.1105L54.3004 92.5215Z" fill="#101528"/>
<path d="M69.8167 92.5215L77.5741 92.5215L77.5741 84.1105L69.8167 84.1105L69.8167 92.5215Z" fill="#101528"/>
<path d="M108.604 92.5215L116.361 92.5215L116.361 84.1105L108.604 84.1105L108.604 92.5215Z" fill="#101528"/>
<path d="M7.75752 100.933L15.5149 100.933L15.5149 92.5215L7.75752 92.5215L7.75752 100.933Z" fill="#101528"/>
<path d="M31.0297 100.933L38.7871 100.933L38.7871 92.5215L31.0297 92.5215L31.0297 100.933Z" fill="#101528"/>
<path d="M46.5445 100.933L54.3019 100.933L54.3019 92.5215L46.5445 92.5215L46.5445 100.933Z" fill="#101528"/>
<path d="M69.8167 100.933L77.5741 100.933L77.5741 92.5215L69.8167 92.5215L69.8167 100.933Z" fill="#101528"/>
<path d="M93.0874 100.933L100.845 100.933L100.845 92.5215L93.0874 92.5215L93.0874 100.933Z" fill="#101528"/>
<path d="M100.848 100.933L108.605 100.933L108.605 92.5215L100.848 92.5215L100.848 100.933Z" fill="#101528"/>
<path d="M15.5134 109.344L23.2708 109.344L23.2708 100.933L15.5134 100.933L15.5134 109.344Z" fill="#101528"/>
<path d="M31.0297 109.344L38.7871 109.344L38.7871 100.933L31.0297 100.933L31.0297 109.344Z" fill="#101528"/>
<path d="M46.5445 109.344L54.3019 109.344L54.3019 100.933L46.5445 100.933L46.5445 109.344Z" fill="#101528"/>
<path d="M62.0608 109.344L69.8183 109.344L69.8183 100.933L62.0608 100.933L62.0608 109.344Z" fill="#101528"/>
<path d="M85.3315 109.344L93.0889 109.344L93.0889 100.933L85.3315 100.933L85.3315 109.344Z" fill="#101528"/>
<path d="M15.5134 117.755L23.2708 117.755L23.2708 109.344L15.5134 109.344L15.5134 117.755Z" fill="#101528"/>
<path d="M31.0297 117.755L38.7871 117.755L38.7871 109.344L31.0297 109.344L31.0297 117.755Z" fill="#101528"/>
<path d="M46.5445 117.755L54.3019 117.755L54.3019 109.344L46.5445 109.344L46.5445 117.755Z" fill="#101528"/>
<path d="M62.0608 117.755L69.8183 117.755L69.8183 109.344L62.0608 109.344L62.0608 117.755Z" fill="#101528"/>
<path d="M77.5741 117.755L85.3315 117.755L85.3315 109.344L77.5741 109.344L77.5741 117.755Z" fill="#101528"/>
<path d="M15.5134 126.166L23.2708 126.166L23.2708 117.755L15.5134 117.755L15.5134 126.166Z" fill="#101528"/>
<path d="M31.0297 126.166L38.7871 126.166L38.7871 117.755L31.0297 117.755L31.0297 126.166Z" fill="#101528"/>
<path d="M46.5445 126.166L54.3019 126.166L54.3019 117.755L46.5445 117.755L46.5445 126.166Z" fill="#101528"/>
<path d="M62.0608 126.166L69.8183 126.166L69.8183 117.755L62.0608 117.755L62.0608 126.166Z" fill="#101528"/>
<path d="M77.5741 126.166L85.3315 126.166L85.3315 117.755L77.5741 117.755L77.5741 126.166Z" fill="#101528"/>
<path d="M15.5134 134.577L23.2708 134.577L23.2708 126.166L15.5134 126.166L15.5134 134.577Z" fill="#101528"/>
<path d="M31.0297 134.577L38.7871 134.577L38.7871 126.166L31.0297 126.166L31.0297 134.577Z" fill="#101528"/>
<path d="M46.5445 134.577L54.3019 134.577L54.3019 126.166L46.5445 126.166L46.5445 134.577Z" fill="#101528"/>
<path d="M62.0608 134.577L69.8183 134.577L69.8183 126.166L62.0608 126.166L62.0608 134.577Z" fill="#101528"/>
<path d="M77.5741 134.577L85.3315 134.577L85.3315 126.166L77.5741 126.166L77.5741 134.577Z" fill="#101528"/>
</svg>
