<svg width="122" height="70" viewBox="0 0 122 70" fill="none" xmlns="http://www.w3.org/2000/svg" shape-rendering="crispEdges">
  <path d="M114.322 61.8044H107.23V69.4915H114.322V61.8044Z
           M107.23 61.8044H100.137V69.4915H107.23V61.8044Z
           M100.137 61.8044H93.045V69.4915H100.137V61.8044Z
           M93.045 61.8044H85.9525V69.4915H93.045V61.8044Z
           M85.9525 61.8044H78.8601V69.4915H85.9525V61.8044Z
           M78.8601 61.8044H71.7676V69.4915H78.8601V61.8044Z
           M71.7676 61.8044H64.6752V69.4915H71.7676V61.8044Z
           M64.6752 61.8044H57.5827V69.4915H64.6752V61.8044Z
           M57.5827 61.8044H50.4903V69.4915H57.5827V61.8044Z
           M50.4903 61.8044H43.3978V69.4915H50.4903V61.8044Z
           M43.3978 61.8044H36.3054V69.4915H43.3978V61.8044Z
           M36.3054 61.8044H29.2129V69.4915H36.3054V61.8044Z
           M29.2129 61.8044H22.1205V69.4915H29.2129V61.8044Z
           M22.1205 61.8044H15.028V69.4915H22.1205V61.8044Z
           M15.028 61.8044H7.93554V69.4915H15.028V61.8044Z
           M121.415 54.1173H114.322V61.8044H121.415V54.1173Z
           M7.93554 54.1173H0.843088V61.8044H7.93554V54.1173Z" fill="#101528"/>
           
  <path d="M114.322 54.1173H107.23V61.8044H114.322V54.1173Z
           M107.23 54.1173H100.137V61.8044H107.23V54.1173Z
           M100.137 54.1173H93.045V61.8044H100.137V54.1173Z
           M93.045 54.1173H85.9525V61.8044H93.045V54.1173Z
           M85.9525 54.1173H78.8601V61.8044H85.9525V54.1173Z
           M78.8601 54.1173H71.7676V61.8044H78.8601V54.1173Z
           M71.7676 54.1173H64.6752V61.8044H71.7676V54.1173Z
           M64.6752 54.1173H57.5827V61.8044H64.6752V54.1173Z
           M57.5827 54.1173H50.4903V61.8044H57.5827V54.1173Z
           M50.4903 54.1173H43.3978V61.8044H50.4903V54.1173Z
           M43.3978 54.1173H36.3054V61.8044H43.3978V54.1173Z
           M36.3054 54.1173H29.2129V61.8044H36.3054V54.1173Z
           M29.2129 54.1173H22.1205V61.8044H29.2129V54.1173Z
           M22.1205 54.1173H15.028V61.8044H22.1205V54.1173Z
           M15.028 54.1173H7.93554V61.8044H15.028V54.1173Z
           M121.415 46.4301H114.322V54.1173H121.415V46.4301Z
           M107.23 46.4301H100.137V54.1173H107.23V46.4301Z
           M93.045 46.4301H85.9525V54.1173H93.045V46.4301Z
           M78.8601 46.4301H71.7676V54.1173H78.8601V46.4301Z
           M64.6752 46.4301H57.5827V54.1173H64.6752V46.4301Z
           M50.4903 46.4301H43.3978V54.1173H50.4903V46.4301Z
           M29.2129 46.4301H22.1205V54.1173H29.2129V46.4301Z
           M15.028 46.4301H7.93554V54.1173H15.028V46.4301Z
           M7.93554 46.4301H0.843088V54.1173H7.93554V46.4301Z
           M100.137 38.743H93.045V46.4301H100.137V38.743Z
           M85.9525 38.743H78.8601V46.4301H85.9525V38.743Z
           M71.7676 38.743H64.6752V46.4301H71.7676V38.743Z
           M57.5827 38.743H50.4903V46.4301H57.5827V38.743Z
           M22.1205 38.743H15.028V46.4301H22.1205V38.743Z
           M7.93554 38.743H0.843088V46.4301H7.93554V38.743Z" fill="#22283B"/>
           
  <path d="M114.322 46.4301H107.23V54.1173H114.322V46.4301Z
           M100.137 46.4301H93.045V54.1173H100.137V46.4301Z
           M85.9525 46.4301H78.8601V54.1173H85.9525V46.4301Z
           M71.7676 46.4301H64.6752V54.1173H71.7676V46.4301Z
           M57.5827 46.4301H50.4903V54.1173H57.5827V46.4301Z
           M43.3978 46.4301H36.3054V54.1173H43.3978V46.4301Z
           M36.3054 46.4301H29.2129V54.1173H36.3054V46.4301Z
           M22.1205 46.4301H15.028V54.1173H22.1205V46.4301Z
           M121.415 38.743H114.322V46.4301H121.415V38.743Z
           M114.322 38.743H107.23V46.4301H114.322V38.743Z
           M107.23 38.743H100.137V46.4301H107.23V38.743Z
           M93.045 38.743H85.9525V46.4301H93.045V38.743Z
           M78.8601 38.743H71.7676V46.4301H78.8601V38.743Z
           M64.6752 38.743H57.5827V46.4301H64.6752V38.743Z
           M50.4903 38.743H43.3978V46.4301H50.4903V38.743Z
           M43.3978 38.743H36.3054V46.4301H43.3978V38.743Z
           M36.3054 38.743H29.2129V46.4301H36.3054V38.743Z
           M29.2129 38.743H22.1205V46.4301H29.2129V38.743Z
           M15.028 38.743H7.93554V46.4301H15.028V38.743Z
           M121.415 31.0559H114.322V38.743H121.415V31.0559Z
           M114.322 31.0559H107.23V38.743H114.322V31.0559Z
           M107.23 31.0559H100.137V38.743H107.23V31.0559Z
           M100.137 31.0559H93.045V38.743H100.137V31.0559Z
           M93.045 31.0559H85.9525V38.743H93.045V31.0559Z
           M85.9525 31.0559H78.8601V38.743H85.9525V31.0559Z
           M78.8601 31.0559H71.7676V38.743H78.8601V31.0559Z
           M71.7676 31.0559H64.6752V38.743H71.7676V31.0559Z
           M64.6752 31.0559H57.5827V38.743H64.6752V31.0559Z
           M57.5827 31.0559H50.4903V38.743H57.5827V31.0559Z
           M50.4903 31.0559H43.3978V38.743H50.4903V31.0559Z
           M43.3978 31.0559H36.3054V38.743H43.3978V31.0559Z
           M36.3054 31.0559H29.2129V38.743H36.3054V31.0559Z
           M29.2129 31.0559H22.1205V38.743H29.2129V31.0559Z
           M22.1205 31.0559H15.028V38.743H22.1205V31.0559Z
           M15.028 31.0559H7.93554V38.743H15.028V31.0559Z
           M7.93554 31.0559H0.843088V38.743H7.93554V31.0559Z
           M121.415 23.3688H114.322V31.0559H121.415V23.3688Z
           M114.322 23.3688H107.23V31.0559H114.322V23.3688Z
           M107.23 23.3688H100.137V31.0559H107.23V23.3688Z
           M100.137 23.3688H93.045V31.0559H100.137V23.3688Z
           M93.045 23.3688H85.9525V31.0559H93.045V23.3688Z
           M85.9525 23.3688H78.8601V31.0559H85.9525V23.3688Z
           M78.8601 23.3688H71.7676V31.0559H78.8601V23.3688Z
           M71.7676 23.3688H64.6752V31.0559H71.7676V23.3688Z
           M64.6752 23.3688H57.5827V31.0559H64.6752V23.3688Z
           M57.5827 23.3688H50.4903V31.0559H57.5827V23.3688Z
           M50.4903 23.3688H43.3978V31.0559H50.4903V23.3688Z
           M43.3978 23.3688H36.3054V31.0559H43.3978V23.3688Z
           M36.3054 23.3688H29.2129V31.0559H36.3054V23.3688Z
           M29.2129 23.3688H22.1205V31.0559H29.2129V23.3688Z
           M22.1205 23.3688H15.028V31.0559H22.1205V23.3688Z
           M15.028 23.3688H7.93554V31.0559H15.028V23.3688Z
           M7.93554 23.3688H0.843088V31.0559H7.93554V23.3688Z
           M121.415 15.6817H114.322V23.3688H121.415V15.6817Z
           M114.322 15.6817H107.23V23.3688H114.322V15.6817Z
           M107.23 15.6817H100.137V23.3688H107.23V15.6817Z
           M100.137 15.6817H93.045V23.3688H100.137V15.6817Z
           M93.045 15.6817H85.9525V23.3688H93.045V15.6817Z
           M85.9525 15.6817H78.8601V23.3688H85.9525V15.6817Z
           M78.8601 15.6817H71.7676V23.3688H78.8601V15.6817Z
           M71.7676 15.6817H64.6752V23.3688H71.7676V15.6817Z
           M64.6752 15.6817H57.5827V23.3688H64.6752V15.6817Z
           M57.5827 15.6817H50.4903V23.3688H57.5827V15.6817Z
           M50.4903 15.6817H43.3978V23.3688H50.4903V15.6817Z
           M43.3978 15.6817H36.3054V23.3688H43.3978V15.6817Z
           M36.3054 15.6817H29.2129V23.3688H36.3054V15.6817Z
           M29.2129 15.6817H22.1205V23.3688H29.2129V15.6817Z
           M22.1205 15.6817H15.028V23.3688H22.1205V15.6817Z
           M15.028 15.6817H7.93554V23.3688H15.028V15.6817Z
           M114.322 7.99453H107.23V15.6817H114.322V7.99453Z
           M107.23 7.99453H100.137V15.6817H107.23V7.99453Z
           M100.137 7.99453H93.045V15.6817H100.137V7.99453Z
           M93.045 7.99453H85.9525V15.6817H93.045V7.99453Z
           M85.9525 7.99453H78.8601V15.6817H85.9525V7.99453Z
           M78.8601 7.99453H71.7676V15.6817H78.8601V7.99453Z
           M71.7676 7.99453H64.6752V15.6817H71.7676V7.99453Z
           M64.6752 7.99453H57.5827V15.6817H64.6752V7.99453Z
           M57.5827 7.99453H50.4903V15.6817H57.5827V7.99453Z
           M50.4903 7.99453H43.3978V15.6817H50.4903V7.99453Z
           M43.3978 7.99453H36.3054V15.6817H43.3978V7.99453Z
           M36.3054 7.99453H29.2129V15.6817H36.3054V7.99453Z
           M29.2129 7.99453H22.1205V15.6817H29.2129V7.99453Z
           M22.1205 7.99453H15.028V15.6817H22.1205V7.99453Z
           M107.23 0.307404H100.137V7.99452H107.23V0.307404Z
           M100.137 0.307404H93.045V7.99452H100.137V0.307404Z
           M93.045 0.307404H85.9525V7.99452H93.045V0.307404Z
           M85.9525 0.307404H78.8601V7.99452H85.9525V0.307404Z
           M78.8601 0.307404H71.7676V7.99452H78.8601V0.307404Z
           M71.7676 0.307404H64.6752V7.99452H71.7676V0.307404Z
           M64.6752 0.307404H57.5827V7.99452H64.6752V0.307404Z
           M57.5827 0.307404H50.4903V7.99452H57.5827V0.307404Z
           M50.4903 0.307404H43.3978V7.99452H50.4903V0.307404Z
           M43.3978 0.307404H36.3054V7.99452H43.3978V0.307404Z
           M36.3054 0.307404H29.2129V7.99452H36.3054V0.307404Z
           M29.2129 0.307404H22.1205V7.99452H29.2129V0.307404Z" fill="#454E69"/>
</svg>
