<svg width="263" height="55" viewBox="0 0 263 55" fill="none" xmlns="http://www.w3.org/2000/svg">
<rect x="2" y="10" width="259" height="35" fill="#FFAB5F" stroke="black" stroke-width="4"/>
<rect x="6" y="6" width="251" height="43" fill="#FFAB5F" stroke="black" stroke-width="4"/>
<rect x="10" y="2" width="243" height="51" fill="#FFAB5F" stroke="black" stroke-width="4"/>
<rect x="4" y="8" width="255" height="39" fill="#FFAB5F"/>
<rect x="8" y="4" width="247" height="47" fill="#FFAB5F"/>
<path d="M53.4314 31.32C53.4314 31.784 53.2634 32.184 52.9274 32.52C52.6074 32.84 52.2154 33 51.7514 33H43.3514V24.6L45.0314 22.92H43.3514V21.24H50.0714C50.5354 21.24 50.9274 21.408 51.2474 21.744C51.5834 22.064 51.7514 22.456 51.7514 22.92V26.28H51.7994C52.2634 26.28 52.6474 26.448 52.9514 26.784C53.2714 27.104 53.4314 27.496 53.4314 27.96V31.32ZM49.8314 26.28V22.92H45.2714V27.72L46.7114 26.28H49.8314ZM51.5114 31.32V27.96H45.2714V31.32H51.5114ZM58.4633 33H56.7833V20.76L58.4633 19.08V33ZM63.5045 23.16H61.8245V21.24H63.5045V23.16ZM63.5045 33H61.8245V25.8L63.5045 24.12V33ZM78.6083 19.56L77.1443 21H73.0883V25.56L74.0723 24.6H78.3683L76.9043 26.04H73.0883V33H71.4083V21.24C71.4083 20.776 71.5683 20.384 71.8883 20.064C72.2243 19.728 72.6243 19.56 73.0883 19.56H78.6083ZM88.0839 31.32C88.0839 31.784 87.9159 32.184 87.5799 32.52C87.2599 32.84 86.8679 33 86.4039 33H81.3639C80.8999 33 80.4999 32.84 80.1639 32.52C79.8439 32.184 79.6839 31.784 79.6839 31.32V26.28C79.6839 25.816 79.8439 25.424 80.1639 25.104C80.4999 24.768 80.8999 24.6 81.3639 24.6H86.4039C86.8679 24.6 87.2599 24.768 87.5799 25.104C87.9159 25.424 88.0839 25.816 88.0839 26.28V31.32ZM86.4039 31.56V26.04H81.3639V31.56H86.4039ZM97.9195 27.96H96.2395V26.04H92.8795V33H91.1995V24.6H92.8795V25.8L94.0795 24.6H96.2395C96.7035 24.6 97.0955 24.768 97.4155 25.104C97.7515 25.424 97.9195 25.816 97.9195 26.28V27.96ZM108.701 33H101.981C101.517 33 101.117 32.84 100.781 32.52C100.461 32.184 100.301 31.784 100.301 31.32V26.28C100.301 25.816 100.461 25.424 100.781 25.104C101.117 24.768 101.517 24.6 101.981 24.6H107.021C107.485 24.6 107.877 24.768 108.197 25.104C108.533 25.424 108.701 25.816 108.701 26.28V27.96L107.021 29.64H102.221L103.661 28.2H107.021V26.04H101.981V31.56H108.701V33ZM119.49 33H117.81V31.8L116.61 33H112.77C112.306 33 111.906 32.84 111.57 32.52C111.25 32.184 111.09 31.784 111.09 31.32V26.28C111.09 25.816 111.25 25.424 111.57 25.104C111.906 24.768 112.306 24.6 112.77 24.6H117.81V20.76L119.49 19.08V33ZM117.81 31.56V24.84L116.61 26.04H112.77V31.56H117.81ZM129.56 27.96H127.88V26.04H124.52V33H122.84V24.6H124.52V25.8L125.72 24.6H127.88C128.344 24.6 128.736 24.768 129.056 25.104C129.392 25.424 129.56 25.816 129.56 26.28V27.96ZM139.982 33H138.302V31.776L136.862 33H133.262C132.798 33 132.398 32.84 132.062 32.52C131.742 32.184 131.582 31.784 131.582 31.32V29.64C131.582 29.176 131.742 28.784 132.062 28.464C132.398 28.128 132.798 27.96 133.262 27.96H138.062L136.622 29.376H133.262V31.56H138.302V26.04H131.582L133.022 24.6H138.302C138.766 24.6 139.158 24.768 139.478 25.104C139.814 25.424 139.982 25.816 139.982 26.28V33ZM152.442 24.6L151.002 26.04H145.002V31.56H150.042V26.76H151.722V36.36C151.722 36.824 151.554 37.216 151.218 37.536C150.898 37.872 150.506 38.04 150.042 38.04H143.082L144.522 36.6H150.042V31.776L148.602 33H145.002C144.538 33 144.138 32.84 143.802 32.52C143.482 32.184 143.322 31.784 143.322 31.32V26.28C143.322 25.816 143.482 25.424 143.802 25.104C144.138 24.768 144.538 24.6 145.002 24.6H152.442ZM161.79 24.6L160.326 26.04H156.27V27.96H159.63C160.094 27.96 160.486 28.128 160.806 28.464C161.142 28.784 161.31 29.176 161.31 29.64V31.32C161.31 31.784 161.142 32.184 160.806 32.52C160.486 32.84 160.094 33 159.63 33H154.59V31.56H159.63V29.4H156.27C155.806 29.4 155.406 29.24 155.07 28.92C154.75 28.584 154.59 28.184 154.59 27.72V26.28C154.59 25.816 154.75 25.424 155.07 25.104C155.406 24.768 155.806 24.6 156.27 24.6H161.79ZM172.691 33H171.011V26.04H165.971V33H164.291V20.76L165.971 19.08V25.8L167.171 24.6H171.011C171.475 24.6 171.867 24.768 172.187 25.104C172.523 25.424 172.691 25.816 172.691 26.28V33ZM184.201 31.32C184.201 31.784 184.033 32.184 183.697 32.52C183.377 32.84 182.985 33 182.521 33H177.481C177.017 33 176.617 32.84 176.281 32.52C175.961 32.184 175.801 31.784 175.801 31.32V26.28C175.801 25.816 175.961 25.424 176.281 25.104C176.617 24.768 177.017 24.6 177.481 24.6H182.521C182.985 24.6 183.377 24.768 183.697 25.104C184.033 25.424 184.201 25.816 184.201 26.28V31.32ZM182.521 31.56V26.04H177.481V31.56H182.521ZM189.237 33H187.557V20.76L189.237 19.08V33ZM200.998 33H199.318V31.8L198.118 33H194.278C193.814 33 193.414 32.84 193.078 32.52C192.758 32.184 192.598 31.784 192.598 31.32V26.28C192.598 25.816 192.758 25.424 193.078 25.104C193.414 24.768 193.814 24.6 194.278 24.6H199.318V20.76L200.998 19.08V33ZM199.318 31.56V24.84L198.118 26.04H194.278V31.56H199.318ZM212.748 33H206.028C205.564 33 205.164 32.84 204.828 32.52C204.508 32.184 204.348 31.784 204.348 31.32V26.28C204.348 25.816 204.508 25.424 204.828 25.104C205.164 24.768 205.564 24.6 206.028 24.6H211.068C211.532 24.6 211.924 24.768 212.244 25.104C212.58 25.424 212.748 25.816 212.748 26.28V27.96L211.068 29.64H206.268L207.708 28.2H211.068V26.04H206.028V31.56H212.748V33ZM221.857 27.96H220.177V26.04H216.817V33H215.137V24.6H216.817V25.8L218.017 24.6H220.177C220.641 24.6 221.033 24.768 221.353 25.104C221.689 25.424 221.857 25.816 221.857 26.28V27.96Z" fill="black"/>
</svg>
