<svg width="448" height="76" viewBox="0 0 448 76" fill="none" xmlns="http://www.w3.org/2000/svg">
<path fill-rule="evenodd" clip-rule="evenodd" d="M0 0H45.4752V7.47572H52.9496V30.5248H45.4752V37.3769H52.9496V67.9013H45.4752V75.9993H14.9507V76H0V75.9993V60.4256V45.4749V29.9012V14.9507V14.3282V0ZM14.9507 45.4749H37.9989V60.4256H14.9507V45.4749ZM37.9989 29.9012V14.9507H14.9507V29.9012H37.9989ZM75.9993 0H61.0486V29.9012V30.5244V37.9995H68.5246V45.4752H76.0005V52.951H83.4765V75.9995H98.4273V52.951H105.902V45.4752H113.377V37.9995H120.85V30.5244H120.851V0H105.9V29.9012H98.4238V37.3769H83.4747V29.9012H75.9993V0ZM128.95 0H174.426V14.9507H159.476V76H144.525V14.9507H128.95V0ZM447.278 0H401.802V14.9507H417.373V76H432.324V14.9507H447.278V0ZM181.9 0H227.376V14.9507H196.851V30.5245H219.277V45.4752H196.851V60.4256H227.376V75.9993H181.9V75.3767V60.4256V45.4752V30.5245V14.9507V6.85245V0ZM333.898 0H288.423V6.85245V14.9507V30.5245V45.4752V60.4256V75.3767V75.9993H333.898V60.4256H303.374V45.4752H325.8V30.5245H303.374V14.9507H333.898V0ZM348.229 0H386.229V7.47572H393.702V21.8035H378.752V14.9507H355.704V30.5245H386.229V36.7536H393.702V67.901H386.229V75.9996H348.229V67.901H340.753V53.5732H355.704V61.0489H378.752V45.4752H348.229V36.7543H340.753V7.47572H348.229V0ZM280.325 0H234.85V7.47572V14.9507V30.5245V45.4752V76H249.801V45.4752H272.227V30.5245H249.801V14.9507H280.325V0Z" fill="#F8F5D3"/>
</svg>
