<svg width="136" height="38" viewBox="0 0 136 38" fill="none" xmlns="http://www.w3.org/2000/svg">
<g clip-path="url(#clip0_1_2)">
<mask id="mask0_1_2" style="mask-type:luminance" maskUnits="userSpaceOnUse" x="109" y="-6" width="27" height="21">
<path d="M135.948 -6H109V14.6361H135.948V-6Z" fill="white"/>
</mask>
<g mask="url(#mask0_1_2)">
<path d="M135.948 13.0488H134.363V14.6362H135.948V13.0488Z" fill="#F77622"/>
<path d="M135.948 11.4609H134.363V13.0483H135.948V11.4609Z" fill="#F77622"/>
<path d="M135.948 5.1113H134.363V6.6987H135.948V5.1113Z" fill="#F77622"/>
<path d="M135.948 3.52344H134.363V5.1108H135.948V3.52344Z" fill="#F77622"/>
<path d="M134.363 13.0488H132.778V14.6362H134.363V13.0488Z" fill="#F77622"/>
<path d="M132.778 13.0488H131.193V14.6362H132.778V13.0488Z" fill="#F77622"/>
<path d="M128.022 13.0488H126.437V14.6362H128.022V13.0488Z" fill="#BE4A2F"/>
<path d="M126.437 13.0488H124.852V14.6362H126.437V13.0488Z" fill="#F77622"/>
<path d="M124.852 13.0488H123.267V14.6362H124.852V13.0488Z" fill="#BE4A2F"/>
<path d="M123.267 13.0488H121.682V14.6362H123.267V13.0488Z" fill="#F77622"/>
<path d="M121.682 13.0488H120.096V14.6362H121.682V13.0488Z" fill="#F77622"/>
<path d="M120.096 13.0488H118.511V14.6362H120.096V13.0488Z" fill="#D77643"/>
<path d="M134.363 11.4609H132.778V13.0483H134.363V11.4609Z" fill="#FEAE34"/>
<path d="M132.778 11.4609H131.193V13.0483H132.778V11.4609Z" fill="#F77622"/>
<path d="M129.608 11.4609H128.022V13.0483H129.608V11.4609Z" fill="#BE4A2F"/>
<path d="M128.022 11.4609H126.437V13.0483H128.022V11.4609Z" fill="#F77622"/>
<path d="M126.437 11.4609H124.852V13.0483H126.437V11.4609Z" fill="#BE4A2F"/>
<path d="M124.852 11.4609H123.267V13.0483H124.852V11.4609Z" fill="#F77622"/>
<path d="M123.267 11.4609H121.682V13.0483H123.267V11.4609Z" fill="#F77622"/>
<path d="M121.682 11.4609H120.096V13.0483H121.682V11.4609Z" fill="#F77622"/>
<path d="M120.096 11.4609H118.511V13.0483H120.096V11.4609Z" fill="#F77622"/>
<path d="M118.511 11.4609H116.926V13.0483H118.511V11.4609Z" fill="#D77643"/>
<path d="M134.363 9.873H132.778V11.4604H134.363V9.873Z" fill="#F77622"/>
<path d="M132.778 9.873H131.193V11.4604H132.778V9.873Z" fill="#FEAE34"/>
<path d="M131.193 9.873H129.608V11.4604H131.193V9.873Z" fill="#F77622"/>
<path d="M129.608 9.873H128.022V11.4604H129.608V9.873Z" fill="#3E2731"/>
<path d="M128.022 9.873H126.437V11.4604H128.022V9.873Z" fill="#F77622"/>
<path d="M126.437 9.873H124.852V11.4604H126.437V9.873Z" fill="#3E2731"/>
<path d="M124.852 9.873H123.267V11.4604H124.852V9.873Z" fill="#F77622"/>
<path d="M123.267 9.873H121.682V11.4604H123.267V9.873Z" fill="#F77622"/>
<path d="M121.682 9.873H120.096V11.4604H121.682V9.873Z" fill="#F77622"/>
<path d="M120.096 9.873H118.511V11.4604H120.096V9.873Z" fill="#F77622"/>
<path d="M118.511 9.873H116.926V11.4604H118.511V9.873Z" fill="#F77622"/>
<path d="M132.778 8.2871H131.193V9.8745H132.778V8.2871Z" fill="#F77622"/>
<path d="M131.193 8.2871H129.608V9.8745H131.193V8.2871Z" fill="#FEAE34"/>
<path d="M129.608 8.2871H128.022V9.8745H129.608V8.2871Z" fill="#733E39"/>
<path d="M128.022 8.2871H126.437V9.8745H128.022V8.2871Z" fill="#FEAE34"/>
<path d="M126.437 8.2871H124.852V9.8745H126.437V8.2871Z" fill="#733E39"/>
<path d="M124.852 8.2871H123.267V9.8745H124.852V8.2871Z" fill="#FEAE34"/>
<path d="M123.267 8.2871H121.682V9.8745H123.267V8.2871Z" fill="#EAD4AA"/>
<path d="M121.682 8.2871H120.096V9.8745H121.682V8.2871Z" fill="#E9E5E1"/>
<path d="M120.096 8.2871H118.511V9.8745H120.096V8.2871Z" fill="#EAD4AA"/>
<path d="M118.511 8.2871H116.926V9.8745H118.511V8.2871Z" fill="#FEAE34"/>
<path d="M134.363 6.6992H132.778V8.2866H134.363V6.6992Z" fill="#F77622"/>
<path d="M132.778 6.6992H131.193V8.2866H132.778V6.6992Z" fill="#F77622"/>
<path d="M131.193 6.6992H129.608V8.2866H131.193V6.6992Z" fill="#FEAE34"/>
<path d="M129.608 6.6992H128.022V8.2866H129.608V6.6992Z" fill="#BE4A2F"/>
<path d="M128.022 6.6992H126.437V8.2866H128.022V6.6992Z" fill="#FEAE34"/>
<path d="M126.437 6.6992H124.852V8.2866H126.437V6.6992Z" fill="#BE4A2F"/>
<path d="M124.852 6.6992H123.267V8.2866H124.852V6.6992Z" fill="#FEAE34"/>
<path d="M123.267 6.6992H121.682V8.2866H123.267V6.6992Z" fill="#E9E5E1"/>
<path d="M121.682 6.6992H120.096V8.2866H121.682V6.6992Z" fill="#733E39"/>
<path d="M120.096 6.6992H118.511V8.2866H120.096V6.6992Z" fill="#E9E5E1"/>
<path d="M118.511 6.6992H116.926V8.2866H118.511V6.6992Z" fill="#FEAE34"/>
<path d="M134.363 5.1113H132.778V6.6987H134.363V5.1113Z" fill="#F77622"/>
<path d="M132.778 5.1113H131.193V6.6987H132.778V5.1113Z" fill="#FEAE34"/>
<path d="M129.608 5.1113H128.022V6.6987H129.608V5.1113Z" fill="#733E39"/>
<path d="M128.022 5.1113H126.437V6.6987H128.022V5.1113Z" fill="#F77622"/>
<path d="M126.437 5.1113H124.852V6.6987H126.437V5.1113Z" fill="#3E2731"/>
<path d="M124.852 5.1113H123.267V6.6987H124.852V5.1113Z" fill="#F77622"/>
<path d="M123.267 5.1113H121.682V6.6987H123.267V5.1113Z" fill="#EAD4AA"/>
<path d="M121.682 5.1113H120.096V6.6987H121.682V5.1113Z" fill="#E9E5E1"/>
<path d="M120.096 5.1113H118.511V6.6987H120.096V5.1113Z" fill="#EAD4AA"/>
<path d="M118.511 5.1113H116.926V6.6987H118.511V5.1113Z" fill="#F77622"/>
<path d="M134.363 3.52344H132.778V5.1108H134.363V3.52344Z" fill="#FEAE34"/>
<path d="M132.778 3.52344H131.193V5.1108H132.778V3.52344Z" fill="#F77622"/>
<path d="M128.022 3.52344H126.437V5.1108H128.022V3.52344Z" fill="#F77622"/>
<path d="M126.437 3.52344H124.852V5.1108H126.437V3.52344Z" fill="#733E39"/>
<path d="M124.852 3.52344H123.267V5.1108H124.852V3.52344Z" fill="#F77622"/>
<path d="M123.267 3.52344H121.682V5.1108H123.267V3.52344Z" fill="#F77622"/>
<path d="M121.682 3.52344H120.096V5.1108H121.682V3.52344Z" fill="#F77622"/>
<path d="M120.096 3.52344H118.511V5.1108H120.096V3.52344Z" fill="#F77622"/>
<path d="M124.852 1.9375H123.267V3.52489H124.852V1.9375Z" fill="#F77622"/>
<path d="M123.267 1.9375H121.682V3.52489H123.267V1.9375Z" fill="#FEAE34"/>
<path d="M124.852 0.34961H123.267V1.937H124.852V0.34961Z" fill="#FEAE34"/>
</g>
<path fill-rule="evenodd" clip-rule="evenodd" d="M10 17.3086H22.2005V19.314H24.2055V25.4978H22.2005V27.3362H24.2055V35.5256H22.2005V37.6987H10V33.5205V29.5091V25.3308V21.3197V21.1527V17.3086ZM14.0111 29.5091H20.1944V33.5205H14.0111V29.5091ZM20.1944 25.3308V21.3197H14.0111V25.3308H20.1944ZM30.3904 17.3086H26.3793V25.3308V25.498V27.5035H28.3853V29.5089H30.3914V31.515H32.3948V37.6984H36.4059V31.515H38.4136V29.5089H40.4187V27.5035H42.4236V25.498L42.4241 17.3086H38.413V25.3308H36.4069V27.3362H32.396V25.3308H30.3904V17.3086ZM44.5952 17.3086H56.7957V21.3197H52.7852V37.6983H48.774V21.3197H44.5952V17.3086ZM130.001 17.3086H117.8V21.3197H121.977V37.6983H125.988V21.3197H130.001V17.3086ZM58.8017 17.3086H71.0022V21.3197H62.8128V25.4982H68.8295V29.5094H62.8128V33.5205H71.0022V37.6987H58.8017V37.5316V33.5205V29.5094V25.4982V21.3197V19.1473V17.3086ZM99.5819 17.3086H87.3814V19.1473V21.3197V25.4982V29.5094V33.5205V37.5316V37.6987H99.5819V33.5205H91.3925V29.5094H97.4092V25.4982H91.3925V21.3197H99.5819V17.3086ZM103.424 17.3086H113.619V19.314H115.627V23.158H111.615V21.3197H105.432V25.4982H113.619V27.1695H115.627V35.526H113.619V37.6983H103.424V35.5258H101.421V31.6818H105.432V33.6872H111.615V29.5094H103.424V27.1691H101.421V19.314H103.424V17.3086ZM85.2087 17.3086H73.0082V19.314V21.3197V25.4982V29.5094V37.6983H77.0193V29.5094H83.036V25.4982H77.0193V21.3197H85.2087V17.3086Z" fill="#161E38"/>
</g>
<defs>
<clipPath id="clip0_1_2">
<rect width="136" height="38" fill="white"/>
</clipPath>
</defs>
</svg>
