<svg width="126" height="44" viewBox="0 0 126 44" fill="none" xmlns="http://www.w3.org/2000/svg">
<g clip-path="url(#clip0_2_3645)">
<path d="M125.948 19.0488H124.363V20.6362H125.948V19.0488Z" fill="#F77622"/>
<path d="M125.948 17.4609H124.363V19.0483H125.948V17.4609Z" fill="#F77622"/>
<path d="M125.948 11.1113H124.363V12.6987H125.948V11.1113Z" fill="#F77622"/>
<path d="M125.948 9.52441H124.363V11.1118H125.948V9.52441Z" fill="#F77622"/>
<path d="M124.363 19.0488H122.778V20.6362H124.363V19.0488Z" fill="#F77622"/>
<path d="M122.778 19.0488H121.193V20.6362H122.778V19.0488Z" fill="#F77622"/>
<path d="M118.022 19.0488H116.437V20.6362H118.022V19.0488Z" fill="#BE4A2F"/>
<path d="M116.437 19.0488H114.852V20.6362H116.437V19.0488Z" fill="#F77622"/>
<path d="M114.852 19.0488H113.267V20.6362H114.852V19.0488Z" fill="#BE4A2F"/>
<path d="M113.267 19.0488H111.682V20.6362H113.267V19.0488Z" fill="#F77622"/>
<path d="M111.682 19.0488H110.096V20.6362H111.682V19.0488Z" fill="#F77622"/>
<path d="M110.096 19.0488H108.511V20.6362H110.096V19.0488Z" fill="#D77643"/>
<path d="M124.363 17.4609H122.778V19.0483H124.363V17.4609Z" fill="#FEAE34"/>
<path d="M122.778 17.4609H121.193V19.0483H122.778V17.4609Z" fill="#F77622"/>
<path d="M119.608 17.4609H118.022V19.0483H119.608V17.4609Z" fill="#BE4A2F"/>
<path d="M118.022 17.4609H116.437V19.0483H118.022V17.4609Z" fill="#F77622"/>
<path d="M116.437 17.4609H114.852V19.0483H116.437V17.4609Z" fill="#BE4A2F"/>
<path d="M114.852 17.4609H113.267V19.0483H114.852V17.4609Z" fill="#F77622"/>
<path d="M113.267 17.4609H111.682V19.0483H113.267V17.4609Z" fill="#F77622"/>
<path d="M111.682 17.4609H110.096V19.0483H111.682V17.4609Z" fill="#F77622"/>
<path d="M110.096 17.4609H108.511V19.0483H110.096V17.4609Z" fill="#F77622"/>
<path d="M108.511 17.4609H106.926V19.0483H108.511V17.4609Z" fill="#D77643"/>
<path d="M124.363 15.874H122.778V17.4614H124.363V15.874Z" fill="#F77622"/>
<path d="M122.778 15.874H121.193V17.4614H122.778V15.874Z" fill="#FEAE34"/>
<path d="M121.193 15.874H119.608V17.4614H121.193V15.874Z" fill="#F77622"/>
<path d="M119.608 15.874H118.022V17.4614H119.608V15.874Z" fill="#3E2731"/>
<path d="M118.022 15.874H116.437V17.4614H118.022V15.874Z" fill="#F77622"/>
<path d="M116.437 15.874H114.852V17.4614H116.437V15.874Z" fill="#3E2731"/>
<path d="M114.852 15.874H113.267V17.4614H114.852V15.874Z" fill="#F77622"/>
<path d="M113.267 15.874H111.682V17.4614H113.267V15.874Z" fill="#F77622"/>
<path d="M111.682 15.874H110.096V17.4614H111.682V15.874Z" fill="#F77622"/>
<path d="M110.096 15.874H108.511V17.4614H110.096V15.874Z" fill="#F77622"/>
<path d="M108.511 15.874H106.926V17.4614H108.511V15.874Z" fill="#F77622"/>
<path d="M122.778 14.2861H121.193V15.8735H122.778V14.2861Z" fill="#F77622"/>
<path d="M121.193 14.2861H119.608V15.8735H121.193V14.2861Z" fill="#FEAE34"/>
<path d="M119.608 14.2861H118.022V15.8735H119.608V14.2861Z" fill="#733E39"/>
<path d="M118.022 14.2861H116.437V15.8735H118.022V14.2861Z" fill="#FEAE34"/>
<path d="M116.437 14.2861H114.852V15.8735H116.437V14.2861Z" fill="#733E39"/>
<path d="M114.852 14.2861H113.267V15.8735H114.852V14.2861Z" fill="#FEAE34"/>
<path d="M113.267 14.2861H111.682V15.8735H113.267V14.2861Z" fill="#EAD4AA"/>
<path d="M111.682 14.2861H110.096V15.8735H111.682V14.2861Z" fill="#E9E5E1"/>
<path d="M110.096 14.2861H108.511V15.8735H110.096V14.2861Z" fill="#EAD4AA"/>
<path d="M108.511 14.2861H106.926V15.8735H108.511V14.2861Z" fill="#FEAE34"/>
<path d="M124.363 12.6992H122.778V14.2866H124.363V12.6992Z" fill="#F77622"/>
<path d="M122.778 12.6992H121.193V14.2866H122.778V12.6992Z" fill="#F77622"/>
<path d="M121.193 12.6992H119.608V14.2866H121.193V12.6992Z" fill="#FEAE34"/>
<path d="M119.608 12.6992H118.022V14.2866H119.608V12.6992Z" fill="#BE4A2F"/>
<path d="M118.022 12.6992H116.437V14.2866H118.022V12.6992Z" fill="#FEAE34"/>
<path d="M116.437 12.6992H114.852V14.2866H116.437V12.6992Z" fill="#BE4A2F"/>
<path d="M114.852 12.6992H113.267V14.2866H114.852V12.6992Z" fill="#FEAE34"/>
<path d="M113.267 12.6992H111.682V14.2866H113.267V12.6992Z" fill="#E9E5E1"/>
<path d="M111.682 12.6992H110.096V14.2866H111.682V12.6992Z" fill="#733E39"/>
<path d="M110.096 12.6992H108.511V14.2866H110.096V12.6992Z" fill="#E9E5E1"/>
<path d="M108.511 12.6992H106.926V14.2866H108.511V12.6992Z" fill="#FEAE34"/>
<path d="M124.363 11.1113H122.778V12.6987H124.363V11.1113Z" fill="#F77622"/>
<path d="M122.778 11.1113H121.193V12.6987H122.778V11.1113Z" fill="#FEAE34"/>
<path d="M119.608 11.1113H118.022V12.6987H119.608V11.1113Z" fill="#733E39"/>
<path d="M118.022 11.1113H116.437V12.6987H118.022V11.1113Z" fill="#F77622"/>
<path d="M116.437 11.1113H114.852V12.6987H116.437V11.1113Z" fill="#3E2731"/>
<path d="M114.852 11.1113H113.267V12.6987H114.852V11.1113Z" fill="#F77622"/>
<path d="M113.267 11.1113H111.682V12.6987H113.267V11.1113Z" fill="#EAD4AA"/>
<path d="M111.682 11.1113H110.096V12.6987H111.682V11.1113Z" fill="#E9E5E1"/>
<path d="M110.096 11.1113H108.511V12.6987H110.096V11.1113Z" fill="#EAD4AA"/>
<path d="M108.511 11.1113H106.926V12.6987H108.511V11.1113Z" fill="#F77622"/>
<path d="M124.363 9.52441H122.778V11.1118H124.363V9.52441Z" fill="#FEAE34"/>
<path d="M122.778 9.52441H121.193V11.1118H122.778V9.52441Z" fill="#F77622"/>
<path d="M118.022 9.52441H116.437V11.1118H118.022V9.52441Z" fill="#F77622"/>
<path d="M116.437 9.52441H114.852V11.1118H116.437V9.52441Z" fill="#733E39"/>
<path d="M114.852 9.52441H113.267V11.1118H114.852V9.52441Z" fill="#F77622"/>
<path d="M113.267 9.52441H111.682V11.1118H113.267V9.52441Z" fill="#F77622"/>
<path d="M111.682 9.52441H110.096V11.1118H111.682V9.52441Z" fill="#F77622"/>
<path d="M110.096 9.52441H108.511V11.1118H110.096V9.52441Z" fill="#F77622"/>
<path d="M114.852 7.93652H113.267V9.52392H114.852V7.93652Z" fill="#F77622"/>
<path d="M113.267 7.93652H111.682V9.52392H113.267V7.93652Z" fill="#FEAE34"/>
<path d="M114.852 6.34961H113.267V7.937H114.852V6.34961Z" fill="#FEAE34"/>
</g>
<path fill-rule="evenodd" clip-rule="evenodd" d="M0 23.3086H12.2005V25.314H14.2055V31.4978H12.2005V33.3362H14.2055V41.5256H12.2005V43.6987H0V43.6985V39.5205V35.5091V31.3308V27.3197V27.1527V23.3086ZM4.01112 35.5091H10.1944V39.5205H4.01112V35.5091ZM10.1944 31.3308V27.3197H4.01112V31.3308H10.1944ZM20.3904 23.3086H16.3793V31.3308V31.498V33.5035H18.3853V35.5089H20.3914V37.515H22.3948V43.6984H26.4059V37.515H28.4136V35.5089H30.4187V33.5035H32.4236V31.498H32.4241V23.3086H28.413V31.3308H26.4069V33.3362H22.396V31.3308H20.3904V23.3086ZM34.5952 23.3086H46.7957V27.3197H42.7852V43.6983H38.774V27.3197H34.5952V23.3086ZM120.001 23.3086H107.8V27.3197H111.977V43.6983H115.988V27.3197H120.001V23.3086ZM48.8017 23.3086H61.0022V27.3197H52.8128V31.4982H58.8295V35.5094H52.8128V39.5205H61.0022V43.6987H48.8017V43.5316V39.5205V35.5094V31.4982V27.3197V25.1473V23.3086ZM89.5819 23.3086H77.3814V25.1473V27.3197V31.4982V35.5094V39.5205V43.5316V43.6987H89.5819V39.5205H81.3925V35.5094H87.4092V31.4982H81.3925V27.3197H89.5819V23.3086ZM93.4245 23.3086H103.619V25.314H105.627V29.158H101.615V27.3197H95.4323V31.4982H103.619V33.1695H105.627V41.526H103.619V43.6983H93.4245V41.5258H91.4211V37.6818H95.4323V39.6872H101.615V35.5094H93.4245V33.1691H91.4211V25.314H93.4245V23.3086ZM75.2087 23.3086H63.0082V25.314V27.3197V31.4982V35.5094V43.6983H67.0193V35.5094H73.036V31.4982H67.0193V27.3197H75.2087V23.3086Z" fill="#161E38"/>
<defs>
<clipPath id="clip0_2_3645">
<rect width="26.9483" height="20.6361" fill="white" transform="translate(99)"/>
</clipPath>
</defs>
</svg>
