<svg width="936" height="159" viewBox="0 0 936 159" fill="none" xmlns="http://www.w3.org/2000/svg">
<rect width="95.1394" height="31.2787" fill="#F8F5D3"/>
<rect y="126.418" width="95.1394" height="32.582" fill="#F8F5D3"/>
<rect y="62.5566" width="95.1394" height="32.582" fill="#F8F5D3"/>
<rect y="29.9766" width="31.2787" height="129.025" fill="#F8F5D3"/>
<rect x="79.498" y="15.6406" width="31.2787" height="48.2213" fill="#F8F5D3"/>
<rect x="79.498" y="78.1973" width="31.2787" height="63.8607" fill="#F8F5D3"/>
<rect x="127.721" width="31.2787" height="63.8607" fill="#F8F5D3"/>
<rect x="221.555" width="31.2787" height="63.8607" fill="#F8F5D3"/>
<rect x="174.643" y="95.1387" width="31.2787" height="63.8607" fill="#F8F5D3"/>
<rect x="269.779" width="95.1394" height="31.2787" fill="#F8F5D3"/>
<rect x="380.557" width="95.1394" height="31.2787" fill="#F8F5D3"/>
<rect x="380.557" y="63.8604" width="78.1967" height="31.2787" fill="#F8F5D3"/>
<rect x="127.721" y="62.5566" width="46.918" height="16.9426" fill="#F8F5D3"/>
<rect x="205.914" y="62.5566" width="46.918" height="16.9426" fill="#F8F5D3"/>
<rect x="143.361" y="78.1973" width="93.8361" height="16.9426" fill="#F8F5D3"/>
<rect x="159.002" y="93.8369" width="62.5574" height="16.9426" fill="#F8F5D3"/>
<rect x="380.557" y="126.418" width="95.1394" height="32.582" fill="#F8F5D3"/>
<rect x="302.363" y="15.6406" width="31.2787" height="143.361" fill="#F8F5D3"/>
<rect x="380.557" y="14.3359" width="31.2787" height="143.361" fill="#F8F5D3"/>
<rect x="840.617" width="95.1394" height="31.2787" fill="#DBA464"/>
<rect x="603.414" width="95.1394" height="31.2787" fill="#DBA464"/>
<rect x="728.535" width="79.5" height="31.2787" fill="#DBA464"/>
<rect x="728.535" y="63.8613" width="79.5" height="31.2787" fill="#DBA464"/>
<rect x="728.535" y="127.721" width="79.5" height="31.2787" fill="#DBA464"/>
<rect x="491.334" width="95.1394" height="31.2787" fill="#DBA464"/>
<rect x="491.334" y="63.8613" width="78.1967" height="31.2787" fill="#DBA464"/>
<rect x="603.414" y="63.8613" width="78.1967" height="31.2787" fill="#DBA464"/>
<rect x="603.414" y="126.418" width="95.1394" height="32.582" fill="#DBA464"/>
<rect x="603.414" y="14.3359" width="31.2787" height="143.361" fill="#DBA464"/>
<rect x="491.334" y="15.6406" width="31.2787" height="143.361" fill="#DBA464"/>
<rect x="712.895" y="15.6406" width="31.2787" height="61.2541" fill="#DBA464"/>
<rect x="792.393" y="15.6406" width="31.2787" height="29.9754" fill="#DBA464"/>
<rect x="792.393" y="76.8926" width="31.2787" height="65.1639" fill="#DBA464"/>
<rect x="712.895" y="112.081" width="31.2787" height="29.9754" fill="#DBA464"/>
<rect x="873.193" y="15.6406" width="31.2787" height="143.361" fill="#DBA464"/>
</svg>
