<svg width="263" height="55" viewBox="0 0 263 55" fill="none" xmlns="http://www.w3.org/2000/svg">
<rect x="2" y="10" width="259" height="35" fill="#F29733" stroke="black" stroke-width="4"/>
<rect x="6" y="6" width="251" height="43" fill="#F29733" stroke="black" stroke-width="4"/>
<rect x="10" y="2" width="243" height="51" fill="#F29733" stroke="black" stroke-width="4"/>
<rect x="4" y="8" width="255" height="39" fill="#F29733"/>
<rect x="8" y="4" width="247" height="47" fill="#F29733"/>
<path d="M84.9041 31.32C84.9041 31.768 84.7361 32.16 84.4001 32.496C84.0641 32.832 83.6721 33 83.2241 33H74.8241V24.6L76.5041 22.92H74.8241V21.24H83.2241C83.6721 21.24 84.0641 21.408 84.4001 21.744C84.7361 22.08 84.9041 22.472 84.9041 22.92V31.32ZM82.9841 31.32V22.92H76.7441V32.76L78.1841 31.32H82.9841ZM96.7675 33H90.0475C89.5835 33 89.1835 32.84 88.8475 32.52C88.5275 32.184 88.3675 31.784 88.3675 31.32V26.28C88.3675 25.816 88.5275 25.424 88.8475 25.104C89.1835 24.768 89.5835 24.6 90.0475 24.6H95.0875C95.5515 24.6 95.9435 24.768 96.2635 25.104C96.5995 25.424 96.7675 25.816 96.7675 26.28V27.96L95.0875 29.64H90.2875L91.7275 28.2H95.0875V26.04H90.0475V31.56H96.7675V33ZM101.077 33H99.3966V20.76L101.077 19.08V33ZM109.958 33H106.598C106.134 33 105.734 32.84 105.398 32.52C105.078 32.184 104.918 31.784 104.918 31.32V26.04H102.518L103.958 24.6H104.918V22.92L106.598 21.24V24.6H109.958V26.04H106.598V31.56H109.958V33ZM120.15 33H118.47V31.776L117.03 33H113.43C112.966 33 112.566 32.84 112.23 32.52C111.91 32.184 111.75 31.784 111.75 31.32V29.64C111.75 29.176 111.91 28.784 112.23 28.464C112.566 28.128 112.966 27.96 113.43 27.96H118.23L116.79 29.376H113.43V31.56H118.47V26.04H111.75L113.19 24.6H118.47C118.934 24.6 119.326 24.768 119.646 25.104C119.982 25.424 120.15 25.816 120.15 26.28V33ZM136.205 33H134.525V31.8L133.325 33H129.485C129.021 33 128.621 32.84 128.285 32.52C127.965 32.184 127.805 31.784 127.805 31.32V26.28C127.805 25.816 127.965 25.424 128.285 25.104C128.621 24.768 129.021 24.6 129.485 24.6H134.525V20.76L136.205 19.08V33ZM134.525 31.56V24.84L133.325 26.04H129.485V31.56H134.525ZM141.235 23.16H139.555V21.24H141.235V23.16ZM141.235 33H139.555V25.8L141.235 24.12V33ZM153.704 24.6L152.264 26.04H146.264V31.56H151.304V26.76H152.984V36.36C152.984 36.824 152.816 37.216 152.48 37.536C152.16 37.872 151.768 38.04 151.304 38.04H144.344L145.784 36.6H151.304V31.776L149.864 33H146.264C145.8 33 145.4 32.84 145.064 32.52C144.744 32.184 144.584 31.784 144.584 31.32V26.28C144.584 25.816 144.744 25.424 145.064 25.104C145.4 24.768 145.8 24.6 146.264 24.6H153.704ZM157.891 23.16H156.211V21.24H157.891V23.16ZM157.891 33H156.211V25.8L157.891 24.12V33ZM166.52 33H163.16C162.696 33 162.296 32.84 161.96 32.52C161.64 32.184 161.48 31.784 161.48 31.32V26.04H159.08L160.52 24.6H161.48V22.92L163.16 21.24V24.6H166.52V26.04H163.16V31.56H166.52V33ZM176.712 33H175.032V31.776L173.592 33H169.992C169.528 33 169.128 32.84 168.792 32.52C168.472 32.184 168.312 31.784 168.312 31.32V29.64C168.312 29.176 168.472 28.784 168.792 28.464C169.128 28.128 169.528 27.96 169.992 27.96H174.792L173.352 29.376H169.992V31.56H175.032V26.04H168.312L169.752 24.6H175.032C175.496 24.6 175.888 24.768 176.208 25.104C176.544 25.424 176.712 25.816 176.712 26.28V33ZM181.733 33H180.053V20.76L181.733 19.08V33ZM190.614 33H187.254C186.79 33 186.39 32.84 186.054 32.52C185.734 32.184 185.574 31.784 185.574 31.32V26.04H183.174L184.614 24.6H185.574V22.92L187.254 21.24V24.6H190.614V26.04H187.254V31.56H190.614V33Z" fill="black"/>
</svg>
