<svg width="269" height="59" viewBox="0 0 269 59" fill="none" xmlns="http://www.w3.org/2000/svg">
<rect x="8" y="14" width="259" height="35" fill="black" stroke="black" stroke-width="4"/>
<rect x="12" y="10" width="251" height="43" fill="black" stroke="black" stroke-width="4"/>
<rect x="16" y="6" width="243" height="51" fill="black" stroke="black" stroke-width="4"/>
<rect x="10" y="12" width="255" height="39" fill="black"/>
<rect x="14" y="8" width="247" height="47" fill="black"/>
<rect x="2" y="10" width="259" height="35" fill="#FDF2E5" stroke="black" stroke-width="4"/>
<rect x="6" y="6" width="251" height="43" fill="#FDF2E5" stroke="black" stroke-width="4"/>
<rect x="10" y="2" width="243" height="51" fill="#FDF2E5" stroke="black" stroke-width="4"/>
<rect x="4" y="8" width="255" height="39" fill="#FDF2E5"/>
<rect x="8" y="4" width="247" height="47" fill="#FDF2E5"/>
<path d="M62.2397 32H53.8397V23.6L55.5197 21.92H53.8397V20.24H62.2397V21.92H55.7597V26.72L57.1997 25.28H62.2397V26.96H55.7597V30.32H62.2397V32ZM73.5097 32H71.8297V25.04H66.7897V32H65.1097V23.6H66.7897V24.8L67.9897 23.6H71.8297C72.2937 23.6 72.6857 23.768 73.0057 24.104C73.3417 24.424 73.5097 24.816 73.5097 25.28V32ZM85.0253 32H83.3453V30.8L82.1453 32H78.3053C77.8413 32 77.4413 31.84 77.1053 31.52C76.7853 31.184 76.6253 30.784 76.6253 30.32V25.28C76.6253 24.816 76.7853 24.424 77.1053 24.104C77.4413 23.768 77.8413 23.6 78.3053 23.6H83.3453V19.76L85.0253 18.08V32ZM83.3453 30.56V23.84L82.1453 25.04H78.3053V30.56H83.3453ZM95.0953 26.96H93.4153V25.04H90.0553V32H88.3753V23.6H90.0553V24.8L91.2553 23.6H93.4153C93.8793 23.6 94.2713 23.768 94.5913 24.104C94.9273 24.424 95.0953 24.816 95.0953 25.28V26.96ZM105.877 32H99.1569C98.6929 32 98.2929 31.84 97.9569 31.52C97.6369 31.184 97.4769 30.784 97.4769 30.32V25.28C97.4769 24.816 97.6369 24.424 97.9569 24.104C98.2929 23.768 98.6929 23.6 99.1569 23.6H104.197C104.661 23.6 105.053 23.768 105.373 24.104C105.709 24.424 105.877 24.816 105.877 25.28V26.96L104.197 28.64H99.3969L100.837 27.2H104.197V25.04H99.1569V30.56H105.877V32ZM121.221 30.32C121.221 30.784 121.053 31.184 120.717 31.52C120.397 31.84 120.005 32 119.541 32H114.501V37.04H112.821V23.6H114.501V24.8L115.701 23.6H119.541C120.005 23.6 120.397 23.768 120.717 24.104C121.053 24.424 121.221 24.816 121.221 25.28V30.32ZM119.541 30.56V25.04H114.501V31.76L115.701 30.56H119.541ZM132.376 32H130.696V30.776L129.256 32H125.656C125.192 32 124.792 31.84 124.456 31.52C124.136 31.184 123.976 30.784 123.976 30.32V28.64C123.976 28.176 124.136 27.784 124.456 27.464C124.792 27.128 125.192 26.96 125.656 26.96H130.456L129.016 28.376H125.656V30.56H130.696V25.04H123.976L125.416 23.6H130.696C131.16 23.6 131.552 23.768 131.872 24.104C132.208 24.424 132.376 24.816 132.376 25.28V32ZM130.696 19.952C130.696 20.368 130.544 20.728 130.24 21.032L129.52 21.776C129.344 21.952 129.08 22.04 128.728 22.04H128.152C127.8 22.04 127.536 21.952 127.36 21.776L126.64 21.032C126.336 20.728 126.184 20.368 126.184 19.952C126.184 19.536 126.336 19.176 126.64 18.872L127.36 18.128C127.664 17.792 128.024 17.624 128.44 17.624C128.84 17.624 129.2 17.792 129.52 18.128L130.24 18.872C130.544 19.176 130.696 19.536 130.696 19.952ZM129.64 19.952L128.44 18.752L127.24 19.952L128.44 21.152L129.64 19.952ZM149.637 32H147.957V25.04H143.397V32H141.717V25.04H137.157V32H135.477V23.6H137.157V24.8L138.357 23.6H141.717C142.693 23.6 143.245 24.008 143.373 24.824L144.597 23.6H147.957C148.421 23.6 148.813 23.768 149.133 24.104C149.469 24.424 149.637 24.816 149.637 25.28V32ZM161.158 32H154.438C153.974 32 153.574 31.84 153.238 31.52C152.918 31.184 152.758 30.784 152.758 30.32V25.28C152.758 24.816 152.918 24.424 153.238 24.104C153.574 23.768 153.974 23.6 154.438 23.6H159.478C159.942 23.6 160.334 23.768 160.654 24.104C160.99 24.424 161.158 24.816 161.158 25.28V26.96L159.478 28.64H154.678L156.118 27.2H159.478V25.04H154.438V30.56H161.158V32ZM165.467 32H163.787V19.76L165.467 18.08V32ZM177.228 32H175.548V30.8L174.348 32H170.508C170.044 32 169.644 31.84 169.308 31.52C168.988 31.184 168.828 30.784 168.828 30.32V25.28C168.828 24.816 168.988 24.424 169.308 24.104C169.644 23.768 170.044 23.6 170.508 23.6H175.548V19.76L177.228 18.08V32ZM175.548 30.56V23.84L174.348 25.04H170.508V30.56H175.548ZM182.258 22.16H180.578V20.24H182.258V22.16ZM182.258 32H180.578V24.8L182.258 23.12V32ZM193.768 32H192.088V25.04H187.048V32H185.368V23.6H187.048V24.8L188.248 23.6H192.088C192.552 23.6 192.944 23.768 193.264 24.104C193.6 24.424 193.768 24.816 193.768 25.28V32ZM206.243 23.6L204.803 25.04H198.803V30.56H203.843V25.76H205.523V35.36C205.523 35.824 205.355 36.216 205.019 36.536C204.699 36.872 204.307 37.04 203.843 37.04H196.883L198.323 35.6H203.843V30.776L202.403 32H198.803C198.339 32 197.939 31.84 197.603 31.52C197.283 31.184 197.123 30.784 197.123 30.32V25.28C197.123 24.816 197.283 24.424 197.603 24.104C197.939 23.768 198.339 23.6 198.803 23.6H206.243Z" fill="black"/>
</svg>
