<svg width="43" height="40" viewBox="0 0 43 40" fill="none" xmlns="http://www.w3.org/2000/svg">
<path d="M25.295 37.5H22.7656V40H25.295V37.5Z" fill="#2CE8F5"/>
<path d="M22.7638 37.5H20.2344V40H22.7638V37.5Z" fill="#2CE8F5"/>
<path d="M27.8224 35H25.293V37.5H27.8224V35Z" fill="#2CE8F5"/>
<path d="M25.295 35H22.7656V37.5H25.295V35Z" fill="#0099DB"/>
<path d="M22.7638 35H20.2344V37.5H22.7638V35Z" fill="#0099DB"/>
<path d="M35.4122 32.5H32.8828V35H35.4122V32.5Z" fill="#0099DB"/>
<path d="M32.881 32.5H30.3516V35H32.881V32.5Z" fill="#0099DB"/>
<path d="M30.3536 32.5H27.8242V35H30.3536V32.5Z" fill="#0099DB"/>
<path d="M27.8224 32.5H25.293V35H27.8224V32.5Z" fill="#0099DB"/>
<path d="M25.295 32.5H22.7656V35H25.295V32.5Z" fill="#FEAE34"/>
<path d="M22.7638 32.5H20.2344V35H22.7638V32.5Z" fill="#FEAE34"/>
<path d="M20.2364 32.5H17.707V35H20.2364V32.5Z" fill="#0099DB"/>
<path d="M37.9396 30H35.4102V32.5H37.9396V30Z" fill="#0099DB"/>
<path d="M35.4122 30H32.8828V32.5H35.4122V30Z" fill="#0B6FAE"/>
<path d="M32.881 30H30.3516V32.5H32.881V30Z" fill="#0B6FAE"/>
<path d="M30.3536 30H27.8242V32.5H30.3536V30Z" fill="#0B6FAE"/>
<path d="M27.8224 30H25.293V32.5H27.8224V30Z" fill="#0B6FAE"/>
<path d="M25.295 30H22.7656V32.5H25.295V30Z" fill="#F77622"/>
<path d="M22.7638 30H20.2344V32.5H22.7638V30Z" fill="#F77622"/>
<path d="M20.2364 30H17.707V32.5H20.2364V30Z" fill="#0B6FAE"/>
<path d="M17.7052 30H15.1758V32.5H17.7052V30Z" fill="#0099DB"/>
<path d="M40.4708 27.5H37.9414V30H40.4708V27.5Z" fill="#F77622"/>
<path d="M37.9396 27.5H35.4102V30H37.9396V27.5Z" fill="#0B6FAE"/>
<path d="M35.4122 27.5H32.8828V30H35.4122V27.5Z" fill="#0B6FAE"/>
<path d="M32.881 27.5H30.3516V30H32.881V27.5Z" fill="#0B6FAE"/>
<path d="M30.3536 27.5H27.8242V30H30.3536V27.5Z" fill="#0B6FAE"/>
<path d="M27.8224 27.5H25.293V30H27.8224V27.5Z" fill="#262B44"/>
<path d="M25.295 27.5H22.7656V30H25.295V27.5Z" fill="#262B44"/>
<path d="M22.7638 27.5H20.2344V30H22.7638V27.5Z" fill="#F77622"/>
<path d="M20.2364 27.5H17.707V30H20.2364V27.5Z" fill="#0B6FAE"/>
<path d="M17.7052 27.5H15.1758V30H17.7052V27.5Z" fill="#0B6FAE"/>
<path d="M15.1778 27.5H12.6484V30H15.1778V27.5Z" fill="#0099DB"/>
<path d="M5.06066 27.5H2.53125V30H5.06066V27.5Z" fill="#FEAE34"/>
<path d="M2.52941 27.5H0V30H2.52941V27.5Z" fill="#FEAE34"/>
<path d="M42.9982 25H40.4688V27.5H42.9982V25Z" fill="#F77622"/>
<path d="M40.4708 25H37.9414V27.5H40.4708V25Z" fill="#F77622"/>
<path d="M37.9396 25H35.4102V27.5H37.9396V25Z" fill="#0B6FAE"/>
<path d="M35.4122 25H32.8828V27.5H35.4122V25Z" fill="#0B6FAE"/>
<path d="M32.881 25H30.3516V27.5H32.881V25Z" fill="#0B6FAE"/>
<path d="M30.3536 25H27.8242V27.5H30.3536V25Z" fill="#0B6FAE"/>
<path d="M27.8224 25H25.293V27.5H27.8224V25Z" fill="#0099DB"/>
<path d="M25.295 25H22.7656V27.5H25.295V25Z" fill="#0099DB"/>
<path d="M22.7638 25H20.2344V27.5H22.7638V25Z" fill="#262B44"/>
<path d="M20.2364 25H17.707V27.5H20.2364V25Z" fill="#0B6FAE"/>
<path d="M17.7052 25H15.1758V27.5H17.7052V25Z" fill="#0B6FAE"/>
<path d="M15.1778 25H12.6484V27.5H15.1778V25Z" fill="#0B6FAE"/>
<path d="M12.6466 25H10.1172V27.5H12.6466V25Z" fill="#0099DB"/>
<path d="M7.58801 25H5.05859V27.5H7.58801V25Z" fill="#FEAE34"/>
<path d="M5.06066 25H2.53125V27.5H5.06066V25Z" fill="#FEAE34"/>
<path d="M2.52941 25H0V27.5H2.52941V25Z" fill="#FEAE34"/>
<path d="M42.9982 22.5H40.4688V25H42.9982V22.5Z" fill="#FEAE34"/>
<path d="M40.4708 22.5H37.9414V25H40.4708V22.5Z" fill="#FEAE34"/>
<path d="M37.9396 22.5H35.4102V25H37.9396V22.5Z" fill="#0B6FAE"/>
<path d="M35.4122 22.5H32.8828V25H35.4122V22.5Z" fill="#0B6FAE"/>
<path d="M32.881 22.5H30.3516V25H32.881V22.5Z" fill="#0B6FAE"/>
<path d="M30.3536 22.5H27.8242V25H30.3536V22.5Z" fill="#0B6FAE"/>
<path d="M27.8224 22.5H25.293V25H27.8224V22.5Z" fill="#2CE8F5"/>
<path d="M25.295 22.5H22.7656V25H25.295V22.5Z" fill="#2CE8F5"/>
<path d="M22.7638 22.5H20.2344V25H22.7638V22.5Z" fill="#2CE8F5"/>
<path d="M20.2364 22.5H17.707V25H20.2364V22.5Z" fill="#262B44"/>
<path d="M17.7052 22.5H15.1758V25H17.7052V22.5Z" fill="#0B6FAE"/>
<path d="M15.1778 22.5H12.6484V25H15.1778V22.5Z" fill="#0B6FAE"/>
<path d="M12.6466 22.5H10.1172V25H12.6466V22.5Z" fill="#0B6FAE"/>
<path d="M10.1193 22.5H7.58984V25H10.1193V22.5Z" fill="#F77622"/>
<path d="M7.58801 22.5H5.05859V25H7.58801V22.5Z" fill="#FEAE34"/>
<path d="M5.06066 22.5H2.53125V25H5.06066V22.5Z" fill="#FEAE34"/>
<path d="M2.52941 22.5H0V25H2.52941V22.5Z" fill="#F77622"/>
<path d="M40.4708 20H37.9414V22.5H40.4708V20Z" fill="#FEAE34"/>
<path d="M37.9396 20H35.4102V22.5H37.9396V20Z" fill="#0B6FAE"/>
<path d="M35.4122 20H32.8828V22.5H35.4122V20Z" fill="#262B44"/>
<path d="M32.881 20H30.3516V22.5H32.881V20Z" fill="#262B44"/>
<path d="M30.3536 20H27.8242V22.5H30.3536V20Z" fill="#0B6FAE"/>
<path d="M27.8224 20H25.293V22.5H27.8224V20Z" fill="#0B6FAE"/>
<path d="M25.295 20H22.7656V22.5H25.295V20Z" fill="#FEAE34"/>
<path d="M22.7638 20H20.2344V22.5H22.7638V20Z" fill="#FEAE34"/>
<path d="M20.2364 20H17.707V22.5H20.2364V20Z" fill="#0B6FAE"/>
<path d="M17.7052 20H15.1758V22.5H17.7052V20Z" fill="#0B6FAE"/>
<path d="M15.1778 20H12.6484V22.5H15.1778V20Z" fill="#0B6FAE"/>
<path d="M12.6466 20H10.1172V22.5H12.6466V20Z" fill="#0B6FAE"/>
<path d="M10.1193 20H7.58984V22.5H10.1193V20Z" fill="#F77622"/>
<path d="M7.58801 20H5.05859V22.5H7.58801V20Z" fill="#FEAE34"/>
<path d="M5.06066 20H2.53125V22.5H5.06066V20Z" fill="#F77622"/>
<path d="M42.9982 17.5H40.4688V20H42.9982V17.5Z" fill="#FEAE34"/>
<path d="M40.4708 17.5H37.9414V20H40.4708V17.5Z" fill="#FEE761"/>
<path d="M37.9396 17.5H35.4102V20H37.9396V17.5Z" fill="#0099DB"/>
<path d="M35.4122 17.5H32.8828V20H35.4122V17.5Z" fill="#E9E5E1"/>
<path d="M32.881 17.5H30.3516V20H32.881V17.5Z" fill="#E9E5E1"/>
<path d="M30.3536 17.5H27.8242V20H30.3536V17.5Z" fill="#E9E5E1"/>
<path d="M27.8224 17.5H25.293V20H27.8224V17.5Z" fill="#0099DB"/>
<path d="M25.295 17.5H22.7656V20H25.295V17.5Z" fill="#FEAE34"/>
<path d="M22.7638 17.5H20.2344V20H22.7638V17.5Z" fill="#FEAE34"/>
<path d="M20.2364 17.5H17.707V20H20.2364V17.5Z" fill="#0099DB"/>
<path d="M17.7052 17.5H15.1758V20H17.7052V17.5Z" fill="#0099DB"/>
<path d="M15.1778 17.5H12.6484V20H15.1778V17.5Z" fill="#0099DB"/>
<path d="M12.6466 17.5H10.1172V20H12.6466V17.5Z" fill="#0099DB"/>
<path d="M10.1193 17.5H7.58984V20H10.1193V17.5Z" fill="#F77622"/>
<path d="M7.58801 17.5H5.05859V20H7.58801V17.5Z" fill="#F77622"/>
<path d="M42.9982 15H40.4688V17.5H42.9982V15Z" fill="#FEAE34"/>
<path d="M40.4708 15H37.9414V17.5H40.4708V15Z" fill="#FEE761"/>
<path d="M37.9396 15H35.4102V17.5H37.9396V15Z" fill="#0099DB"/>
<path d="M35.4122 15H32.8828V17.5H35.4122V15Z" fill="#E9E5E1"/>
<path d="M32.881 15H30.3516V17.5H32.881V15Z" fill="#262B44"/>
<path d="M30.3536 15H27.8242V17.5H30.3536V15Z" fill="#E9E5E1"/>
<path d="M27.8224 15H25.293V17.5H27.8224V15Z" fill="#0099DB"/>
<path d="M25.295 15H22.7656V17.5H25.295V15Z" fill="#FEE761"/>
<path d="M22.7638 15H20.2344V17.5H22.7638V15Z" fill="#FEE761"/>
<path d="M20.2364 15H17.707V17.5H20.2364V15Z" fill="#2CE8F5"/>
<path d="M17.7052 15H15.1758V17.5H17.7052V15Z" fill="#2CE8F5"/>
<path d="M15.1778 15H12.6484V17.5H15.1778V15Z" fill="#0099DB"/>
<path d="M12.6466 15H10.1172V17.5H12.6466V15Z" fill="#0099DB"/>
<path d="M10.1193 15H7.58984V17.5H10.1193V15Z" fill="#F77622"/>
<path d="M7.58801 15H5.05859V17.5H7.58801V15Z" fill="#FEAE34"/>
<path d="M5.06066 15H2.53125V17.5H5.06066V15Z" fill="#F77622"/>
<path d="M40.4708 12.5H37.9414V15H40.4708V12.5Z" fill="#FEAE34"/>
<path d="M37.9396 12.5H35.4102V15H37.9396V12.5Z" fill="#0B6FAE"/>
<path d="M35.4122 12.5H32.8828V15H35.4122V12.5Z" fill="#E9E5E1"/>
<path d="M32.881 12.5H30.3516V15H32.881V12.5Z" fill="#E9E5E1"/>
<path d="M30.3536 12.5H27.8242V15H30.3536V12.5Z" fill="#E9E5E1"/>
<path d="M27.8224 12.5H25.293V15H27.8224V12.5Z" fill="#0B6FAE"/>
<path d="M25.295 12.5H22.7656V15H25.295V12.5Z" fill="#FEAE34"/>
<path d="M22.7638 12.5H20.2344V15H22.7638V12.5Z" fill="#FEAE34"/>
<path d="M20.2364 12.5H17.707V15H20.2364V12.5Z" fill="#0B6FAE"/>
<path d="M17.7052 12.5H15.1758V15H17.7052V12.5Z" fill="#0B6FAE"/>
<path d="M15.1778 12.5H12.6484V15H15.1778V12.5Z" fill="#0B6FAE"/>
<path d="M12.6466 12.5H10.1172V15H12.6466V12.5Z" fill="#0B6FAE"/>
<path d="M7.58801 12.5H5.05859V15H7.58801V12.5Z" fill="#FEAE34"/>
<path d="M5.06066 12.5H2.53125V15H5.06066V12.5Z" fill="#FEAE34"/>
<path d="M2.52941 12.5H0V15H2.52941V12.5Z" fill="#F77622"/>
<path d="M37.9396 10H35.4102V12.5H37.9396V10Z" fill="#0099DB"/>
<path d="M35.4122 10H32.8828V12.5H35.4122V10Z" fill="#0B6FAE"/>
<path d="M32.881 10H30.3516V12.5H32.881V10Z" fill="#0099DB"/>
<path d="M30.3536 10H27.8242V12.5H30.3536V10Z" fill="#0B6FAE"/>
<path d="M27.8224 10H25.293V12.5H27.8224V10Z" fill="#0B6FAE"/>
<path d="M25.295 10H22.7656V12.5H25.295V10Z" fill="#FEAE34"/>
<path d="M22.7638 10H20.2344V12.5H22.7638V10Z" fill="#FEAE34"/>
<path d="M20.2364 10H17.707V12.5H20.2364V10Z" fill="#0B6FAE"/>
<path d="M17.7052 10H15.1758V12.5H17.7052V10Z" fill="#0B6FAE"/>
<path d="M15.1778 10H12.6484V12.5H15.1778V10Z" fill="#0B6FAE"/>
<path d="M7.58801 10H5.05859V12.5H7.58801V10Z" fill="#FEAE34"/>
<path d="M5.06066 10H2.53125V12.5H5.06066V10Z" fill="#FEAE34"/>
<path d="M2.52941 10H0V12.5H2.52941V10Z" fill="#FEAE34"/>
<path d="M35.4122 7.5H32.8828V10H35.4122V7.5Z" fill="#0099DB"/>
<path d="M32.881 7.5H30.3516V10H32.881V7.5Z" fill="#0B6FAE"/>
<path d="M30.3536 7.5H27.8242V10H30.3536V7.5Z" fill="#0099DB"/>
<path d="M27.8224 7.5H25.293V10H27.8224V7.5Z" fill="#0099DB"/>
<path d="M25.295 7.5H22.7656V10H25.295V7.5Z" fill="#FEE761"/>
<path d="M22.7638 7.5H20.2344V10H22.7638V7.5Z" fill="#FEE761"/>
<path d="M20.2364 7.5H17.707V10H20.2364V7.5Z" fill="#0B6FAE"/>
<path d="M17.7052 7.5H15.1758V10H17.7052V7.5Z" fill="#0B6FAE"/>
<path d="M5.06066 7.5H2.53125V10H5.06066V7.5Z" fill="#FEAE34"/>
<path d="M2.52941 7.5H0V10H2.52941V7.5Z" fill="#FEAE34"/>
<path d="M32.881 5H30.3516V7.5H32.881V5Z" fill="#0B6FAE"/>
<path d="M30.3536 5H27.8242V7.5H30.3536V5Z" fill="#0B6FAE"/>
<path d="M27.8224 5H25.293V7.5H27.8224V5Z" fill="#0B6FAE"/>
<path d="M25.295 5H22.7656V7.5H25.295V5Z" fill="#FEAE34"/>
<path d="M22.7638 5H20.2344V7.5H22.7638V5Z" fill="#FEAE34"/>
<path d="M20.2364 5H17.707V7.5H20.2364V5Z" fill="#0B6FAE"/>
<path d="M27.8224 2.5H25.293V5H27.8224V2.5Z" fill="#2CE8F5"/>
<path d="M25.295 2.5H22.7656V5H25.295V2.5Z" fill="#0099DB"/>
<path d="M22.7638 2.5H20.2344V5H22.7638V2.5Z" fill="#0099DB"/>
<path d="M25.295 0H22.7656V2.5H25.295V0Z" fill="#2CE8F5"/>
<path d="M22.7638 0H20.2344V2.5H22.7638V0Z" fill="#2CE8F5"/>
</svg>
