<svg width="269" height="60" viewBox="0 0 269 60" fill="none" xmlns="http://www.w3.org/2000/svg">
<rect x="8" y="14.6104" width="259" height="35" fill="black" stroke="black" stroke-width="4"/>
<rect x="12" y="10.6104" width="251" height="43" fill="black" stroke="black" stroke-width="4"/>
<rect x="16" y="6.61035" width="243" height="51" fill="black" stroke="black" stroke-width="4"/>
<rect x="10" y="12.6104" width="255" height="39" fill="black"/>
<rect x="14" y="8.61035" width="247" height="47" fill="black"/>
<rect x="2" y="10.6104" width="259" height="35" fill="#FFAF35" stroke="black" stroke-width="4"/>
<rect x="6" y="6.61035" width="253" height="43" fill="#FFAF35" stroke="black" stroke-width="4"/>
<rect x="10" y="2.61035" width="245" height="51" fill="#FFAF35" stroke="black" stroke-width="4"/>
<rect x="4" y="8.61035" width="257" height="39" fill="#FFAF35"/>
<rect x="8" y="4.61035" width="249" height="47" fill="#FFAF35"/>
<path d="M92.4936 31.2504H86.0136V34.6104H84.0936V26.2104L85.7736 24.5304H84.0936V22.8504H92.4936V24.5304H86.0136V31.0104L87.4536 29.5704H92.4936V31.2504ZM103.529 34.6104H96.8092C96.3452 34.6104 95.9452 34.4504 95.6092 34.1304C95.2892 33.7944 95.1292 33.3944 95.1292 32.9304V27.8904C95.1292 27.4264 95.2892 27.0344 95.6092 26.7144C95.9452 26.3784 96.3452 26.2104 96.8092 26.2104H101.849C102.313 26.2104 102.705 26.3784 103.025 26.7144C103.361 27.0344 103.529 27.4264 103.529 27.8904V29.5704L101.849 31.2504H97.0492L98.4892 29.8104H101.849V27.6504H96.8092V33.1704H103.529V34.6104ZM114.318 34.6104H107.598C107.134 34.6104 106.734 34.4504 106.398 34.1304C106.078 33.7944 105.918 33.3944 105.918 32.9304V27.8904C105.918 27.4264 106.078 27.0344 106.398 26.7144C106.734 26.3784 107.134 26.2104 107.598 26.2104H112.638C113.102 26.2104 113.494 26.3784 113.814 26.7144C114.15 27.0344 114.318 27.4264 114.318 27.8904V29.5704L112.638 31.2504H107.838L109.278 29.8104H112.638V27.6504H107.598V33.1704H114.318V34.6104ZM125.107 34.6104H123.427V33.4104L122.227 34.6104H118.387C117.923 34.6104 117.523 34.4504 117.187 34.1304C116.867 33.7944 116.707 33.3944 116.707 32.9304V27.8904C116.707 27.4264 116.867 27.0344 117.187 26.7144C117.523 26.3784 117.923 26.2104 118.387 26.2104H123.427V22.3704L125.107 20.6904V34.6104ZM123.427 33.1704V26.4504L122.227 27.6504H118.387V33.1704H123.427ZM137.097 32.9304C137.097 33.3944 136.929 33.7944 136.593 34.1304C136.273 34.4504 135.881 34.6104 135.417 34.6104H130.377V33.1944L128.697 34.8504V22.3704L130.377 20.6904V27.4104L131.577 26.2104H135.417C135.881 26.2104 136.273 26.3784 136.593 26.7144C136.929 27.0344 137.097 27.4264 137.097 27.8904V32.9304ZM135.417 33.1704V27.6504H130.377V33.1704H135.417ZM148.247 34.6104H146.567V33.3864L145.127 34.6104H141.527C141.063 34.6104 140.663 34.4504 140.327 34.1304C140.007 33.7944 139.847 33.3944 139.847 32.9304V31.2504C139.847 30.7864 140.007 30.3944 140.327 30.0744C140.663 29.7384 141.063 29.5704 141.527 29.5704H146.327L144.887 30.9864H141.527V33.1704H146.567V27.6504H139.847L141.287 26.2104H146.567C147.031 26.2104 147.423 26.3784 147.743 26.7144C148.079 27.0344 148.247 27.4264 148.247 27.8904V34.6104ZM158.548 26.2104L157.084 27.6504H153.028V33.1704H158.068V34.6104H153.028C152.564 34.6104 152.164 34.4504 151.828 34.1304C151.508 33.7944 151.348 33.3944 151.348 32.9304V27.8904C151.348 27.4264 151.508 27.0344 151.828 26.7144C152.164 26.3784 152.564 26.2104 153.028 26.2104H158.548ZM169.101 26.2104L165.285 29.5464V29.7864H166.941C167.405 29.7864 167.797 29.9544 168.117 30.2904C168.453 30.6104 168.621 31.0024 168.621 31.4664V34.6104H166.941V31.0104H161.901V34.6104H160.221V22.3704L161.901 20.6904V30.7944L167.061 26.2104H169.101Z" fill="black"/>
</svg>
