<svg width="115" height="90" viewBox="0 0 115 90" fill="none" xmlns="http://www.w3.org/2000/svg">
<g clip-path="url(#clip0_2_4992)">
<path d="M109.773 84.7061H104.546V90.0002H109.773V84.7061Z" fill="#F77622"/>
<path d="M99.3181 84.7061H94.0908V90.0002H99.3181V84.7061Z" fill="#F77622"/>
<path d="M20.9089 84.7061H15.6816V90.0002H20.9089V84.7061Z" fill="#E43B44"/>
<path d="M10.4548 84.7061H5.22754V90.0002H10.4548V84.7061Z" fill="#E43B44"/>
<path d="M109.773 79.4121H104.546V84.7062H109.773V79.4121Z" fill="#F77622"/>
<path d="M99.3181 79.4121H94.0908V84.7062H99.3181V79.4121Z" fill="#F77622"/>
<path d="M88.864 79.4121H83.6367V84.7062H88.864V79.4121Z" fill="#F77622"/>
<path d="M83.6365 79.4121H78.4092V84.7062H83.6365V79.4121Z" fill="#F77622"/>
<path d="M78.4089 79.4121H73.1816V84.7062H78.4089V79.4121Z" fill="#F77622"/>
<path d="M73.1814 79.4121H67.9541V84.7062H73.1814V79.4121Z" fill="#F77622"/>
<path d="M67.9548 79.4121H62.7275V84.7062H67.9548V79.4121Z" fill="#F77622"/>
<path d="M62.7273 79.4121H57.5V84.7062H62.7273V79.4121Z" fill="#F77622"/>
<path d="M57.4997 79.4121H52.2725V84.7062H57.4997V79.4121Z" fill="#E43B44"/>
<path d="M52.2732 79.4121H47.0459V84.7062H52.2732V79.4121Z" fill="#E43B44"/>
<path d="M47.0456 79.4121H41.8184V84.7062H47.0456V79.4121Z" fill="#E43B44"/>
<path d="M41.8181 79.4121H36.5908V84.7062H41.8181V79.4121Z" fill="#E43B44"/>
<path d="M36.5906 79.4121H31.3633V84.7062H36.5906V79.4121Z" fill="#E43B44"/>
<path d="M31.364 79.4121H26.1367V84.7062H31.364V79.4121Z" fill="#E43B44"/>
<path d="M20.9089 79.4121H15.6816V84.7062H20.9089V79.4121Z" fill="#E43B44"/>
<path d="M10.4548 79.4121H5.22754V84.7062H10.4548V79.4121Z" fill="#E43B44"/>
<path d="M109.773 74.1172H104.546V79.4113H109.773V74.1172Z" fill="#F77622"/>
<path d="M94.0906 74.1172H88.8633V79.4113H94.0906V74.1172Z" fill="#F77622"/>
<path d="M88.864 74.1172H83.6367V79.4113H88.864V74.1172Z" fill="#FEAE34"/>
<path d="M83.6365 74.1172H78.4092V79.4113H83.6365V74.1172Z" fill="#FEAE34"/>
<path d="M78.4089 74.1172H73.1816V79.4113H78.4089V74.1172Z" fill="#FEAE34"/>
<path d="M73.1814 74.1172H67.9541V79.4113H73.1814V74.1172Z" fill="#FEAE34"/>
<path d="M67.9548 74.1172H62.7275V79.4113H67.9548V74.1172Z" fill="#FEAE34"/>
<path d="M62.7273 74.1172H57.5V79.4113H62.7273V74.1172Z" fill="#E43B44"/>
<path d="M57.4997 74.1172H52.2725V79.4113H57.4997V74.1172Z" fill="#F77622"/>
<path d="M52.2732 74.1172H47.0459V79.4113H52.2732V74.1172Z" fill="#E43B44"/>
<path d="M47.0456 74.1172H41.8184V79.4113H47.0456V74.1172Z" fill="#E43B44"/>
<path d="M41.8181 74.1172H36.5908V79.4113H41.8181V74.1172Z" fill="#E43B44"/>
<path d="M36.5906 74.1172H31.3633V79.4113H36.5906V74.1172Z" fill="#E43B44"/>
<path d="M31.364 74.1172H26.1367V79.4113H31.364V74.1172Z" fill="#E43B44"/>
<path d="M26.1365 74.1172H20.9092V79.4113H26.1365V74.1172Z" fill="#E43B44"/>
<path d="M10.4548 74.1172H5.22754V79.4113H10.4548V74.1172Z" fill="#E43B44"/>
<path d="M104.546 68.8232H99.3184V74.1174H104.546V68.8232Z" fill="#F77622"/>
<path d="M99.3181 68.8232H94.0908V74.1174H99.3181V68.8232Z" fill="#F77622"/>
<path d="M94.0906 68.8232H88.8633V74.1174H94.0906V68.8232Z" fill="#FEAE34"/>
<path d="M88.864 68.8232H83.6367V74.1174H88.864V68.8232Z" fill="#FEAE34"/>
<path d="M83.6365 68.8232H78.4092V74.1174H83.6365V68.8232Z" fill="#FEAE34"/>
<path d="M78.4089 68.8232H73.1816V74.1174H78.4089V68.8232Z" fill="#FEAE34"/>
<path d="M73.1814 68.8232H67.9541V74.1174H73.1814V68.8232Z" fill="#F77622"/>
<path d="M67.9548 68.8232H62.7275V74.1174H67.9548V68.8232Z" fill="#FEAE34"/>
<path d="M62.7273 68.8232H57.5V74.1174H62.7273V68.8232Z" fill="#FEAE34"/>
<path d="M57.4997 68.8232H52.2725V74.1174H57.4997V68.8232Z" fill="#E43B44"/>
<path d="M52.2732 68.8232H47.0459V74.1174H52.2732V68.8232Z" fill="#E43B44"/>
<path d="M47.0456 68.8232H41.8184V74.1174H47.0456V68.8232Z" fill="#F77622"/>
<path d="M41.8181 68.8232H36.5908V74.1174H41.8181V68.8232Z" fill="#E43B44"/>
<path d="M36.5906 68.8232H31.3633V74.1174H36.5906V68.8232Z" fill="#E43B44"/>
<path d="M31.364 68.8232H26.1367V74.1174H31.364V68.8232Z" fill="#E43B44"/>
<path d="M26.1365 68.8232H20.9092V74.1174H26.1365V68.8232Z" fill="#E43B44"/>
<path d="M20.9089 68.8232H15.6816V74.1174H20.9089V68.8232Z" fill="#E43B44"/>
<path d="M15.6814 68.8232H10.4541V74.1174H15.6814V68.8232Z" fill="#E43B44"/>
<path d="M94.0906 63.5293H88.8633V68.8234H94.0906V63.5293Z" fill="#FEAE34"/>
<path d="M88.864 63.5293H83.6367V68.8234H88.864V63.5293Z" fill="#FEAE34"/>
<path d="M83.6365 63.5293H78.4092V68.8234H83.6365V63.5293Z" fill="#FEE761"/>
<path d="M78.4089 63.5293H73.1816V68.8234H78.4089V63.5293Z" fill="#FEAE34"/>
<path d="M73.1814 63.5293H67.9541V68.8234H73.1814V63.5293Z" fill="#FEAE34"/>
<path d="M67.9548 63.5293H62.7275V68.8234H67.9548V63.5293Z" fill="#FEAE34"/>
<path d="M62.7273 63.5293H57.5V68.8234H62.7273V63.5293Z" fill="#E43B44"/>
<path d="M57.4997 63.5293H52.2725V68.8234H57.4997V63.5293Z" fill="#F77622"/>
<path d="M52.2732 63.5293H47.0459V68.8234H52.2732V63.5293Z" fill="#E43B44"/>
<path d="M47.0456 63.5293H41.8184V68.8234H47.0456V63.5293Z" fill="#E43B44"/>
<path d="M41.8181 63.5293H36.5908V68.8234H41.8181V63.5293Z" fill="#E43B44"/>
<path d="M36.5906 63.5293H31.3633V68.8234H36.5906V63.5293Z" fill="#E43B44"/>
<path d="M31.364 63.5293H26.1367V68.8234H31.364V63.5293Z" fill="#E43B44"/>
<path d="M26.1365 63.5293H20.9092V68.8234H26.1365V63.5293Z" fill="#E43B44"/>
<path d="M94.0906 58.2354H88.8633V63.5295H94.0906V58.2354Z" fill="#FEAE34"/>
<path d="M88.864 58.2354H83.6367V63.5295H88.864V58.2354Z" fill="#FEAE34"/>
<path d="M83.6365 58.2354H78.4092V63.5295H83.6365V58.2354Z" fill="#FEAE34"/>
<path d="M78.4089 58.2354H73.1816V63.5295H78.4089V58.2354Z" fill="#FEAE34"/>
<path d="M73.1814 58.2354H67.9541V63.5295H73.1814V58.2354Z" fill="#F77622"/>
<path d="M67.9548 58.2354H62.7275V63.5295H67.9548V58.2354Z" fill="#FEAE34"/>
<path d="M62.7273 58.2354H57.5V63.5295H62.7273V58.2354Z" fill="#FEAE34"/>
<path d="M57.4997 58.2354H52.2725V63.5295H57.4997V58.2354Z" fill="#E43B44"/>
<path d="M52.2732 58.2354H47.0459V63.5295H52.2732V58.2354Z" fill="#E43B44"/>
<path d="M47.0456 58.2354H41.8184V63.5295H47.0456V58.2354Z" fill="#F77622"/>
<path d="M41.8181 58.2354H36.5908V63.5295H41.8181V58.2354Z" fill="#E43B44"/>
<path d="M36.5906 58.2354H31.3633V63.5295H36.5906V58.2354Z" fill="#E43B44"/>
<path d="M31.364 58.2354H26.1367V63.5295H31.364V58.2354Z" fill="#E43B44"/>
<path d="M26.1365 58.2354H20.9092V63.5295H26.1365V58.2354Z" fill="#E43B44"/>
<path d="M94.0906 52.9414H88.8633V58.2355H94.0906V52.9414Z" fill="#FEAE34"/>
<path d="M88.864 52.9414H83.6367V58.2355H88.864V52.9414Z" fill="#FEAE34"/>
<path d="M83.6365 52.9414H78.4092V58.2355H83.6365V52.9414Z" fill="#FEE761"/>
<path d="M78.4089 52.9414H73.1816V58.2355H78.4089V52.9414Z" fill="#FEAE34"/>
<path d="M73.1814 52.9414H67.9541V58.2355H73.1814V52.9414Z" fill="#FEAE34"/>
<path d="M67.9548 52.9414H62.7275V58.2355H67.9548V52.9414Z" fill="#FEAE34"/>
<path d="M62.7273 52.9414H57.5V58.2355H62.7273V52.9414Z" fill="#E43B44"/>
<path d="M57.4997 52.9414H52.2725V58.2355H57.4997V52.9414Z" fill="#F77622"/>
<path d="M52.2732 52.9414H47.0459V58.2355H52.2732V52.9414Z" fill="#E43B44"/>
<path d="M47.0456 52.9414H41.8184V58.2355H47.0456V52.9414Z" fill="#E43B44"/>
<path d="M41.8181 52.9414H36.5908V58.2355H41.8181V52.9414Z" fill="#E43B44"/>
<path d="M36.5906 52.9414H31.3633V58.2355H36.5906V52.9414Z" fill="#E43B44"/>
<path d="M31.364 52.9414H26.1367V58.2355H31.364V52.9414Z" fill="#E43B44"/>
<path d="M26.1365 52.9414H20.9092V58.2355H26.1365V52.9414Z" fill="#E43B44"/>
<path d="M94.0906 47.6475H88.8633V52.9416H94.0906V47.6475Z" fill="#FEAE34"/>
<path d="M88.864 47.6475H83.6367V52.9416H88.864V47.6475Z" fill="#FEAE34"/>
<path d="M83.6365 47.6475H78.4092V52.9416H83.6365V47.6475Z" fill="#FEAE34"/>
<path d="M78.4089 47.6475H73.1816V52.9416H78.4089V47.6475Z" fill="#FEAE34"/>
<path d="M73.1814 47.6475H67.9541V52.9416H73.1814V47.6475Z" fill="#F77622"/>
<path d="M67.9548 47.6475H62.7275V52.9416H67.9548V47.6475Z" fill="#FEAE34"/>
<path d="M62.7273 47.6475H57.5V52.9416H62.7273V47.6475Z" fill="#FEAE34"/>
<path d="M57.4997 47.6475H52.2725V52.9416H57.4997V47.6475Z" fill="#E43B44"/>
<path d="M52.2732 47.6475H47.0459V52.9416H52.2732V47.6475Z" fill="#E43B44"/>
<path d="M47.0456 47.6475H41.8184V52.9416H47.0456V47.6475Z" fill="#F77622"/>
<path d="M41.8181 47.6475H36.5908V52.9416H41.8181V47.6475Z" fill="#E43B44"/>
<path d="M36.5906 47.6475H31.3633V52.9416H36.5906V47.6475Z" fill="#E43B44"/>
<path d="M31.364 47.6475H26.1367V52.9416H31.364V47.6475Z" fill="#E43B44"/>
<path d="M26.1365 47.6475H20.9092V52.9416H26.1365V47.6475Z" fill="#E43B44"/>
<path d="M94.0906 42.3525H88.8633V47.6467H94.0906V42.3525Z" fill="#FEAE34"/>
<path d="M88.864 42.3525H83.6367V47.6467H88.864V42.3525Z" fill="#FEAE34"/>
<path d="M83.6365 42.3525H78.4092V47.6467H83.6365V42.3525Z" fill="#FEAE34"/>
<path d="M78.4089 42.3525H73.1816V47.6467H78.4089V42.3525Z" fill="#FEAE34"/>
<path d="M73.1814 42.3525H67.9541V47.6467H73.1814V42.3525Z" fill="#FEAE34"/>
<path d="M67.9548 42.3525H62.7275V47.6467H67.9548V42.3525Z" fill="#FEAE34"/>
<path d="M62.7273 42.3525H57.5V47.6467H62.7273V42.3525Z" fill="#E43B44"/>
<path d="M57.4997 42.3525H52.2725V47.6467H57.4997V42.3525Z" fill="#F77622"/>
<path d="M52.2732 42.3525H47.0459V47.6467H52.2732V42.3525Z" fill="#E43B44"/>
<path d="M47.0456 42.3525H41.8184V47.6467H47.0456V42.3525Z" fill="#E43B44"/>
<path d="M41.8181 42.3525H36.5908V47.6467H41.8181V42.3525Z" fill="#E43B44"/>
<path d="M36.5906 42.3525H31.3633V47.6467H36.5906V42.3525Z" fill="#E43B44"/>
<path d="M31.364 42.3525H26.1367V47.6467H31.364V42.3525Z" fill="#E43B44"/>
<path d="M26.1365 42.3525H20.9092V47.6467H26.1365V42.3525Z" fill="#E43B44"/>
<path d="M99.3181 37.0586H94.0908V42.3527H99.3181V37.0586Z" fill="#FEAE34"/>
<path d="M94.0906 37.0586H88.8633V42.3527H94.0906V37.0586Z" fill="#FEAE34"/>
<path d="M88.864 37.0586H83.6367V42.3527H88.864V37.0586Z" fill="#FEAE34"/>
<path d="M83.6365 37.0586H78.4092V42.3527H83.6365V37.0586Z" fill="#FEAE34"/>
<path d="M78.4089 37.0586H73.1816V42.3527H78.4089V37.0586Z" fill="#FEAE34"/>
<path d="M73.1814 37.0586H67.9541V42.3527H73.1814V37.0586Z" fill="#FEAE34"/>
<path d="M67.9548 37.0586H62.7275V42.3527H67.9548V37.0586Z" fill="#FEAE34"/>
<path d="M62.7273 37.0586H57.5V42.3527H62.7273V37.0586Z" fill="#FEAE34"/>
<path d="M57.4997 37.0586H52.2725V42.3527H57.4997V37.0586Z" fill="#E43B44"/>
<path d="M52.2732 37.0586H47.0459V42.3527H52.2732V37.0586Z" fill="#E43B44"/>
<path d="M47.0456 37.0586H41.8184V42.3527H47.0456V37.0586Z" fill="#E43B44"/>
<path d="M41.8181 37.0586H36.5908V42.3527H41.8181V37.0586Z" fill="#E43B44"/>
<path d="M36.5906 37.0586H31.3633V42.3527H36.5906V37.0586Z" fill="#E43B44"/>
<path d="M31.364 37.0586H26.1367V42.3527H31.364V37.0586Z" fill="#E43B44"/>
<path d="M26.1365 37.0586H20.9092V42.3527H26.1365V37.0586Z" fill="#E43B44"/>
<path d="M20.9089 37.0586H15.6816V42.3527H20.9089V37.0586Z" fill="#E43B44"/>
<path d="M109.773 31.7646H104.546V37.0588H109.773V31.7646Z" fill="#F77622"/>
<path d="M104.546 31.7646H99.3184V37.0588H104.546V31.7646Z" fill="#F77622"/>
<path d="M78.4089 31.7646H73.1816V37.0588H78.4089V31.7646Z" fill="#FEAE34"/>
<path d="M67.9548 31.7646H62.7275V37.0588H67.9548V31.7646Z" fill="#FEAE34"/>
<path d="M52.2732 31.7646H47.0459V37.0588H52.2732V31.7646Z" fill="#E43B44"/>
<path d="M41.8181 31.7646H36.5908V37.0588H41.8181V31.7646Z" fill="#E43B44"/>
<path d="M15.6814 31.7646H10.4541V37.0588H15.6814V31.7646Z" fill="#E43B44"/>
<path d="M10.4548 31.7646H5.22754V37.0588H10.4548V31.7646Z" fill="#E43B44"/>
<path d="M115 26.4707H109.772V31.7648H115V26.4707Z" fill="#FEAE34"/>
<path d="M109.773 26.4707H104.546V31.7648H109.773V26.4707Z" fill="#FEAE34"/>
<path d="M104.546 26.4707H99.3184V31.7648H104.546V26.4707Z" fill="#F77622"/>
<path d="M78.4089 26.4707H73.1816V31.7648H78.4089V26.4707Z" fill="#F77622"/>
<path d="M41.8181 26.4707H36.5908V31.7648H41.8181V26.4707Z" fill="#E43B44"/>
<path d="M15.6814 26.4707H10.4541V31.7648H15.6814V26.4707Z" fill="#E43B44"/>
<path d="M10.4548 26.4707H5.22754V31.7648H10.4548V26.4707Z" fill="#F77622"/>
<path d="M5.22727 26.4707H0V31.7648H5.22727V26.4707Z" fill="#E43B44"/>
<path d="M115 21.1768H109.772V26.4709H115V21.1768Z" fill="#FEAE34"/>
<path d="M109.773 21.1768H104.546V26.4709H109.773V21.1768Z" fill="#FEAE34"/>
<path d="M104.546 21.1768H99.3184V26.4709H104.546V21.1768Z" fill="#F77622"/>
<path d="M83.6365 21.1768H78.4092V26.4709H83.6365V21.1768Z" fill="#3A4466"/>
<path d="M78.4089 21.1768H73.1816V26.4709H78.4089V21.1768Z" fill="#3A4466"/>
<path d="M41.8181 21.1768H36.5908V26.4709H41.8181V21.1768Z" fill="#3A4466"/>
<path d="M36.5906 21.1768H31.3633V26.4709H36.5906V21.1768Z" fill="#3A4466"/>
<path d="M20.9089 21.1768H15.6816V26.4709H20.9089V21.1768Z" fill="#E43B44"/>
<path d="M15.6814 21.1768H10.4541V26.4709H15.6814V21.1768Z" fill="#E43B44"/>
<path d="M10.4548 21.1768H5.22754V26.4709H10.4548V21.1768Z" fill="#F77622"/>
<path d="M5.22727 21.1768H0V26.4709H5.22727V21.1768Z" fill="#E43B44"/>
<path d="M115 15.8828H109.772V21.1769H115V15.8828Z" fill="#FEAE34"/>
<path d="M109.773 15.8828H104.546V21.1769H109.773V15.8828Z" fill="#FEAE34"/>
<path d="M104.546 15.8828H99.3184V21.1769H104.546V15.8828Z" fill="#F77622"/>
<path d="M99.3181 15.8828H94.0908V21.1769H99.3181V15.8828Z" fill="#F77622"/>
<path d="M83.6365 15.8828H78.4092V21.1769H83.6365V15.8828Z" fill="#3A4466"/>
<path d="M78.4089 15.8828H73.1816V21.1769H78.4089V15.8828Z" fill="#5A6988"/>
<path d="M41.8181 15.8828H36.5908V21.1769H41.8181V15.8828Z" fill="#5A6988"/>
<path d="M36.5906 15.8828H31.3633V21.1769H36.5906V15.8828Z" fill="#3A4466"/>
<path d="M26.1365 15.8828H20.9092V21.1769H26.1365V15.8828Z" fill="#E43B44"/>
<path d="M20.9089 15.8828H15.6816V21.1769H20.9089V15.8828Z" fill="#F77622"/>
<path d="M15.6814 15.8828H10.4541V21.1769H15.6814V15.8828Z" fill="#F77622"/>
<path d="M10.4548 15.8828H5.22754V21.1769H10.4548V15.8828Z" fill="#F77622"/>
<path d="M5.22727 15.8828H0V21.1769H5.22727V15.8828Z" fill="#E43B44"/>
<path d="M115 10.5879H109.772V15.882H115V10.5879Z" fill="#FEAE34"/>
<path d="M109.773 10.5879H104.546V15.882H109.773V10.5879Z" fill="#FEAE34"/>
<path d="M104.546 10.5879H99.3184V15.882H104.546V10.5879Z" fill="#FEAE34"/>
<path d="M94.0906 10.5879H88.8633V15.882H94.0906V10.5879Z" fill="#F77622"/>
<path d="M26.1365 10.5879H20.9092V15.882H26.1365V10.5879Z" fill="#F77622"/>
<path d="M15.6814 10.5879H10.4541V15.882H15.6814V10.5879Z" fill="#F77622"/>
<path d="M10.4548 10.5879H5.22754V15.882H10.4548V10.5879Z" fill="#F77622"/>
<path d="M5.22727 10.5879H0V15.882H5.22727V10.5879Z" fill="#E43B44"/>
<path d="M115 5.29395H109.772V10.5881H115V5.29395Z" fill="#FEAE34"/>
<path d="M109.773 5.29395H104.546V10.5881H109.773V5.29395Z" fill="#FEE761"/>
<path d="M104.546 5.29395H99.3184V10.5881H104.546V5.29395Z" fill="#FEAE34"/>
<path d="M99.3181 5.29395H94.0908V10.5881H99.3181V5.29395Z" fill="#FEAE34"/>
<path d="M20.9089 5.29395H15.6816V10.5881H20.9089V5.29395Z" fill="#F77622"/>
<path d="M15.6814 5.29395H10.4541V10.5881H15.6814V5.29395Z" fill="#F77622"/>
<path d="M10.4548 5.29395H5.22754V10.5881H10.4548V5.29395Z" fill="#F77622"/>
<path d="M5.22727 5.29395H0V10.5881H5.22727V5.29395Z" fill="#F77622"/>
<path d="M109.773 0H104.546V5.29412H109.773V0Z" fill="#FEAE34"/>
<path d="M104.546 0H99.3184V5.29412H104.546V0Z" fill="#FEE761"/>
<path d="M99.3181 0H94.0908V5.29412H99.3181V0Z" fill="#FEAE34"/>
<path d="M94.0906 0H88.8633V5.29412H94.0906V0Z" fill="#FEAE34"/>
<path d="M26.1365 0H20.9092V5.29412H26.1365V0Z" fill="#F77622"/>
<path d="M20.9089 0H15.6816V5.29412H20.9089V0Z" fill="#F77622"/>
<path d="M15.6814 0H10.4541V5.29412H15.6814V0Z" fill="#F77622"/>
<path d="M10.4548 0H5.22754V5.29412H10.4548V0Z" fill="#F77622"/>
</g>
<defs>
<clipPath id="clip0_2_4992">
<rect width="115" height="90" fill="white"/>
</clipPath>
</defs>
</svg>
