<svg width="211" height="59" viewBox="0 0 211 59" fill="none" xmlns="http://www.w3.org/2000/svg">
<rect x="14" y="14" width="195" height="35" fill="black" stroke="black" stroke-width="4"/>
<rect x="17.0266" y="10" width="188.947" height="43" fill="black" stroke="black" stroke-width="4"/>
<rect x="20.0532" y="6" width="182.894" height="51" fill="black" stroke="black" stroke-width="4"/>
<rect x="15.0266" y="12" width="192.947" height="39" fill="black"/>
<rect x="18.0532" y="8" width="186.894" height="47" fill="black"/>
<rect x="2" y="10" width="201" height="35" fill="#FFAF35" stroke="black" stroke-width="4"/>
<rect x="5.11787" y="6" width="194.764" height="43" fill="#FFAF35" stroke="black" stroke-width="4"/>
<rect x="8.23574" y="2" width="188.529" height="51" fill="#FFAF35" stroke="black" stroke-width="4"/>
<rect x="3.11787" y="8" width="198.764" height="39" fill="#FFAF35"/>
<rect x="6.23574" y="4" width="192.529" height="47" fill="#FFAF35"/>
<path d="M86.2084 33H77.8084V21.24H79.7284V31.32H84.2884V29.64H86.2084V33ZM95.9231 33H94.2431V31.776L92.8031 33H89.2031C88.7391 33 88.3391 32.84 88.0031 32.52C87.6831 32.184 87.5231 31.784 87.5231 31.32V29.64C87.5231 29.176 87.6831 28.784 88.0031 28.464C88.3391 28.128 88.7391 27.96 89.2031 27.96H94.0031L92.5631 29.376H89.2031V31.56H94.2431V26.04H87.5231L88.9631 24.6H94.2431C94.7071 24.6 95.0991 24.768 95.4191 25.104C95.7551 25.424 95.9231 25.816 95.9231 26.28V33ZM108.384 24.6L106.944 26.04H100.944V31.56H105.984V26.76H107.664V36.36C107.664 36.824 107.496 37.216 107.16 37.536C106.84 37.872 106.448 38.04 105.984 38.04H99.0238L100.464 36.6H105.984V31.776L104.544 33H100.944C100.48 33 100.08 32.84 99.7438 32.52C99.4238 32.184 99.2638 31.784 99.2638 31.32V26.28C99.2638 25.816 99.4238 25.424 99.7438 25.104C100.08 24.768 100.48 24.6 100.944 24.6H108.384ZM117.611 27.96H115.931V26.04H112.571V33H110.891V24.6H112.571V25.8L113.771 24.6H115.931C116.395 24.6 116.787 24.768 117.107 25.104C117.443 25.424 117.611 25.816 117.611 26.28V27.96ZM128.393 33H121.673C121.209 33 120.809 32.84 120.473 32.52C120.153 32.184 119.993 31.784 119.993 31.32V26.28C119.993 25.816 120.153 25.424 120.473 25.104C120.809 24.768 121.209 24.6 121.673 24.6H126.713C127.177 24.6 127.569 24.768 127.889 25.104C128.225 25.424 128.393 25.816 128.393 26.28V27.96L126.713 29.64H121.913L123.353 28.2H126.713V26.04H121.673V31.56H128.393V33Z" fill="black"/>
</svg>
