<svg width="211" height="59" viewBox="0 0 211 59" fill="none" xmlns="http://www.w3.org/2000/svg">
<g clip-path="url(#clip0_1_2)">
<path d="M209 14H14V49H209V14Z" fill="black" stroke="black" stroke-width="4"/>
<path d="M205.974 10H17.0273V53H205.974V10Z" fill="black" stroke="black" stroke-width="4"/>
<path d="M202.949 6H20.0547V57H202.949V6Z" fill="black" stroke="black" stroke-width="4"/>
<path d="M207.974 12H15.0273V51H207.974V12Z" fill="black"/>
<path d="M204.949 8H18.0547V55H204.949V8Z" fill="black"/>
<path d="M203 10H2V45H203V10Z" fill="white" stroke="black" stroke-width="4"/>
<path d="M199.881 6H5.1172V49H199.881V6Z" fill="white" stroke="black" stroke-width="4"/>
<path d="M196.763 2H8.23441V53H196.763V2Z" fill="white" stroke="black" stroke-width="4"/>
<path d="M201.881 8H3.1172V47H201.881V8Z" fill="white"/>
<path d="M198.763 4H6.23441V51H198.763V4Z" fill="white"/>
<path d="M81.7084 33H73.3084V21.24H75.2284V31.32H79.7884V29.64H81.7084V33ZM91.423 33H89.7431V31.776L88.3031 33H84.7031C84.2391 33 83.8391 32.84 83.5031 32.52C83.1831 32.184 83.0231 31.784 83.0231 31.32V29.64C83.0231 29.176 83.1831 28.784 83.5031 28.464C83.8391 28.128 84.2391 27.96 84.7031 27.96H89.5031L88.0631 29.376H84.7031V31.56H89.7431V26.04H83.0231L84.4631 24.6H89.7431C90.2071 24.6 90.5991 24.768 90.9191 25.104C91.255 25.424 91.423 25.816 91.423 26.28V33ZM103.884 24.6L102.444 26.04H96.444V31.56H101.484V26.76H103.164V36.36C103.164 36.824 102.996 37.216 102.66 37.536C102.34 37.872 101.948 38.04 101.484 38.04H94.524L95.964 36.6H101.484V31.776L100.044 33H96.444C95.98 33 95.58 32.84 95.244 32.52C94.924 32.184 94.764 31.784 94.764 31.32V26.28C94.764 25.816 94.924 25.424 95.244 25.104C95.58 24.768 95.98 24.6 96.444 24.6H103.884ZM113.111 27.96H111.431V26.04H108.071V33H106.391V24.6H108.071V25.8L109.271 24.6H111.431C111.895 24.6 112.287 24.768 112.607 25.104C112.943 25.424 113.111 25.816 113.111 26.28V27.96ZM123.893 33H117.173C116.709 33 116.309 32.84 115.973 32.52C115.653 32.184 115.493 31.784 115.493 31.32V26.28C115.493 25.816 115.653 25.424 115.973 25.104C116.309 24.768 116.709 24.6 117.173 24.6H122.213C122.677 24.6 123.069 24.768 123.389 25.104C123.725 25.424 123.893 25.816 123.893 26.28V27.96L122.213 29.64H117.413L118.853 28.2H122.213V26.04H117.173V31.56H123.893V33Z" fill="black"/>
</g>
<defs>
<clipPath id="clip0_1_2">
<rect width="211" height="59" fill="white"/>
</clipPath>
</defs>
</svg>
