<svg width="152" height="44" viewBox="0 0 152 44" fill="none" xmlns="http://www.w3.org/2000/svg">
<rect x="5.95947" y="10.9492" width="144.041" height="25.0848" fill="#161E38" stroke="#161E38" stroke-width="4"/>
<rect x="8.2876" y="7.96582" width="139.537" height="31.051" fill="#161E38" stroke="#161E38" stroke-width="4"/>
<rect x="10.2993" y="4.98242" width="135.035" height="37.0171" fill="#161E38" stroke="#161E38" stroke-width="4"/>
<rect x="6.2876" y="8.94922" width="143.537" height="29.0848" fill="#161E38"/>
<rect x="8.29932" y="5.96582" width="139.035" height="35.051" fill="#161E38"/>
<rect x="2.85791" y="7.9668" width="144.041" height="25.0848" fill="#F8F5D3" stroke="#161E38" stroke-width="4"/>
<rect x="5.1665" y="4.98242" width="139.537" height="31.051" fill="#F8F5D3" stroke="#161E38" stroke-width="4"/>
<rect x="7.27588" y="2" width="135.035" height="37.0171" fill="#F8F5D3" stroke="#161E38" stroke-width="4"/>
<rect x="3.1665" y="5.9668" width="143.537" height="29.0848" fill="#F8F5D3"/>
<rect x="5.27588" y="2.98242" width="139.035" height="35.051" fill="#F8F5D3"/>
<path d="M50.0018 27H41.6018V15.24H43.5218V25.32H48.0818V23.64H50.0018V27ZM60.0765 27H53.3565C52.8925 27 52.4925 26.84 52.1565 26.52C51.8365 26.184 51.6765 25.784 51.6765 25.32V20.28C51.6765 19.816 51.8365 19.424 52.1565 19.104C52.4925 18.768 52.8925 18.6 53.3565 18.6H58.3965C58.8605 18.6 59.2525 18.768 59.5725 19.104C59.9085 19.424 60.0765 19.816 60.0765 20.28V21.96L58.3965 23.64H53.5965L55.0365 22.2H58.3965V20.04H53.3565V25.56H60.0765V27ZM71.8256 18.6L70.3856 20.04H64.3856V25.56H69.4256V20.76H71.1056V30.36C71.1056 30.824 70.9376 31.216 70.6016 31.536C70.2816 31.872 69.8896 32.04 69.4256 32.04H62.4656L63.9056 30.6H69.4256V25.776L67.9856 27H64.3856C63.9216 27 63.5216 26.84 63.1856 26.52C62.8656 26.184 62.7056 25.784 62.7056 25.32V20.28C62.7056 19.816 62.8656 19.424 63.1856 19.104C63.5216 18.768 63.9216 18.6 64.3856 18.6H71.8256ZM83.6928 18.6L82.2528 20.04H76.2528V25.56H81.2928V20.76H82.9728V30.36C82.9728 30.824 82.8048 31.216 82.4688 31.536C82.1488 31.872 81.7568 32.04 81.2928 32.04H74.3328L75.7728 30.6H81.2928V25.776L79.8528 27H76.2528C75.7888 27 75.3888 26.84 75.0528 26.52C74.7328 26.184 74.5728 25.784 74.5728 25.32V20.28C74.5728 19.816 74.7328 19.424 75.0528 19.104C75.3888 18.768 75.7888 18.6 76.2528 18.6H83.6928ZM96.2746 27H92.9146C92.4506 27 92.0506 26.84 91.7146 26.52C91.3946 26.184 91.2346 25.784 91.2346 25.32V20.04H88.8346L90.2746 18.6H91.2346V16.92L92.9146 15.24V18.6H96.2746V20.04H92.9146V25.56H96.2746V27ZM100.107 17.16H98.4265V15.24H100.107V17.16ZM100.107 27H98.4265V19.8L100.107 18.12V27ZM105.136 27H103.456V14.76L105.136 13.08V27Z" fill="black"/>
</svg>
