<svg width="178" height="55" viewBox="0 0 178 55" fill="none" xmlns="http://www.w3.org/2000/svg">
<rect x="2" y="10" width="174" height="35" fill="#F8F5D3" stroke="black" stroke-width="4"/>
<rect x="4.70728" y="6" width="168.586" height="43" fill="#F8F5D3" stroke="black" stroke-width="4"/>
<rect x="7.41455" y="2" width="163.171" height="51" fill="#F8F5D3" stroke="black" stroke-width="4"/>
<rect x="2.70728" y="8" width="172.586" height="39" fill="#F8F5D3"/>
<rect x="5.41455" y="4" width="167.171" height="47" fill="#F8F5D3"/>
<path d="M52.4389 33H44.0389V21.24H45.9589V31.32H50.5189V29.64H52.4389V33ZM62.5136 33H55.7936C55.3296 33 54.9296 32.84 54.5936 32.52C54.2736 32.184 54.1136 31.784 54.1136 31.32V26.28C54.1136 25.816 54.2736 25.424 54.5936 25.104C54.9296 24.768 55.3296 24.6 55.7936 24.6H60.8336C61.2976 24.6 61.6896 24.768 62.0096 25.104C62.3456 25.424 62.5136 25.816 62.5136 26.28V27.96L60.8336 29.64H56.0336L57.4736 28.2H60.8336V26.04H55.7936V31.56H62.5136V33ZM71.7427 24.6L70.2787 26.04H66.2227V27.96H69.5827C70.0467 27.96 70.4387 28.128 70.7587 28.464C71.0947 28.784 71.2627 29.176 71.2627 29.64V31.32C71.2627 31.784 71.0947 32.184 70.7587 32.52C70.4387 32.84 70.0467 33 69.5827 33H64.5427V31.56H69.5827V29.4H66.2227C65.7587 29.4 65.3587 29.24 65.0227 28.92C64.7027 28.584 64.5427 28.184 64.5427 27.72V26.28C64.5427 25.816 64.7027 25.424 65.0227 25.104C65.3587 24.768 65.7587 24.6 66.2227 24.6H71.7427ZM92.7189 33H91.0389V26.04H86.4789V33H84.7989V26.04H80.2389V33H78.5589V24.6H80.2389V25.8L81.4389 24.6H84.7989C85.7749 24.6 86.3269 25.008 86.4549 25.824L87.6789 24.6H91.0389C91.5029 24.6 91.8949 24.768 92.2149 25.104C92.5509 25.424 92.7189 25.816 92.7189 26.28V33ZM104.24 33H97.5202C97.0562 33 96.6562 32.84 96.3202 32.52C96.0002 32.184 95.8402 31.784 95.8402 31.32V26.28C95.8402 25.816 96.0002 25.424 96.3202 25.104C96.6562 24.768 97.0562 24.6 97.5202 24.6H102.56C103.024 24.6 103.416 24.768 103.736 25.104C104.072 25.424 104.24 25.816 104.24 26.28V27.96L102.56 29.64H97.7602L99.2002 28.2H102.56V26.04H97.5202V31.56H104.24V33ZM113.349 27.96H111.669V26.04H108.309V33H106.629V24.6H108.309V25.8L109.509 24.6H111.669C112.133 24.6 112.525 24.768 112.845 25.104C113.181 25.424 113.349 25.816 113.349 26.28V27.96ZM124.845 27.96L123.165 29.64H119.085L120.765 27.96H124.845ZM131.082 28.008L126.282 24.144L127.458 22.968L133.482 28.008L127.458 32.832L126.282 31.656L131.082 28.008Z" fill="black"/>
</svg>
