<svg width="209" height="56" viewBox="0 0 209 56" fill="none" xmlns="http://www.w3.org/2000/svg">
<rect x="8" y="10.4756" width="199" height="35.2992" fill="black" stroke="black" stroke-width="4"/>
<rect x="11.0859" y="6.44434" width="192.825" height="43.3605" fill="black" stroke="black" stroke-width="4"/>
<rect x="14.1758" y="2.41406" width="186.65" height="51.4219" fill="black" stroke="black" stroke-width="4"/>
<rect x="9.08594" y="8.47559" width="196.825" height="39.2992" fill="black"/>
<rect x="12.1758" y="4.44434" width="190.65" height="47.3605" fill="black"/>
<rect x="2" y="10.1641" width="201" height="35" fill="#FFAF35" stroke="black" stroke-width="4"/>
<rect x="5.11816" y="6.16406" width="194.764" height="43" fill="#FFAF35" stroke="black" stroke-width="4"/>
<rect x="8.23535" y="2.16406" width="188.529" height="51" fill="#FFAF35" stroke="black" stroke-width="4"/>
<rect x="3.11816" y="8.16406" width="198.764" height="39" fill="#FFAF35"/>
<rect x="6.23535" y="4.16406" width="192.529" height="47" fill="#FFAF35"/>
<path d="M78.8491 33H70.4491V21.24H72.3691V31.32H76.9291V29.64H78.8491V33ZM88.9238 33H82.2038C81.7398 33 81.3398 32.84 81.0038 32.52C80.6838 32.184 80.5238 31.784 80.5238 31.32V26.28C80.5238 25.816 80.6838 25.424 81.0038 25.104C81.3398 24.768 81.7398 24.6 82.2038 24.6H87.2438C87.7078 24.6 88.0998 24.768 88.4198 25.104C88.7558 25.424 88.9238 25.816 88.9238 26.28V27.96L87.2438 29.64H82.4438L83.8838 28.2H87.2438V26.04H82.2038V31.56H88.9238V33ZM98.1528 24.6L96.6888 26.04H92.6328V27.96H95.9928C96.4568 27.96 96.8488 28.128 97.1688 28.464C97.5048 28.784 97.6728 29.176 97.6728 29.64V31.32C97.6728 31.784 97.5048 32.184 97.1688 32.52C96.8488 32.84 96.4568 33 95.9928 33H90.9528V31.56H95.9928V29.4H92.6328C92.1688 29.4 91.7688 29.24 91.4328 28.92C91.1128 28.584 90.9528 28.184 90.9528 27.72V26.28C90.9528 25.816 91.1128 25.424 91.4328 25.104C91.7688 24.768 92.1688 24.6 92.6328 24.6H98.1528ZM119.129 33H117.449V26.04H112.889V33H111.209V26.04H106.649V33H104.969V24.6H106.649V25.8L107.849 24.6H111.209C112.185 24.6 112.737 25.008 112.865 25.824L114.089 24.6H117.449C117.913 24.6 118.305 24.768 118.625 25.104C118.961 25.424 119.129 25.816 119.129 26.28V33ZM130.65 33H123.93C123.466 33 123.066 32.84 122.73 32.52C122.41 32.184 122.25 31.784 122.25 31.32V26.28C122.25 25.816 122.41 25.424 122.73 25.104C123.066 24.768 123.466 24.6 123.93 24.6H128.97C129.434 24.6 129.826 24.768 130.146 25.104C130.482 25.424 130.65 25.816 130.65 26.28V27.96L128.97 29.64H124.17L125.61 28.2H128.97V26.04H123.93V31.56H130.65V33ZM139.759 27.96H138.079V26.04H134.719V33H133.039V24.6H134.719V25.8L135.919 24.6H138.079C138.543 24.6 138.935 24.768 139.255 25.104C139.591 25.424 139.759 25.816 139.759 26.28V27.96Z" fill="black"/>
</svg>
