<svg width="79" height="59" viewBox="0 0 79 59" fill="none" xmlns="http://www.w3.org/2000/svg">
<path d="M0.0001297 52.4619H6.52954V59.0004H0.0001297V52.4619Z" fill="#F77622"/>
<path d="M0.0001297 45.9238H6.52954V52.4623H0.0001297V45.9238Z" fill="#F77622"/>
<path d="M0.0001297 19.7695H6.52954V26.308H0.0001297V19.7695Z" fill="#F77622"/>
<path d="M0.0001297 13.2314H6.52954V19.7699H0.0001297V13.2314Z" fill="#F77622"/>
<path d="M6.52943 52.4619H13.0588V59.0004H6.52943V52.4619Z" fill="#F77622"/>
<path d="M13.059 52.4619H19.5884V59.0004H13.059V52.4619Z" fill="#F77622"/>
<path d="M32.6471 52.4619H39.1765V59.0004H32.6471V52.4619Z" fill="#BE4A2F"/>
<path d="M39.1766 52.4619H45.7061V59.0004H39.1766V52.4619Z" fill="#F77622"/>
<path d="M45.7059 52.4619H52.2354V59.0004H45.7059V52.4619Z" fill="#BE4A2F"/>
<path d="M52.2355 52.4619H58.7649V59.0004H52.2355V52.4619Z" fill="#F77622"/>
<path d="M58.7648 52.4619H65.2942V59.0004H58.7648V52.4619Z" fill="#F77622"/>
<path d="M65.2943 52.4619H71.8237V59.0004H65.2943V52.4619Z" fill="#D77643"/>
<path d="M6.52943 45.9238H13.0588V52.4623H6.52943V45.9238Z" fill="#FEAE34"/>
<path d="M13.059 45.9238H19.5884V52.4623H13.059V45.9238Z" fill="#F77622"/>
<path d="M26.1178 45.9238H32.6472V52.4623H26.1178V45.9238Z" fill="#BE4A2F"/>
<path d="M32.6471 45.9238H39.1765V52.4623H32.6471V45.9238Z" fill="#F77622"/>
<path d="M39.1766 45.9238H45.7061V52.4623H39.1766V45.9238Z" fill="#BE4A2F"/>
<path d="M45.7059 45.9238H52.2354V52.4623H45.7059V45.9238Z" fill="#F77622"/>
<path d="M52.2355 45.9238H58.7649V52.4623H52.2355V45.9238Z" fill="#F77622"/>
<path d="M58.7648 45.9238H65.2942V52.4623H58.7648V45.9238Z" fill="#F77622"/>
<path d="M65.2943 45.9238H71.8237V52.4623H65.2943V45.9238Z" fill="#F77622"/>
<path d="M71.8236 45.9238H78.353V52.4623H71.8236V45.9238Z" fill="#D77643"/>
<path d="M6.52943 39.3848H13.0588V45.9232H6.52943V39.3848Z" fill="#F77622"/>
<path d="M13.059 39.3848H19.5884V45.9232H13.059V39.3848Z" fill="#FEAE34"/>
<path d="M19.5883 39.3848H26.1177V45.9232H19.5883V39.3848Z" fill="#F77622"/>
<path d="M26.1178 39.3848H32.6472V45.9232H26.1178V39.3848Z" fill="#3E2731"/>
<path d="M32.6471 39.3848H39.1765V45.9232H32.6471V39.3848Z" fill="#F77622"/>
<path d="M39.1766 39.3848H45.7061V45.9232H39.1766V39.3848Z" fill="#3E2731"/>
<path d="M45.7059 39.3848H52.2354V45.9232H45.7059V39.3848Z" fill="#F77622"/>
<path d="M52.2355 39.3848H58.7649V45.9232H52.2355V39.3848Z" fill="#F77622"/>
<path d="M58.7648 39.3848H65.2942V45.9232H58.7648V39.3848Z" fill="#F77622"/>
<path d="M65.2943 39.3848H71.8237V45.9232H65.2943V39.3848Z" fill="#F77622"/>
<path d="M71.8236 39.3848H78.353V45.9232H71.8236V39.3848Z" fill="#F77622"/>
<path d="M13.059 32.8467H19.5884V39.3851H13.059V32.8467Z" fill="#F77622"/>
<path d="M19.5883 32.8467H26.1177V39.3851H19.5883V32.8467Z" fill="#FEAE34"/>
<path d="M26.1178 32.8467H32.6472V39.3851H26.1178V32.8467Z" fill="#733E39"/>
<path d="M32.6471 32.8467H39.1765V39.3851H32.6471V32.8467Z" fill="#FEAE34"/>
<path d="M39.1766 32.8467H45.7061V39.3851H39.1766V32.8467Z" fill="#733E39"/>
<path d="M45.7059 32.8467H52.2354V39.3851H45.7059V32.8467Z" fill="#FEAE34"/>
<path d="M52.2355 32.8467H58.7649V39.3851H52.2355V32.8467Z" fill="#EAD4AA"/>
<path d="M58.7648 32.8467H65.2942V39.3851H58.7648V32.8467Z" fill="#E9E5E1"/>
<path d="M65.2943 32.8467H71.8237V39.3851H65.2943V32.8467Z" fill="#EAD4AA"/>
<path d="M71.8236 32.8467H78.353V39.3851H71.8236V32.8467Z" fill="#FEAE34"/>
<path d="M6.52943 26.3086H13.0588V32.8471H6.52943V26.3086Z" fill="#F77622"/>
<path d="M13.059 26.3086H19.5884V32.8471H13.059V26.3086Z" fill="#F77622"/>
<path d="M19.5883 26.3086H26.1177V32.8471H19.5883V26.3086Z" fill="#FEAE34"/>
<path d="M26.1178 26.3086H32.6472V32.8471H26.1178V26.3086Z" fill="#BE4A2F"/>
<path d="M32.6471 26.3086H39.1765V32.8471H32.6471V26.3086Z" fill="#FEAE34"/>
<path d="M39.1766 26.3086H45.7061V32.8471H39.1766V26.3086Z" fill="#BE4A2F"/>
<path d="M45.7059 26.3086H52.2354V32.8471H45.7059V26.3086Z" fill="#FEAE34"/>
<path d="M52.2355 26.3086H58.7649V32.8471H52.2355V26.3086Z" fill="#E9E5E1"/>
<path d="M58.7648 26.3086H65.2942V32.8471H58.7648V26.3086Z" fill="#733E39"/>
<path d="M65.2943 26.3086H71.8237V32.8471H65.2943V26.3086Z" fill="#E9E5E1"/>
<path d="M71.8236 26.3086H78.353V32.8471H71.8236V26.3086Z" fill="#FEAE34"/>
<path d="M6.52943 19.7695H13.0588V26.308H6.52943V19.7695Z" fill="#F77622"/>
<path d="M13.059 19.7695H19.5884V26.308H13.059V19.7695Z" fill="#FEAE34"/>
<path d="M26.1178 19.7695H32.6472V26.308H26.1178V19.7695Z" fill="#733E39"/>
<path d="M32.6471 19.7695H39.1765V26.308H32.6471V19.7695Z" fill="#F77622"/>
<path d="M39.1766 19.7695H45.7061V26.308H39.1766V19.7695Z" fill="#3E2731"/>
<path d="M45.7059 19.7695H52.2354V26.308H45.7059V19.7695Z" fill="#F77622"/>
<path d="M52.2355 19.7695H58.7649V26.308H52.2355V19.7695Z" fill="#EAD4AA"/>
<path d="M58.7648 19.7695H65.2942V26.308H58.7648V19.7695Z" fill="#E9E5E1"/>
<path d="M65.2943 19.7695H71.8237V26.308H65.2943V19.7695Z" fill="#EAD4AA"/>
<path d="M71.8236 19.7695H78.353V26.308H71.8236V19.7695Z" fill="#F77622"/>
<path d="M6.52943 13.2314H13.0588V19.7699H6.52943V13.2314Z" fill="#FEAE34"/>
<path d="M13.059 13.2314H19.5884V19.7699H13.059V13.2314Z" fill="#F77622"/>
<path d="M32.6471 13.2314H39.1765V19.7699H32.6471V13.2314Z" fill="#F77622"/>
<path d="M39.1766 13.2314H45.7061V19.7699H39.1766V13.2314Z" fill="#733E39"/>
<path d="M45.7059 13.2314H52.2354V19.7699H45.7059V13.2314Z" fill="#F77622"/>
<path d="M52.2355 13.2314H58.7649V19.7699H52.2355V13.2314Z" fill="#F77622"/>
<path d="M58.7648 13.2314H65.2942V19.7699H58.7648V13.2314Z" fill="#F77622"/>
<path d="M65.2943 13.2314H71.8237V19.7699H65.2943V13.2314Z" fill="#F77622"/>
<path d="M45.7059 6.69238H52.2354V13.2308H45.7059V6.69238Z" fill="#F77622"/>
<path d="M52.2355 6.69238H58.7649V13.2308H52.2355V6.69238Z" fill="#FEAE34"/>
<path d="M45.7059 0.154297H52.2354V6.69276H45.7059V0.154297Z" fill="#FEAE34"/>
</svg>
