<svg width="299" height="59" viewBox="0 0 299 59" fill="none" xmlns="http://www.w3.org/2000/svg">
<rect x="8.66846" y="14" width="288.331" height="35" fill="black" stroke="black" stroke-width="4"/>
<rect x="13.1147" y="10" width="279.439" height="43" fill="black" stroke="black" stroke-width="4"/>
<rect x="17.5605" y="6" width="270.546" height="51" fill="black" stroke="black" stroke-width="4"/>
<rect x="11.1147" y="12" width="283.439" height="39" fill="black"/>
<rect x="15.5605" y="8" width="274.546" height="47" fill="black"/>
<rect x="2" y="10" width="294" height="35" fill="#FFAF35" stroke="black" stroke-width="4"/>
<rect x="6" y="6" width="286" height="43" fill="#FFAF35" stroke="black" stroke-width="4"/>
<rect x="10" y="2" width="280" height="51" fill="#FFAF35" stroke="black" stroke-width="4"/>
<rect x="4" y="8" width="290" height="39" fill="#FFAF35"/>
<rect x="8" y="4" width="284" height="47" fill="#FFAF35"/>
<path d="M125.345 32H116.945V20.24H118.865V30.32H123.425V28.64H125.345V32ZM135.42 30.32C135.42 30.784 135.252 31.184 134.916 31.52C134.596 31.84 134.204 32 133.74 32H128.7C128.236 32 127.836 31.84 127.5 31.52C127.18 31.184 127.02 30.784 127.02 30.32V25.28C127.02 24.816 127.18 24.424 127.5 24.104C127.836 23.768 128.236 23.6 128.7 23.6H133.74C134.204 23.6 134.596 23.768 134.916 24.104C135.252 24.424 135.42 24.816 135.42 25.28V30.32ZM133.74 30.56V25.04H128.7V30.56H133.74ZM147.895 23.6L146.455 25.04H140.455V30.56H145.495V25.76H147.175V35.36C147.175 35.824 147.007 36.216 146.671 36.536C146.351 36.872 145.959 37.04 145.495 37.04H138.535L139.975 35.6H145.495V30.776L144.055 32H140.455C139.991 32 139.591 31.84 139.255 31.52C138.935 31.184 138.775 30.784 138.775 30.32V25.28C138.775 24.816 138.935 24.424 139.255 24.104C139.591 23.768 139.991 23.6 140.455 23.6H147.895ZM159.763 23.6L158.323 25.04H152.323V30.56H157.363V25.76H159.043V35.36C159.043 35.824 158.875 36.216 158.539 36.536C158.219 36.872 157.827 37.04 157.363 37.04H150.403L151.843 35.6H157.363V30.776L155.923 32H152.323C151.859 32 151.459 31.84 151.123 31.52C150.803 31.184 150.643 30.784 150.643 30.32V25.28C150.643 24.816 150.803 24.424 151.123 24.104C151.459 23.768 151.859 23.6 152.323 23.6H159.763ZM168.505 22.16H166.825V20.24H168.505V22.16ZM168.505 32H166.825V24.8L168.505 23.12V32ZM180.014 32H178.334V25.04H173.294V32H171.614V23.6H173.294V24.8L174.494 23.6H178.334C178.798 23.6 179.19 23.768 179.51 24.104C179.846 24.424 180.014 24.816 180.014 25.28V32ZM191.529 32H189.849V25.04H184.809V32H183.129V23.6H184.809V24.8L186.009 23.6H189.849C190.313 23.6 190.705 23.768 191.025 24.104C191.361 24.424 191.529 24.816 191.529 25.28V32Z" fill="black"/>
</svg>
