<svg width="16" height="14" viewBox="0 0 16 14" fill="none" xmlns="http://www.w3.org/2000/svg">
<path d="M1.57282 13.25C1.15188 13.25 0.795573 13.1041 0.503906 12.8125C0.21224 12.5208 0.0664062 12.1645 0.0664062 11.7435V2.25642C0.0664062 1.83547 0.21224 1.47917 0.503906 1.1875C0.795573 0.895833 1.15188 0.75 1.57282 0.75H14.3933C14.8142 0.75 15.1705 0.895833 15.4622 1.1875C15.7539 1.47917 15.8997 1.83547 15.8997 2.25642V11.7435C15.8997 12.1645 15.7539 12.5208 15.4622 12.8125C15.1705 13.1041 14.8142 13.25 14.3933 13.25H1.57282ZM7.98305 7.46469L1.31639 3.20187V11.7435C1.31639 11.8183 1.34043 11.8798 1.38851 11.9279C1.43659 11.9759 1.49803 12 1.57282 12H14.3933C14.4681 12 14.5295 11.9759 14.5776 11.9279C14.6257 11.8798 14.6497 11.8183 14.6497 11.7435V3.20187L7.98305 7.46469ZM7.98305 6.16665L14.5215 1.99998H1.44459L7.98305 6.16665ZM1.31639 3.20187V1.99998V11.7435C1.31639 11.8183 1.34043 11.8798 1.38851 11.9279C1.43659 11.9759 1.49803 12 1.57282 12H1.31639V3.20187Z" fill="#2A1449"/>
</svg>
