<svg width="269" height="59" viewBox="0 0 269 59" fill="none" xmlns="http://www.w3.org/2000/svg">
<rect x="8" y="14" width="259" height="35" fill="black" stroke="black" stroke-width="4"/>
<rect x="12" y="10" width="251" height="43" fill="black" stroke="black" stroke-width="4"/>
<rect x="16" y="6" width="243" height="51" fill="black" stroke="black" stroke-width="4"/>
<rect x="10" y="12" width="255" height="39" fill="black"/>
<rect x="14" y="8" width="247" height="47" fill="black"/>
<rect x="2" y="10" width="259" height="35" fill="white" stroke="black" stroke-width="4"/>
<rect x="6" y="6" width="251" height="43" fill="white" stroke="black" stroke-width="4"/>
<rect x="10" y="2" width="243" height="51" fill="white" stroke="black" stroke-width="4"/>
<rect x="4" y="8" width="255" height="39" fill="white"/>
<rect x="8" y="4" width="247" height="47" fill="white"/>
<path d="M89.2286 31.976H87.3086V23.144L88.0286 21.944H86.9486L83.9966 28.64H82.6046L79.7486 21.944H78.6686L79.3886 23.144V31.976H77.4686V20.24H80.9006L83.2766 25.856H83.5166L85.8926 20.24H89.2286V31.976ZM101.217 32H94.4967C94.0327 32 93.6327 31.84 93.2967 31.52C92.9767 31.184 92.8167 30.784 92.8167 30.32V25.28C92.8167 24.816 92.9767 24.424 93.2967 24.104C93.6327 23.768 94.0327 23.6 94.4967 23.6H99.5367C100.001 23.6 100.393 23.768 100.713 24.104C101.049 24.424 101.217 24.816 101.217 25.28V26.96L99.5367 28.64H94.7367L96.1767 27.2H99.5367V25.04H94.4967V30.56H101.217V32ZM105.526 32H103.846V19.76L105.526 18.08V32ZM117.287 32H115.607V30.8L114.407 32H110.567C110.103 32 109.703 31.84 109.367 31.52C109.047 31.184 108.887 30.784 108.887 30.32V25.28C108.887 24.816 109.047 24.424 109.367 24.104C109.703 23.768 110.103 23.6 110.567 23.6H115.607V19.76L117.287 18.08V32ZM115.607 30.56V23.84L114.407 25.04H110.567V30.56H115.607ZM133.592 32H131.912V30.8L130.712 32H126.872C126.408 32 126.008 31.84 125.672 31.52C125.352 31.184 125.192 30.784 125.192 30.32V25.28C125.192 24.816 125.352 24.424 125.672 24.104C126.008 23.768 126.408 23.6 126.872 23.6H131.912V19.76L133.592 18.08V32ZM131.912 30.56V23.84L130.712 25.04H126.872V30.56H131.912ZM145.342 32H138.622C138.158 32 137.758 31.84 137.422 31.52C137.102 31.184 136.942 30.784 136.942 30.32V25.28C136.942 24.816 137.102 24.424 137.422 24.104C137.758 23.768 138.158 23.6 138.622 23.6H143.662C144.126 23.6 144.518 23.768 144.838 24.104C145.174 24.424 145.342 24.816 145.342 25.28V26.96L143.662 28.64H138.862L140.302 27.2H143.662V25.04H138.622V30.56H145.342V32ZM157.091 23.6L155.651 25.04H149.651V30.56H154.691V25.76H156.371V35.36C156.371 35.824 156.203 36.216 155.867 36.536C155.547 36.872 155.155 37.04 154.691 37.04H147.731L149.171 35.6H154.691V30.776L153.251 32H149.651C149.187 32 148.787 31.84 148.451 31.52C148.131 31.184 147.971 30.784 147.971 30.32V25.28C147.971 24.816 148.131 24.424 148.451 24.104C148.787 23.768 149.187 23.6 149.651 23.6H157.091ZM172.193 32H170.513V30.776L169.073 32H165.473C165.009 32 164.609 31.84 164.273 31.52C163.953 31.184 163.793 30.784 163.793 30.32V28.64C163.793 28.176 163.953 27.784 164.273 27.464C164.609 27.128 165.009 26.96 165.473 26.96H170.273L168.833 28.376H165.473V30.56H170.513V25.04H163.793L165.233 23.6H170.513C170.977 23.6 171.369 23.768 171.689 24.104C172.025 24.424 172.193 24.816 172.193 25.28V32ZM183.093 23.6L179.829 32H177.381L174.213 23.6H176.133L178.413 30.608H178.893L181.173 23.6H183.093Z" fill="black"/>
</svg>
