<svg width="263" height="55" viewBox="0 0 263 55" fill="none" xmlns="http://www.w3.org/2000/svg">
<rect x="2" y="10" width="259" height="35" fill="#F29733" stroke="black" stroke-width="4"/>
<rect x="6" y="6" width="251" height="43" fill="#F29733" stroke="black" stroke-width="4"/>
<rect x="10" y="2" width="243" height="51" fill="#F29733" stroke="black" stroke-width="4"/>
<rect x="4" y="8" width="255" height="39" fill="#F29733"/>
<rect x="8" y="4" width="247" height="47" fill="#F29733"/>
<path d="M90.8848 32.976H88.9648V24.144L89.6848 22.944H88.6048L85.6528 29.64H84.2608L81.4048 22.944H80.3248L81.0448 24.144V32.976H79.1248V21.24H82.5568L84.9328 26.856H85.1728L87.5488 21.24H90.8848V32.976ZM102.873 33H96.153C95.689 33 95.289 32.84 94.953 32.52C94.633 32.184 94.473 31.784 94.473 31.32V26.28C94.473 25.816 94.633 25.424 94.953 25.104C95.289 24.768 95.689 24.6 96.153 24.6H101.193C101.657 24.6 102.049 24.768 102.369 25.104C102.705 25.424 102.873 25.816 102.873 26.28V27.96L101.193 29.64H96.393L97.833 28.2H101.193V26.04H96.153V31.56H102.873V33ZM107.182 33H105.502V20.76L107.182 19.08V33ZM118.943 33H117.263V31.8L116.063 33H112.223C111.759 33 111.359 32.84 111.023 32.52C110.703 32.184 110.543 31.784 110.543 31.32V26.28C110.543 25.816 110.703 25.424 111.023 25.104C111.359 24.768 111.759 24.6 112.223 24.6H117.263V20.76L118.943 19.08V33ZM117.263 31.56V24.84L116.063 26.04H112.223V31.56H117.263ZM135.248 33H133.568V31.8L132.368 33H128.528C128.064 33 127.664 32.84 127.328 32.52C127.008 32.184 126.848 31.784 126.848 31.32V26.28C126.848 25.816 127.008 25.424 127.328 25.104C127.664 24.768 128.064 24.6 128.528 24.6H133.568V20.76L135.248 19.08V33ZM133.568 31.56V24.84L132.368 26.04H128.528V31.56H133.568ZM146.998 33H140.278C139.814 33 139.414 32.84 139.078 32.52C138.758 32.184 138.598 31.784 138.598 31.32V26.28C138.598 25.816 138.758 25.424 139.078 25.104C139.414 24.768 139.814 24.6 140.278 24.6H145.318C145.782 24.6 146.174 24.768 146.494 25.104C146.83 25.424 146.998 25.816 146.998 26.28V27.96L145.318 29.64H140.518L141.958 28.2H145.318V26.04H140.278V31.56H146.998V33ZM158.747 24.6L157.307 26.04H151.307V31.56H156.347V26.76H158.027V36.36C158.027 36.824 157.859 37.216 157.523 37.536C157.203 37.872 156.811 38.04 156.347 38.04H149.387L150.827 36.6H156.347V31.776L154.907 33H151.307C150.843 33 150.443 32.84 150.107 32.52C149.787 32.184 149.627 31.784 149.627 31.32V26.28C149.627 25.816 149.787 25.424 150.107 25.104C150.443 24.768 150.843 24.6 151.307 24.6H158.747ZM174.209 31.32C174.209 31.784 174.041 32.184 173.705 32.52C173.385 32.84 172.993 33 172.529 33H167.489V38.04H165.809V24.6H167.489V25.8L168.689 24.6H172.529C172.993 24.6 173.385 24.768 173.705 25.104C174.041 25.424 174.209 25.816 174.209 26.28V31.32ZM172.529 31.56V26.04H167.489V32.76L168.689 31.56H172.529ZM185.365 33H183.685V31.776L182.245 33H178.645C178.181 33 177.781 32.84 177.445 32.52C177.125 32.184 176.965 31.784 176.965 31.32V29.64C176.965 29.176 177.125 28.784 177.445 28.464C177.781 28.128 178.181 27.96 178.645 27.96H183.445L182.005 29.376H178.645V31.56H183.685V26.04H176.965L178.405 24.6H183.685C184.149 24.6 184.541 24.768 184.861 25.104C185.197 25.424 185.365 25.816 185.365 26.28V33ZM183.685 20.952C183.685 21.368 183.533 21.728 183.229 22.032L182.509 22.776C182.333 22.952 182.069 23.04 181.717 23.04H181.141C180.789 23.04 180.525 22.952 180.349 22.776L179.629 22.032C179.325 21.728 179.173 21.368 179.173 20.952C179.173 20.536 179.325 20.176 179.629 19.872L180.349 19.128C180.653 18.792 181.013 18.624 181.429 18.624C181.829 18.624 182.189 18.792 182.509 19.128L183.229 19.872C183.533 20.176 183.685 20.536 183.685 20.952ZM182.629 20.952L181.429 19.752L180.229 20.952L181.429 22.152L182.629 20.952Z" fill="black"/>
</svg>
