<svg width="211" height="59" viewBox="0 0 211 59" fill="none" xmlns="http://www.w3.org/2000/svg">
<rect x="14" y="14" width="195" height="35" fill="black" stroke="black" stroke-width="4"/>
<rect x="17.0234" y="10" width="188.947" height="43" fill="black" stroke="black" stroke-width="4"/>
<rect x="20.0547" y="6" width="182.894" height="51" fill="black" stroke="black" stroke-width="4"/>
<rect x="15.0234" y="12" width="192.947" height="39" fill="black"/>
<rect x="18.0547" y="8" width="186.894" height="47" fill="black"/>
<rect x="2" y="10" width="201" height="35" fill="#FDF2E5" stroke="black" stroke-width="4"/>
<rect x="5.11719" y="6" width="194.764" height="43" fill="#FDF2E5" stroke="black" stroke-width="4"/>
<rect x="8.23438" y="2" width="188.529" height="51" fill="#FDF2E5" stroke="black" stroke-width="4"/>
<rect x="3.11719" y="8" width="198.764" height="39" fill="#FDF2E5"/>
<rect x="6.23438" y="4" width="192.529" height="47" fill="#FDF2E5"/>
<path d="M88.3689 32.976H85.0089L80.4489 23.016H79.4889L80.2089 24.216V32.976H78.2889V21.216H81.6729L86.2089 31.176H87.1689L86.4489 29.976V21.216H88.3689V32.976ZM100.35 33H93.6295C93.1655 33 92.7655 32.84 92.4295 32.52C92.1095 32.184 91.9495 31.784 91.9495 31.32V26.28C91.9495 25.816 92.1095 25.424 92.4295 25.104C92.7655 24.768 93.1655 24.6 93.6295 24.6H98.6695C99.1335 24.6 99.5255 24.768 99.8455 25.104C100.182 25.424 100.35 25.816 100.35 26.28V27.96L98.6695 29.64H93.8695L95.3095 28.2H98.6695V26.04H93.6295V31.56H100.35V33ZM109.579 24.6L108.115 26.04H104.059V27.96H107.419C107.883 27.96 108.275 28.128 108.595 28.464C108.931 28.784 109.099 29.176 109.099 29.64V31.32C109.099 31.784 108.931 32.184 108.595 32.52C108.275 32.84 107.883 33 107.419 33H102.379V31.56H107.419V29.4H104.059C103.595 29.4 103.195 29.24 102.859 28.92C102.539 28.584 102.379 28.184 102.379 27.72V26.28C102.379 25.816 102.539 25.424 102.859 25.104C103.195 24.768 103.595 24.6 104.059 24.6H109.579ZM117.36 33H114C113.536 33 113.136 32.84 112.8 32.52C112.48 32.184 112.32 31.784 112.32 31.32V26.04H109.92L111.36 24.6H112.32V22.92L114 21.24V24.6H117.36V26.04H114V31.56H117.36V33ZM127.912 33H121.192C120.728 33 120.328 32.84 119.992 32.52C119.672 32.184 119.512 31.784 119.512 31.32V26.28C119.512 25.816 119.672 25.424 119.992 25.104C120.328 24.768 120.728 24.6 121.192 24.6H126.232C126.696 24.6 127.088 24.768 127.408 25.104C127.744 25.424 127.912 25.816 127.912 26.28V27.96L126.232 29.64H121.432L122.872 28.2H126.232V26.04H121.192V31.56H127.912V33Z" fill="black"/>
</svg>
