<svg width="226" height="44" viewBox="0 0 226 44" fill="none" xmlns="http://www.w3.org/2000/svg">
<rect x="8.21973" y="10.7363" width="215.779" height="25.2611" fill="black" stroke="black" stroke-width="4"/>
<rect x="11.5615" y="7.73535" width="209.094" height="31.2634" fill="black" stroke="black" stroke-width="4"/>
<rect x="14.9062" y="4.73438" width="202.408" height="37.2656" fill="black" stroke="black" stroke-width="4"/>
<rect x="9.56152" y="8.73633" width="213.094" height="29.2611" fill="black"/>
<rect x="12.9062" y="5.73535" width="206.408" height="35.2634" fill="black"/>
<rect x="2" y="7.97461" width="218.906" height="25.1281" fill="#D6D2CD" stroke="black" stroke-width="4"/>
<rect x="5.38965" y="4.9873" width="212.125" height="31.1031" fill="#D6D2CD" stroke="black" stroke-width="4"/>
<rect x="8.78027" y="2" width="205.345" height="37.0781" fill="#D6D2CD" stroke="black" stroke-width="4"/>
<rect x="3.38965" y="5.97461" width="216.125" height="29.1281" fill="#D6D2CD"/>
<rect x="6.78027" y="2.9873" width="209.345" height="35.1031" fill="#D6D2CD"/>
<path d="M29.4939 20.96C29.4939 21.408 29.3259 21.8 28.9899 22.136C28.6539 22.472 28.2619 22.64 27.8139 22.64H21.3339V26H19.4139V17.6L21.0939 15.92H19.4139V14.24H27.8139C28.2619 14.24 28.6539 14.408 28.9899 14.744C29.3259 15.08 29.4939 15.472 29.4939 15.92V20.96ZM27.5739 20.96V15.92H21.3339V22.4L22.7739 20.96H27.5739ZM40.763 26H39.083V24.776L37.643 26H34.043C33.579 26 33.179 25.84 32.843 25.52C32.523 25.184 32.363 24.784 32.363 24.32V22.64C32.363 22.176 32.523 21.784 32.843 21.464C33.179 21.128 33.579 20.96 34.043 20.96H38.843L37.403 22.376H34.043V24.56H39.083V19.04H32.363L33.803 17.6H39.083C39.547 17.6 39.939 17.768 40.259 18.104C40.595 18.424 40.763 18.816 40.763 19.28V26ZM39.083 13.952C39.083 14.368 38.931 14.728 38.627 15.032L37.907 15.776C37.731 15.952 37.467 16.04 37.115 16.04H36.539C36.187 16.04 35.923 15.952 35.747 15.776L35.027 15.032C34.723 14.728 34.571 14.368 34.571 13.952C34.571 13.536 34.723 13.176 35.027 12.872L35.747 12.128C36.051 11.792 36.411 11.624 36.827 11.624C37.227 11.624 37.587 11.792 37.907 12.128L38.627 12.872C38.931 13.176 39.083 13.536 39.083 13.952ZM38.027 13.952L36.827 12.752L35.627 13.952L36.827 15.152L38.027 13.952ZM58.0236 26H56.3436V19.04H51.7836V26H50.1036V19.04H45.5436V26H43.8636V17.6H45.5436V18.8L46.7436 17.6H50.1036C51.0796 17.6 51.6316 18.008 51.7596 18.824L52.9836 17.6H56.3436C56.8076 17.6 57.1996 17.768 57.5196 18.104C57.8556 18.424 58.0236 18.816 58.0236 19.28V26ZM69.5448 26H62.8248C62.3608 26 61.9608 25.84 61.6248 25.52C61.3048 25.184 61.1448 24.784 61.1448 24.32V19.28C61.1448 18.816 61.3048 18.424 61.6248 18.104C61.9608 17.768 62.3608 17.6 62.8248 17.6H67.8648C68.3288 17.6 68.7208 17.768 69.0408 18.104C69.3768 18.424 69.5448 18.816 69.5448 19.28V20.96L67.8648 22.64H63.0648L64.5048 21.2H67.8648V19.04H62.8248V24.56H69.5448V26ZM73.8539 26H72.1739V13.76L73.8539 12.08V26ZM85.6152 26H83.9352V24.8L82.7352 26H78.8952C78.4312 26 78.0312 25.84 77.6952 25.52C77.3752 25.184 77.2152 24.784 77.2152 24.32V19.28C77.2152 18.816 77.3752 18.424 77.6952 18.104C78.0312 17.768 78.4312 17.6 78.8952 17.6H83.9352V13.76L85.6152 12.08V26ZM83.9352 24.56V17.84L82.7352 19.04H78.8952V24.56H83.9352ZM90.6452 16.16H88.9652V14.24H90.6452V16.16ZM90.6452 26H88.9652V18.8L90.6452 17.12V26ZM102.154 26H100.474V19.04H95.4342V26H93.7542V17.6H95.4342V18.8L96.6342 17.6H100.474C100.938 17.6 101.33 17.768 101.65 18.104C101.986 18.424 102.154 18.816 102.154 19.28V26ZM114.63 17.6L113.19 19.04H107.19V24.56H112.23V19.76H113.91V29.36C113.91 29.824 113.742 30.216 113.406 30.536C113.086 30.872 112.694 31.04 112.23 31.04H105.27L106.71 29.6H112.23V24.776L110.79 26H107.19C106.726 26 106.326 25.84 105.99 25.52C105.67 25.184 105.51 24.784 105.51 24.32V19.28C105.51 18.816 105.67 18.424 105.99 18.104C106.326 17.768 106.726 17.6 107.19 17.6H114.63ZM130.812 17.6L126.996 20.936V21.176H128.652C129.116 21.176 129.508 21.344 129.828 21.68C130.164 22 130.332 22.392 130.332 22.856V26H128.652V22.4H123.612V26H121.932V13.76L123.612 12.08V22.184L128.772 17.6H130.812ZM141.607 24.32C141.607 24.784 141.439 25.184 141.103 25.52C140.783 25.84 140.391 26 139.927 26H134.887C134.423 26 134.023 25.84 133.687 25.52C133.367 25.184 133.207 24.784 133.207 24.32V19.28C133.207 18.816 133.367 18.424 133.687 18.104C134.023 17.768 134.423 17.6 134.887 17.6H139.927C140.391 17.6 140.783 17.768 141.103 18.104C141.439 18.424 141.607 18.816 141.607 19.28V24.32ZM139.927 24.56V19.04H134.887V24.56H139.927ZM158.883 26H157.203V19.04H152.643V26H150.963V19.04H146.403V26H144.723V17.6H146.403V18.8L147.603 17.6H150.963C151.939 17.6 152.491 18.008 152.619 18.824L153.843 17.6H157.203C157.667 17.6 158.059 17.768 158.379 18.104C158.715 18.424 158.883 18.816 158.883 19.28V26ZM176.164 26H174.484V19.04H169.924V26H168.244V19.04H163.684V26H162.004V17.6H163.684V18.8L164.884 17.6H168.244C169.22 17.6 169.772 18.008 169.9 18.824L171.124 17.6H174.484C174.948 17.6 175.34 17.768 175.66 18.104C175.996 18.424 176.164 18.816 176.164 19.28V26ZM187.685 26H180.965C180.501 26 180.101 25.84 179.765 25.52C179.445 25.184 179.285 24.784 179.285 24.32V19.28C179.285 18.816 179.445 18.424 179.765 18.104C180.101 17.768 180.501 17.6 180.965 17.6H186.005C186.469 17.6 186.861 17.768 187.181 18.104C187.517 18.424 187.685 18.816 187.685 19.28V20.96L186.005 22.64H181.205L182.645 21.2H186.005V19.04H180.965V24.56H187.685V26ZM196.795 20.96H195.115V19.04H191.755V26H190.075V17.6H191.755V18.8L192.955 17.6H195.115C195.579 17.6 195.971 17.768 196.291 18.104C196.627 18.424 196.795 18.816 196.795 19.28V20.96Z" fill="black"/>
</svg>
