<svg width="54" height="54" viewBox="0 0 54 54" fill="none" xmlns="http://www.w3.org/2000/svg">
<path d="M27 0H24V3H27V0Z" fill="#2A1449"/>
<path d="M27 3H24V6H27V3Z" fill="#F6EBD5"/>
<path d="M27 15H24V18H27V15Z" fill="#F6EBD5"/>
<path d="M27 27H24V30H27V27Z" fill="#F6EBD5"/>
<path d="M30 3H27V6H30V3Z" fill="#F6EBD5"/>
<path d="M30 15H27V18H30V15Z" fill="#F6EBD5"/>
<path d="M30 27H27V30H30V27Z" fill="#F6EBD5"/>
<path d="M30 6H27V9H30V6Z" fill="#F6EBD5"/>
<path d="M30 18H27V21H30V18Z" fill="#F6EBD5"/>
<path d="M30 30H27V33H30V30Z" fill="#F6EBD5"/>
<path d="M27 6H24V9H27V6Z" fill="#F6EBD5"/>
<path d="M27 18H24V21H27V18Z" fill="#F6EBD5"/>
<path d="M27 30H24V33H27V30Z" fill="#F6EBD5"/>
<path d="M27 9H24V12H27V9Z" fill="#F6EBD5"/>
<path d="M27 21H24V24H27V21Z" fill="#F6EBD5"/>
<path d="M27 33H24V36H27V33Z" fill="#F6EBD5"/>
<path d="M24 27H21V30H24V27Z" fill="#F6EBD5"/>
<path d="M36 27H33V30H36V27Z" fill="#F6EBD5"/>
<path d="M36 15H33V18H36V15Z" fill="#F6EBD5"/>
<path d="M24 15H21V18H24V15Z" fill="#F6EBD5"/>
<path d="M39 21H36V24H39V21Z" fill="#F6EBD5"/>
<path d="M21 21H18V24H21V21Z" fill="#F6EBD5"/>
<path d="M15 21H12V24H15V21Z" fill="#F6EBD5"/>
<path d="M9 21H6V24H9V21Z" fill="#F6EBD5"/>
<path d="M51 21H48V24H51V21Z" fill="#F6EBD5"/>
<path d="M45 21H42V24H45V21Z" fill="#F6EBD5"/>
<path d="M48 45H45V48H48V45Z" fill="#F6EBD5"/>
<path d="M45 39H42V42H45V39Z" fill="#F6EBD5"/>
<path d="M39 42H36V45H39V42Z" fill="#F6EBD5"/>
<path d="M39 33H36V36H39V33Z" fill="#F6EBD5"/>
<path d="M42 27H39V30H42V27Z" fill="#F6EBD5"/>
<path d="M21 33H18V36H21V33Z" fill="#F6EBD5"/>
<path d="M18 27H15V30H18V27Z" fill="#F6EBD5"/>
<path d="M21 42H18V45H21V42Z" fill="#F6EBD5"/>
<path d="M12 45H9V48H12V45Z" fill="#F6EBD5"/>
<path d="M15 39H12V42H15V39Z" fill="#F6EBD5"/>
<path d="M24 9H21V12H24V9Z" fill="#F6EBD5"/>
<path d="M24 21H21V24H24V21Z" fill="#F6EBD5"/>
<path d="M24 33H21V36H24V33Z" fill="#F6EBD5"/>
<path d="M21 27H18V30H21V27Z" fill="#F6EBD5"/>
<path d="M33 27H30V30H33V27Z" fill="#F6EBD5"/>
<path d="M33 15H30V18H33V15Z" fill="#F6EBD5"/>
<path d="M21 15H18V18H21V15Z" fill="#F6EBD5"/>
<path d="M36 21H33V24H36V21Z" fill="#F6EBD5"/>
<path d="M18 21H15V24H18V21Z" fill="#F6EBD5"/>
<path d="M12 21H9V24H12V21Z" fill="#F6EBD5"/>
<path d="M6 21H3V24H6V21Z" fill="#F6EBD5"/>
<path d="M48 21H45V24H48V21Z" fill="#F6EBD5"/>
<path d="M42 21H39V24H42V21Z" fill="#F6EBD5"/>
<path d="M45 45H42V48H45V45Z" fill="#F6EBD5"/>
<path d="M42 39H39V42H42V39Z" fill="#F6EBD5"/>
<path d="M36 42H33V45H36V42Z" fill="#F6EBD5"/>
<path d="M36 33H33V36H36V33Z" fill="#F6EBD5"/>
<path d="M39 27H36V30H39V27Z" fill="#F6EBD5"/>
<path d="M18 33H15V36H18V33Z" fill="#F6EBD5"/>
<path d="M15 33H12V36H15V33Z" fill="#F6EBD5"/>
<path d="M12 27H9V30H12V27Z" fill="#F6EBD5"/>
<path d="M45 27H42V30H45V27Z" fill="#F6EBD5"/>
<path d="M42 33H39V36H42V33Z" fill="#F6EBD5"/>
<path d="M42 45H39V48H42V45Z" fill="#F6EBD5"/>
<path d="M15 45H12V48H15V45Z" fill="#F6EBD5"/>
<path d="M24 39H21V42H24V39Z" fill="#F6EBD5"/>
<path d="M33 39H30V42H33V39Z" fill="#F6EBD5"/>
<path d="M15 27H12V30H15V27Z" fill="#F6EBD5"/>
<path d="M18 42H15V45H18V42Z" fill="#F6EBD5"/>
<path d="M9 45H6V48H9V45Z" fill="#F6EBD5"/>
<path d="M12 39H9V42H12V39Z" fill="#F6EBD5"/>
<path d="M30 9H27V12H30V9Z" fill="#F6EBD5"/>
<path d="M30 21H27V24H30V21Z" fill="#F6EBD5"/>
<path d="M30 33H27V36H30V33Z" fill="#F6EBD5"/>
<path d="M33 9H30V12H33V9Z" fill="#F6EBD5"/>
<path d="M33 21H30V24H33V21Z" fill="#F6EBD5"/>
<path d="M33 33H30V36H33V33Z" fill="#F6EBD5"/>
<path d="M33 12H30V15H33V12Z" fill="#F6EBD5"/>
<path d="M33 24H30V27H33V24Z" fill="#F6EBD5"/>
<path d="M33 36H30V39H33V36Z" fill="#F6EBD5"/>
<path d="M30 12H27V15H30V12Z" fill="#F6EBD5"/>
<path d="M30 24H27V27H30V24Z" fill="#F6EBD5"/>
<path d="M30 36H27V39H30V36Z" fill="#F6EBD5"/>
<path d="M27 12H24V15H27V12Z" fill="#F6EBD5"/>
<path d="M27 24H24V27H27V24Z" fill="#F6EBD5"/>
<path d="M27 36H24V39H27V36Z" fill="#F6EBD5"/>
<path d="M24 30H21V33H24V30Z" fill="#F6EBD5"/>
<path d="M36 30H33V33H36V30Z" fill="#F6EBD5"/>
<path d="M36 18H33V21H36V18Z" fill="#F6EBD5"/>
<path d="M39 18H36V21H39V18Z" fill="#F6EBD5"/>
<path d="M48 27H45V30H48V27Z" fill="#F6EBD5"/>
<path d="M18 18H15V21H18V18Z" fill="#F6EBD5"/>
<path d="M9 27H6V30H9V27Z" fill="#F6EBD5"/>
<path d="M24 18H21V21H24V18Z" fill="#F6EBD5"/>
<path d="M39 24H36V27H39V24Z" fill="#F6EBD5"/>
<path d="M21 24H18V27H21V24Z" fill="#F6EBD5"/>
<path d="M15 24H12V27H15V24Z" fill="#F6EBD5"/>
<path d="M9 24H6V27H9V24Z" fill="#F6EBD5"/>
<path d="M51 24H48V27H51V24Z" fill="#F6EBD5"/>
<path d="M45 24H42V27H45V24Z" fill="#F6EBD5"/>
<path d="M48 48H45V51H48V48Z" fill="#F6EBD5"/>
<path d="M45 42H42V45H45V42Z" fill="#F6EBD5"/>
<path d="M39 45H36V48H39V45Z" fill="#F6EBD5"/>
<path d="M39 36H36V39H39V36Z" fill="#F6EBD5"/>
<path d="M42 30H39V33H42V30Z" fill="#F6EBD5"/>
<path d="M21 36H18V39H21V36Z" fill="#F6EBD5"/>
<path d="M21 39H18V42H21V39Z" fill="#F6EBD5"/>
<path d="M30 39H27V42H30V39Z" fill="#F6EBD5"/>
<path d="M39 39H36V42H39V39Z" fill="#F6EBD5"/>
<path d="M18 30H15V33H18V30Z" fill="#F6EBD5"/>
<path d="M21 45H18V48H21V45Z" fill="#F6EBD5"/>
<path d="M12 48H9V51H12V48Z" fill="#F6EBD5"/>
<path d="M15 42H12V45H15V42Z" fill="#F6EBD5"/>
<path d="M24 12H21V15H24V12Z" fill="#F6EBD5"/>
<path d="M24 24H21V27H24V24Z" fill="#F6EBD5"/>
<path d="M24 36H21V39H24V36Z" fill="#F6EBD5"/>
<path d="M21 30H18V33H21V30Z" fill="#F6EBD5"/>
<path d="M33 30H30V33H33V30Z" fill="#F6EBD5"/>
<path d="M33 18H30V21H33V18Z" fill="#F6EBD5"/>
<path d="M21 18H18V21H21V18Z" fill="#F6EBD5"/>
<path d="M36 24H33V27H36V24Z" fill="#F6EBD5"/>
<path d="M18 24H15V27H18V24Z" fill="#F6EBD5"/>
<path d="M12 24H9V27H12V24Z" fill="#F6EBD5"/>
<path d="M6 24H3V27H6V24Z" fill="#F6EBD5"/>
<path d="M48 24H45V27H48V24Z" fill="#F6EBD5"/>
<path d="M42 24H39V27H42V24Z" fill="#F6EBD5"/>
<path d="M45 48H42V51H45V48Z" fill="#F6EBD5"/>
<path d="M42 42H39V45H42V42Z" fill="#F6EBD5"/>
<path d="M36 45H33V48H36V45Z" fill="#F6EBD5"/>
<path d="M36 36H33V39H36V36Z" fill="#F6EBD5"/>
<path d="M39 30H36V33H39V30Z" fill="#F6EBD5"/>
<path d="M18 36H15V39H18V36Z" fill="#F6EBD5"/>
<path d="M18 39H15V42H18V39Z" fill="#F6EBD5"/>
<path d="M27 39H24V42H27V39Z" fill="#F6EBD5"/>
<path d="M36 39H33V42H36V39Z" fill="#F6EBD5"/>
<path d="M15 36H12V39H15V36Z" fill="#F6EBD5"/>
<path d="M12 30H9V33H12V30Z" fill="#F6EBD5"/>
<path d="M45 30H42V33H45V30Z" fill="#F6EBD5"/>
<path d="M42 36H39V39H42V36Z" fill="#F6EBD5"/>
<path d="M42 48H39V51H42V48Z" fill="#F6EBD5"/>
<path d="M15 48H12V51H15V48Z" fill="#F6EBD5"/>
<path d="M24 42H21V45H24V42Z" fill="#F6EBD5"/>
<path d="M33 42H30V45H33V42Z" fill="#F6EBD5"/>
<path d="M15 30H12V33H15V30Z" fill="#F6EBD5"/>
<path d="M18 45H15V48H18V45Z" fill="#F6EBD5"/>
<path d="M9 48H6V51H9V48Z" fill="#F6EBD5"/>
<path d="M12 42H9V45H12V42Z" fill="#F6EBD5"/>
<path d="M30 0H27V3H30V0Z" fill="#2A1449"/>
<path d="M24 3H21V6H24V3Z" fill="#2A1449"/>
<path d="M24 6H21V9H24V6Z" fill="#2A1449"/>
<path d="M21 9H18V12H21V9Z" fill="#2A1449"/>
<path d="M36 9H33V12H36V9Z" fill="#2A1449"/>
<path d="M21 12H18V15H21V12Z" fill="#2A1449"/>
<path d="M36 12H33V15H36V12Z" fill="#2A1449"/>
<path d="M18 15H15V18H18V15Z" fill="#2A1449"/>
<path d="M39 15H36V18H39V15Z" fill="#2A1449"/>
<path d="M15 18H12V21H15V18Z" fill="#2A1449"/>
<path d="M51 18H48V21H51V18Z" fill="#2A1449"/>
<path d="M9 18H6V21H9V18Z" fill="#2A1449"/>
<path d="M45 18H42V21H45V18Z" fill="#2A1449"/>
<path d="M12 18H9V21H12V18Z" fill="#2A1449"/>
<path d="M48 18H45V21H48V18Z" fill="#2A1449"/>
<path d="M6 18H3V21H6V18Z" fill="#2A1449"/>
<path d="M3 21H0V24H3V21Z" fill="#2A1449"/>
<path d="M3 24H0V27H3V24Z" fill="#2A1449"/>
<path d="M6 27H3V30H6V27Z" fill="#2A1449"/>
<path d="M9 30H6V33H9V30Z" fill="#2A1449"/>
<path d="M12 33H9V36H12V33Z" fill="#2A1449"/>
<path d="M12 36H9V39H12V36Z" fill="#2A1449"/>
<path d="M9 39H6V42H9V39Z" fill="#2A1449"/>
<path d="M9 42H6V45H9V42Z" fill="#2A1449"/>
<path d="M6 45H3V48H6V45Z" fill="#2A1449"/>
<path d="M6 48H3V51H6V48Z" fill="#2A1449"/>
<path d="M9 51H6V54H9V51Z" fill="#2A1449"/>
<path d="M12 51H9V54H12V51Z" fill="#2A1449"/>
<path d="M15 51H12V54H15V51Z" fill="#2A1449"/>
<path d="M18 48H15V51H18V48Z" fill="#2A1449"/>
<path d="M21 48H18V51H21V48Z" fill="#2A1449"/>
<path d="M24 45H21V48H24V45Z" fill="#2A1449"/>
<path d="M27 42H24V45H27V42Z" fill="#2A1449"/>
<path d="M30 42H27V45H30V42Z" fill="#2A1449"/>
<path d="M33 45H30V48H33V45Z" fill="#2A1449"/>
<path d="M36 48H33V51H36V48Z" fill="#2A1449"/>
<path d="M39 48H36V51H39V48Z" fill="#2A1449"/>
<path d="M42 51H39V54H42V51Z" fill="#2A1449"/>
<path d="M45 51H42V54H45V51Z" fill="#2A1449"/>
<path d="M48 51H45V54H48V51Z" fill="#2A1449"/>
<path d="M51 48H48V51H51V48Z" fill="#2A1449"/>
<path d="M51 45H48V48H51V45Z" fill="#2A1449"/>
<path d="M48 42H45V45H48V42Z" fill="#2A1449"/>
<path d="M48 39H45V42H48V39Z" fill="#2A1449"/>
<path d="M45 36H42V39H45V36Z" fill="#2A1449"/>
<path d="M45 33H42V36H45V33Z" fill="#2A1449"/>
<path d="M48 30H45V33H48V30Z" fill="#2A1449"/>
<path d="M51 27H48V30H51V27Z" fill="#2A1449"/>
<path d="M54 24H51V27H54V24Z" fill="#2A1449"/>
<path d="M54 21H51V24H54V21Z" fill="#2A1449"/>
<path d="M42 18H39V21H42V18Z" fill="#2A1449"/>
<path d="M33 3H30V6H33V3Z" fill="#2A1449"/>
<path d="M33 6H30V9H33V6Z" fill="#2A1449"/>
</svg>
