<svg width="30" height="30" viewBox="0 0 30 30" fill="none" xmlns="http://www.w3.org/2000/svg">
<path d="M15.0026 0H13.3359V1.66667H15.0026V0Z" fill="#2A1449"/>
<path d="M15.0026 1.66663H13.3359V3.33329H15.0026V1.66663Z" fill="#FFAF35"/>
<path d="M15.0026 8.33337H13.3359V10H15.0026V8.33337Z" fill="#FFAF35"/>
<path d="M15.0026 15H13.3359V16.6667H15.0026V15Z" fill="#FFAF35"/>
<path d="M16.6667 1.66663H15V3.33329H16.6667V1.66663Z" fill="#FFAF35"/>
<path d="M16.6667 8.33337H15V10H16.6667V8.33337Z" fill="#FFAF35"/>
<path d="M16.6667 15H15V16.6667H16.6667V15Z" fill="#FFAF35"/>
<path d="M16.6667 3.33337H15V5.00004H16.6667V3.33337Z" fill="#FFAF35"/>
<path d="M16.6667 10H15V11.6667H16.6667V10Z" fill="#FFAF35"/>
<path d="M16.6667 16.6666H15V18.3333H16.6667V16.6666Z" fill="#FFAF35"/>
<path d="M15.0026 3.33337H13.3359V5.00004H15.0026V3.33337Z" fill="#FFAF35"/>
<path d="M15.0026 10H13.3359V11.6667H15.0026V10Z" fill="#FFAF35"/>
<path d="M15.0026 16.6666H13.3359V18.3333H15.0026V16.6666Z" fill="#FFAF35"/>
<path d="M15.0026 5H13.3359V6.66667H15.0026V5Z" fill="#FFAF35"/>
<path d="M15.0026 11.6666H13.3359V13.3333H15.0026V11.6666Z" fill="#FFAF35"/>
<path d="M15.0026 18.3334H13.3359V20H15.0026V18.3334Z" fill="#FFAF35"/>
<path d="M13.3307 15H11.6641V16.6667H13.3307V15Z" fill="#FFAF35"/>
<path d="M20.0026 15H18.3359V16.6667H20.0026V15Z" fill="#FFAF35"/>
<path d="M20.0026 8.33337H18.3359V10H20.0026V8.33337Z" fill="#FFAF35"/>
<path d="M13.3307 8.33337H11.6641V10H13.3307V8.33337Z" fill="#FFAF35"/>
<path d="M21.6667 11.6666H20V13.3333H21.6667V11.6666Z" fill="#FFAF35"/>
<path d="M11.6667 11.6666H10V13.3333H11.6667V11.6666Z" fill="#FFAF35"/>
<path d="M8.33073 11.6666H6.66406V13.3333H8.33073V11.6666Z" fill="#FFAF35"/>
<path d="M5.0026 11.6666H3.33594V13.3333H5.0026V11.6666Z" fill="#FFAF35"/>
<path d="M28.3307 11.6666H26.6641V13.3333H28.3307V11.6666Z" fill="#FFAF35"/>
<path d="M25.0026 11.6666H23.3359V13.3333H25.0026V11.6666Z" fill="#FFAF35"/>
<path d="M26.6667 25H25V26.6667H26.6667V25Z" fill="#FFAF35"/>
<path d="M25.0026 21.6666H23.3359V23.3333H25.0026V21.6666Z" fill="#FFAF35"/>
<path d="M21.6667 23.3334H20V25H21.6667V23.3334Z" fill="#FFAF35"/>
<path d="M21.6667 18.3334H20V20H21.6667V18.3334Z" fill="#FFAF35"/>
<path d="M23.3307 15H21.6641V16.6667H23.3307V15Z" fill="#FFAF35"/>
<path d="M11.6667 18.3334H10V20H11.6667V18.3334Z" fill="#FFAF35"/>
<path d="M10.0026 15H8.33594V16.6667H10.0026V15Z" fill="#FFAF35"/>
<path d="M11.6667 23.3334H10V25H11.6667V23.3334Z" fill="#FFAF35"/>
<path d="M6.66667 25H5V26.6667H6.66667V25Z" fill="#FFAF35"/>
<path d="M8.33073 21.6666H6.66406V23.3333H8.33073V21.6666Z" fill="#FFAF35"/>
<path d="M13.3307 5H11.6641V6.66667H13.3307V5Z" fill="#FFAF35"/>
<path d="M13.3307 11.6666H11.6641V13.3333H13.3307V11.6666Z" fill="#FFAF35"/>
<path d="M13.3307 18.3334H11.6641V20H13.3307V18.3334Z" fill="#FFAF35"/>
<path d="M11.6667 15H10V16.6667H11.6667V15Z" fill="#FFAF35"/>
<path d="M18.3307 15H16.6641V16.6667H18.3307V15Z" fill="#FFAF35"/>
<path d="M18.3307 8.33337H16.6641V10H18.3307V8.33337Z" fill="#FFAF35"/>
<path d="M11.6667 8.33337H10V10H11.6667V8.33337Z" fill="#FFAF35"/>
<path d="M20.0026 11.6666H18.3359V13.3333H20.0026V11.6666Z" fill="#FFAF35"/>
<path d="M10.0026 11.6666H8.33594V13.3333H10.0026V11.6666Z" fill="#FFAF35"/>
<path d="M6.66667 11.6666H5V13.3333H6.66667V11.6666Z" fill="#FFAF35"/>
<path d="M3.33073 11.6666H1.66406V13.3333H3.33073V11.6666Z" fill="#FFAF35"/>
<path d="M26.6667 11.6666H25V13.3333H26.6667V11.6666Z" fill="#FFAF35"/>
<path d="M23.3307 11.6666H21.6641V13.3333H23.3307V11.6666Z" fill="#FFAF35"/>
<path d="M25.0026 25H23.3359V26.6667H25.0026V25Z" fill="#FFAF35"/>
<path d="M23.3307 21.6666H21.6641V23.3333H23.3307V21.6666Z" fill="#FFAF35"/>
<path d="M20.0026 23.3334H18.3359V25H20.0026V23.3334Z" fill="#FFAF35"/>
<path d="M20.0026 18.3334H18.3359V20H20.0026V18.3334Z" fill="#FFAF35"/>
<path d="M21.6667 15H20V16.6667H21.6667V15Z" fill="#FFAF35"/>
<path d="M10.0026 18.3334H8.33594V20H10.0026V18.3334Z" fill="#FFAF35"/>
<path d="M8.33073 18.3334H6.66406V20H8.33073V18.3334Z" fill="#FFAF35"/>
<path d="M6.66667 15H5V16.6667H6.66667V15Z" fill="#FFAF35"/>
<path d="M25.0026 15H23.3359V16.6667H25.0026V15Z" fill="#FFAF35"/>
<path d="M23.3307 18.3334H21.6641V20H23.3307V18.3334Z" fill="#FFAF35"/>
<path d="M23.3307 25H21.6641V26.6667H23.3307V25Z" fill="#FFAF35"/>
<path d="M8.33073 25H6.66406V26.6667H8.33073V25Z" fill="#FFAF35"/>
<path d="M13.3307 21.6666H11.6641V23.3333H13.3307V21.6666Z" fill="#FFAF35"/>
<path d="M18.3307 21.6666H16.6641V23.3333H18.3307V21.6666Z" fill="#FFAF35"/>
<path d="M8.33073 15H6.66406V16.6667H8.33073V15Z" fill="#FFAF35"/>
<path d="M10.0026 23.3334H8.33594V25H10.0026V23.3334Z" fill="#FFAF35"/>
<path d="M5.0026 25H3.33594V26.6667H5.0026V25Z" fill="#FFAF35"/>
<path d="M6.66667 21.6666H5V23.3333H6.66667V21.6666Z" fill="#FFAF35"/>
<path d="M16.6667 5H15V6.66667H16.6667V5Z" fill="#FFAF35"/>
<path d="M16.6667 11.6666H15V13.3333H16.6667V11.6666Z" fill="#FFAF35"/>
<path d="M16.6667 18.3334H15V20H16.6667V18.3334Z" fill="#FFAF35"/>
<path d="M18.3307 5H16.6641V6.66667H18.3307V5Z" fill="#FFAF35"/>
<path d="M18.3307 11.6666H16.6641V13.3333H18.3307V11.6666Z" fill="#FFAF35"/>
<path d="M18.3307 18.3334H16.6641V20H18.3307V18.3334Z" fill="#FFAF35"/>
<path d="M18.3307 6.66663H16.6641V8.33329H18.3307V6.66663Z" fill="#FFAF35"/>
<path d="M18.3307 13.3334H16.6641V15H18.3307V13.3334Z" fill="#FFAF35"/>
<path d="M18.3307 20H16.6641V21.6667H18.3307V20Z" fill="#FFAF35"/>
<path d="M16.6667 6.66663H15V8.33329H16.6667V6.66663Z" fill="#FFAF35"/>
<path d="M16.6667 13.3334H15V15H16.6667V13.3334Z" fill="#FFAF35"/>
<path d="M16.6667 20H15V21.6667H16.6667V20Z" fill="#FFAF35"/>
<path d="M15.0026 6.66663H13.3359V8.33329H15.0026V6.66663Z" fill="#FFAF35"/>
<path d="M15.0026 13.3334H13.3359V15H15.0026V13.3334Z" fill="#FFAF35"/>
<path d="M15.0026 20H13.3359V21.6667H15.0026V20Z" fill="#FFAF35"/>
<path d="M13.3307 16.6666H11.6641V18.3333H13.3307V16.6666Z" fill="#FFAF35"/>
<path d="M20.0026 16.6666H18.3359V18.3333H20.0026V16.6666Z" fill="#FFAF35"/>
<path d="M20.0026 10H18.3359V11.6667H20.0026V10Z" fill="#FFAF35"/>
<path d="M21.6667 10H20V11.6667H21.6667V10Z" fill="#FFAF35"/>
<path d="M26.6667 15H25V16.6667H26.6667V15Z" fill="#FFAF35"/>
<path d="M10.0026 10H8.33594V11.6667H10.0026V10Z" fill="#FFAF35"/>
<path d="M5.0026 15H3.33594V16.6667H5.0026V15Z" fill="#FFAF35"/>
<path d="M13.3307 10H11.6641V11.6667H13.3307V10Z" fill="#FFAF35"/>
<path d="M21.6667 13.3334H20V15H21.6667V13.3334Z" fill="#FFAF35"/>
<path d="M11.6667 13.3334H10V15H11.6667V13.3334Z" fill="#FFAF35"/>
<path d="M8.33073 13.3334H6.66406V15H8.33073V13.3334Z" fill="#FFAF35"/>
<path d="M5.0026 13.3334H3.33594V15H5.0026V13.3334Z" fill="#FFAF35"/>
<path d="M28.3307 13.3334H26.6641V15H28.3307V13.3334Z" fill="#FFAF35"/>
<path d="M25.0026 13.3334H23.3359V15H25.0026V13.3334Z" fill="#FFAF35"/>
<path d="M26.6667 26.6666H25V28.3333H26.6667V26.6666Z" fill="#FFAF35"/>
<path d="M25.0026 23.3334H23.3359V25H25.0026V23.3334Z" fill="#FFAF35"/>
<path d="M21.6667 25H20V26.6667H21.6667V25Z" fill="#FFAF35"/>
<path d="M21.6667 20H20V21.6667H21.6667V20Z" fill="#FFAF35"/>
<path d="M23.3307 16.6666H21.6641V18.3333H23.3307V16.6666Z" fill="#FFAF35"/>
<path d="M11.6667 20H10V21.6667H11.6667V20Z" fill="#FFAF35"/>
<path d="M11.6667 21.6666H10V23.3333H11.6667V21.6666Z" fill="#FFAF35"/>
<path d="M16.6667 21.6666H15V23.3333H16.6667V21.6666Z" fill="#FFAF35"/>
<path d="M21.6667 21.6666H20V23.3333H21.6667V21.6666Z" fill="#FFAF35"/>
<path d="M10.0026 16.6666H8.33594V18.3333H10.0026V16.6666Z" fill="#FFAF35"/>
<path d="M11.6667 25H10V26.6667H11.6667V25Z" fill="#FFAF35"/>
<path d="M6.66667 26.6666H5V28.3333H6.66667V26.6666Z" fill="#FFAF35"/>
<path d="M8.33073 23.3334H6.66406V25H8.33073V23.3334Z" fill="#FFAF35"/>
<path d="M13.3307 6.66663H11.6641V8.33329H13.3307V6.66663Z" fill="#FFAF35"/>
<path d="M13.3307 13.3334H11.6641V15H13.3307V13.3334Z" fill="#FFAF35"/>
<path d="M13.3307 20H11.6641V21.6667H13.3307V20Z" fill="#FFAF35"/>
<path d="M11.6667 16.6666H10V18.3333H11.6667V16.6666Z" fill="#FFAF35"/>
<path d="M18.3307 16.6666H16.6641V18.3333H18.3307V16.6666Z" fill="#FFAF35"/>
<path d="M18.3307 10H16.6641V11.6667H18.3307V10Z" fill="#FFAF35"/>
<path d="M11.6667 10H10V11.6667H11.6667V10Z" fill="#FFAF35"/>
<path d="M20.0026 13.3334H18.3359V15H20.0026V13.3334Z" fill="#FFAF35"/>
<path d="M10.0026 13.3334H8.33594V15H10.0026V13.3334Z" fill="#FFAF35"/>
<path d="M6.66667 13.3334H5V15H6.66667V13.3334Z" fill="#FFAF35"/>
<path d="M3.33073 13.3334H1.66406V15H3.33073V13.3334Z" fill="#FFAF35"/>
<path d="M26.6667 13.3334H25V15H26.6667V13.3334Z" fill="#FFAF35"/>
<path d="M23.3307 13.3334H21.6641V15H23.3307V13.3334Z" fill="#FFAF35"/>
<path d="M25.0026 26.6666H23.3359V28.3333H25.0026V26.6666Z" fill="#FFAF35"/>
<path d="M23.3307 23.3334H21.6641V25H23.3307V23.3334Z" fill="#FFAF35"/>
<path d="M20.0026 25H18.3359V26.6667H20.0026V25Z" fill="#FFAF35"/>
<path d="M20.0026 20H18.3359V21.6667H20.0026V20Z" fill="#FFAF35"/>
<path d="M21.6667 16.6666H20V18.3333H21.6667V16.6666Z" fill="#FFAF35"/>
<path d="M10.0026 20H8.33594V21.6667H10.0026V20Z" fill="#FFAF35"/>
<path d="M10.0026 21.6666H8.33594V23.3333H10.0026V21.6666Z" fill="#FFAF35"/>
<path d="M15.0026 21.6666H13.3359V23.3333H15.0026V21.6666Z" fill="#FFAF35"/>
<path d="M20.0026 21.6666H18.3359V23.3333H20.0026V21.6666Z" fill="#FFAF35"/>
<path d="M8.33073 20H6.66406V21.6667H8.33073V20Z" fill="#FFAF35"/>
<path d="M6.66667 16.6666H5V18.3333H6.66667V16.6666Z" fill="#FFAF35"/>
<path d="M25.0026 16.6666H23.3359V18.3333H25.0026V16.6666Z" fill="#FFAF35"/>
<path d="M23.3307 20H21.6641V21.6667H23.3307V20Z" fill="#FFAF35"/>
<path d="M23.3307 26.6666H21.6641V28.3333H23.3307V26.6666Z" fill="#FFAF35"/>
<path d="M8.33073 26.6666H6.66406V28.3333H8.33073V26.6666Z" fill="#FFAF35"/>
<path d="M13.3307 23.3334H11.6641V25H13.3307V23.3334Z" fill="#FFAF35"/>
<path d="M18.3307 23.3334H16.6641V25H18.3307V23.3334Z" fill="#FFAF35"/>
<path d="M8.33073 16.6666H6.66406V18.3333H8.33073V16.6666Z" fill="#FFAF35"/>
<path d="M10.0026 25H8.33594V26.6667H10.0026V25Z" fill="#FFAF35"/>
<path d="M5.0026 26.6666H3.33594V28.3333H5.0026V26.6666Z" fill="#FFAF35"/>
<path d="M6.66667 23.3334H5V25H6.66667V23.3334Z" fill="#FFAF35"/>
<path d="M16.6667 0H15V1.66667H16.6667V0Z" fill="#2A1449"/>
<path d="M13.3307 1.66663H11.6641V3.33329H13.3307V1.66663Z" fill="#2A1449"/>
<path d="M13.3307 3.33337H11.6641V5.00004H13.3307V3.33337Z" fill="#2A1449"/>
<path d="M11.6667 5H10V6.66667H11.6667V5Z" fill="#2A1449"/>
<path d="M20.0026 5H18.3359V6.66667H20.0026V5Z" fill="#2A1449"/>
<path d="M11.6667 6.66663H10V8.33329H11.6667V6.66663Z" fill="#2A1449"/>
<path d="M20.0026 6.66663H18.3359V8.33329H20.0026V6.66663Z" fill="#2A1449"/>
<path d="M10.0026 8.33337H8.33594V10H10.0026V8.33337Z" fill="#2A1449"/>
<path d="M21.6667 8.33337H20V10H21.6667V8.33337Z" fill="#2A1449"/>
<path d="M8.33073 10H6.66406V11.6667H8.33073V10Z" fill="#2A1449"/>
<path d="M28.3307 10H26.6641V11.6667H28.3307V10Z" fill="#2A1449"/>
<path d="M5.0026 10H3.33594V11.6667H5.0026V10Z" fill="#2A1449"/>
<path d="M25.0026 10H23.3359V11.6667H25.0026V10Z" fill="#2A1449"/>
<path d="M6.66667 10H5V11.6667H6.66667V10Z" fill="#2A1449"/>
<path d="M26.6667 10H25V11.6667H26.6667V10Z" fill="#2A1449"/>
<path d="M3.33073 10H1.66406V11.6667H3.33073V10Z" fill="#2A1449"/>
<path d="M1.66667 11.6666H0V13.3333H1.66667V11.6666Z" fill="#2A1449"/>
<path d="M1.66667 13.3334H0V15H1.66667V13.3334Z" fill="#2A1449"/>
<path d="M3.33073 15H1.66406V16.6667H3.33073V15Z" fill="#2A1449"/>
<path d="M5.0026 16.6666H3.33594V18.3333H5.0026V16.6666Z" fill="#2A1449"/>
<path d="M6.66667 18.3334H5V20H6.66667V18.3334Z" fill="#2A1449"/>
<path d="M6.66667 20H5V21.6667H6.66667V20Z" fill="#2A1449"/>
<path d="M5.0026 21.6666H3.33594V23.3333H5.0026V21.6666Z" fill="#2A1449"/>
<path d="M5.0026 23.3334H3.33594V25H5.0026V23.3334Z" fill="#2A1449"/>
<path d="M3.33073 25H1.66406V26.6667H3.33073V25Z" fill="#2A1449"/>
<path d="M3.33073 26.6666H1.66406V28.3333H3.33073V26.6666Z" fill="#2A1449"/>
<path d="M5.0026 28.3334H3.33594V30H5.0026V28.3334Z" fill="#2A1449"/>
<path d="M6.66667 28.3334H5V30H6.66667V28.3334Z" fill="#2A1449"/>
<path d="M8.33073 28.3334H6.66406V30H8.33073V28.3334Z" fill="#2A1449"/>
<path d="M10.0026 26.6666H8.33594V28.3333H10.0026V26.6666Z" fill="#2A1449"/>
<path d="M11.6667 26.6666H10V28.3333H11.6667V26.6666Z" fill="#2A1449"/>
<path d="M13.3307 25H11.6641V26.6667H13.3307V25Z" fill="#2A1449"/>
<path d="M15.0026 23.3334H13.3359V25H15.0026V23.3334Z" fill="#2A1449"/>
<path d="M16.6667 23.3334H15V25H16.6667V23.3334Z" fill="#2A1449"/>
<path d="M18.3307 25H16.6641V26.6667H18.3307V25Z" fill="#2A1449"/>
<path d="M20.0026 26.6666H18.3359V28.3333H20.0026V26.6666Z" fill="#2A1449"/>
<path d="M21.6667 26.6666H20V28.3333H21.6667V26.6666Z" fill="#2A1449"/>
<path d="M23.3307 28.3334H21.6641V30H23.3307V28.3334Z" fill="#2A1449"/>
<path d="M25.0026 28.3334H23.3359V30H25.0026V28.3334Z" fill="#2A1449"/>
<path d="M26.6667 28.3334H25V30H26.6667V28.3334Z" fill="#2A1449"/>
<path d="M28.3307 26.6666H26.6641V28.3333H28.3307V26.6666Z" fill="#2A1449"/>
<path d="M28.3307 25H26.6641V26.6667H28.3307V25Z" fill="#2A1449"/>
<path d="M26.6667 23.3334H25V25H26.6667V23.3334Z" fill="#2A1449"/>
<path d="M26.6667 21.6666H25V23.3333H26.6667V21.6666Z" fill="#2A1449"/>
<path d="M25.0026 20H23.3359V21.6667H25.0026V20Z" fill="#2A1449"/>
<path d="M25.0026 18.3334H23.3359V20H25.0026V18.3334Z" fill="#2A1449"/>
<path d="M26.6667 16.6666H25V18.3333H26.6667V16.6666Z" fill="#2A1449"/>
<path d="M28.3307 15H26.6641V16.6667H28.3307V15Z" fill="#2A1449"/>
<path d="M30.0026 13.3334H28.3359V15H30.0026V13.3334Z" fill="#2A1449"/>
<path d="M30.0026 11.6666H28.3359V13.3333H30.0026V11.6666Z" fill="#2A1449"/>
<path d="M23.3307 10H21.6641V11.6667H23.3307V10Z" fill="#2A1449"/>
<path d="M18.3307 1.66663H16.6641V3.33329H18.3307V1.66663Z" fill="#2A1449"/>
<path d="M18.3307 3.33337H16.6641V5.00004H18.3307V3.33337Z" fill="#2A1449"/>
</svg>
