<svg width="211" height="59" viewBox="0 0 211 59" fill="none" xmlns="http://www.w3.org/2000/svg">
<rect x="14" y="14" width="195" height="35" fill="black" stroke="black" stroke-width="4"/>
<rect x="17.0234" y="10" width="188.947" height="43" fill="black" stroke="black" stroke-width="4"/>
<rect x="20.0547" y="6" width="182.894" height="51" fill="black" stroke="black" stroke-width="4"/>
<rect x="15.0234" y="12" width="192.947" height="39" fill="black"/>
<rect x="18.0547" y="8" width="186.894" height="47" fill="black"/>
<rect x="2" y="10" width="201" height="35" fill="#FDF2E5" stroke="black" stroke-width="4"/>
<rect x="5.11719" y="6" width="194.764" height="43" fill="#FDF2E5" stroke="black" stroke-width="4"/>
<rect x="8.23438" y="2" width="188.529" height="51" fill="#FDF2E5" stroke="black" stroke-width="4"/>
<rect x="3.11719" y="8" width="198.764" height="39" fill="#FDF2E5"/>
<rect x="6.23438" y="4" width="192.529" height="47" fill="#FDF2E5"/>
<path d="M73.4823 31.32C73.4823 31.784 73.3143 32.184 72.9783 32.52C72.6583 32.84 72.2663 33 71.8023 33H65.0823V31.32H71.5623V27.96H66.7623C66.2983 27.96 65.8983 27.8 65.5623 27.48C65.2423 27.144 65.0823 26.744 65.0823 26.28V22.92C65.0823 22.456 65.2423 22.064 65.5623 21.744C65.8983 21.408 66.2983 21.24 66.7623 21.24H73.4823V22.92H67.0023V26.28H71.8023C72.2663 26.28 72.6583 26.448 72.9783 26.784C73.3143 27.104 73.4823 27.496 73.4823 27.96V31.32ZM84.998 33H78.278C77.814 33 77.414 32.84 77.078 32.52C76.758 32.184 76.598 31.784 76.598 31.32V26.28C76.598 25.816 76.758 25.424 77.078 25.104C77.414 24.768 77.814 24.6 78.278 24.6H83.318C83.782 24.6 84.174 24.768 84.494 25.104C84.83 25.424 84.998 25.816 84.998 26.28V27.96L83.318 29.64H78.518L79.958 28.2H83.318V26.04H78.278V31.56H84.998V33ZM95.787 33H94.107V26.04H89.067V33H87.387V24.6H89.067V25.8L90.267 24.6H94.107C94.571 24.6 94.963 24.768 95.283 25.104C95.619 25.424 95.787 25.816 95.787 26.28V33ZM107.303 33H105.623V31.8L104.423 33H100.583C100.119 33 99.7187 32.84 99.3827 32.52C99.0627 32.184 98.9027 31.784 98.9027 31.32V26.28C98.9027 25.816 99.0627 25.424 99.3827 25.104C99.7187 24.768 100.119 24.6 100.583 24.6H105.623V20.76L107.303 19.08V33ZM105.623 31.56V24.84L104.423 26.04H100.583V31.56H105.623ZM116.887 23.16H115.207V21.24H116.887V23.16ZM116.887 33H115.207V25.8L116.887 24.12V33ZM128.396 33H126.716V26.04H121.676V33H119.996V24.6H121.676V25.8L122.876 24.6H126.716C127.18 24.6 127.572 24.768 127.892 25.104C128.228 25.424 128.396 25.816 128.396 26.28V33ZM139.912 33H138.232V26.04H133.192V33H131.512V24.6H133.192V25.8L134.392 24.6H138.232C138.696 24.6 139.088 24.768 139.408 25.104C139.744 25.424 139.912 25.816 139.912 26.28V33Z" fill="black"/>
</svg>
