<svg width="269" height="59" viewBox="0 0 269 59" fill="none" xmlns="http://www.w3.org/2000/svg">
<rect x="8" y="14" width="259" height="35" fill="black" stroke="black" stroke-width="4"/>
<rect x="12" y="10" width="251" height="43" fill="black" stroke="black" stroke-width="4"/>
<rect x="16" y="6" width="243" height="51" fill="black" stroke="black" stroke-width="4"/>
<rect x="10" y="12" width="255" height="39" fill="black"/>
<rect x="14" y="8" width="247" height="47" fill="black"/>
<rect x="2" y="10" width="259" height="35" fill="#FFAF35" stroke="black" stroke-width="4"/>
<rect x="6" y="6" width="251" height="43" fill="#FFAF35" stroke="black" stroke-width="4"/>
<rect x="10" y="2" width="243" height="51" fill="#FFAF35" stroke="black" stroke-width="4"/>
<rect x="4" y="8" width="255" height="39" fill="#FFAF35"/>
<rect x="8" y="4" width="247" height="47" fill="#FFAF35"/>
<path d="M96.9823 31.32C96.9823 31.784 96.8143 32.184 96.4783 32.52C96.1583 32.84 95.7663 33 95.3023 33H88.5823V31.32H95.0623V27.96H90.2623C89.7983 27.96 89.3983 27.8 89.0623 27.48C88.7423 27.144 88.5823 26.744 88.5823 26.28V22.92C88.5823 22.456 88.7423 22.064 89.0623 21.744C89.3983 21.408 89.7983 21.24 90.2623 21.24H96.9823V22.92H90.5023V26.28H95.3023C95.7663 26.28 96.1583 26.448 96.4783 26.784C96.8143 27.104 96.9823 27.496 96.9823 27.96V31.32ZM108.498 33H101.778C101.314 33 100.914 32.84 100.578 32.52C100.258 32.184 100.098 31.784 100.098 31.32V26.28C100.098 25.816 100.258 25.424 100.578 25.104C100.914 24.768 101.314 24.6 101.778 24.6H106.818C107.282 24.6 107.674 24.768 107.994 25.104C108.33 25.424 108.498 25.816 108.498 26.28V27.96L106.818 29.64H102.018L103.458 28.2H106.818V26.04H101.778V31.56H108.498V33ZM119.287 33H117.607V26.04H112.567V33H110.887V24.6H112.567V25.8L113.767 24.6H117.607C118.071 24.6 118.463 24.768 118.783 25.104C119.119 25.424 119.287 25.816 119.287 26.28V33ZM130.803 33H129.123V31.8L127.923 33H124.083C123.619 33 123.219 32.84 122.883 32.52C122.563 32.184 122.403 31.784 122.403 31.32V26.28C122.403 25.816 122.563 25.424 122.883 25.104C123.219 24.768 123.619 24.6 124.083 24.6H129.123V20.76L130.803 19.08V33ZM129.123 31.56V24.84L127.923 26.04H124.083V31.56H129.123ZM140.387 23.16H138.707V21.24H140.387V23.16ZM140.387 33H138.707V25.8L140.387 24.12V33ZM151.896 33H150.216V26.04H145.176V33H143.496V24.6H145.176V25.8L146.376 24.6H150.216C150.68 24.6 151.072 24.768 151.392 25.104C151.728 25.424 151.896 25.816 151.896 26.28V33ZM163.412 33H161.732V26.04H156.692V33H155.012V24.6H156.692V25.8L157.892 24.6H161.732C162.196 24.6 162.588 24.768 162.908 25.104C163.244 25.424 163.412 25.816 163.412 26.28V33Z" fill="black"/>
</svg>
