<svg width="180" height="23" viewBox="0 0 180 23" fill="none" xmlns="http://www.w3.org/2000/svg">
<path d="M97.4092 18.4554C97.2655 18.5508 97.0739 18.6461 96.9303 18.7415L96.8824 18.7892H96.9303C100.139 19.6476 103.3 19.6476 103.922 17.6447C104.689 15.0695 99.6121 12.3513 97.2176 11.016C96.6908 10.7299 96.4993 10.9207 96.7866 11.3022C98.3191 13.0189 100.474 16.4525 97.4092 18.4554Z" fill="white"/>
<path d="M124.992 7.20108H122.311V4.95974H124.992V1.62157H127.626V4.95974H131.937V7.20108H127.626V13.9728C127.626 15.6419 128.105 16.5479 130.26 16.5479C131.075 16.5479 132.032 16.3095 132.032 16.3095V18.6462C131.122 18.7893 130.452 18.837 129.446 18.837C125.328 18.837 124.992 15.8803 124.992 14.2589V7.20108Z" fill="white"/>
<path d="M162.348 4.95972H159.666V18.8846H162.348V4.95972Z" fill="white"/>
<path d="M167.089 11.8272C167.089 15.6422 170.25 16.5483 171.734 16.5483C174.56 16.5483 176.571 14.9269 176.571 11.7318C176.571 8.5367 174.273 7.05837 171.687 7.05837C170.202 7.10606 167.089 7.96444 167.089 11.8272ZM164.359 11.7795C164.359 6.5338 168.622 4.76934 171.591 4.76934C174.943 4.76934 176.571 6.67686 176.571 6.67686L176.715 4.96009H179.157V18.9327H176.715L176.571 17.0729C176.571 17.0729 174.895 18.9327 171.543 18.9327C168.191 18.9327 164.359 16.9775 164.359 11.7795Z" fill="white"/>
<path d="M162.781 1.76437C162.781 0.810606 162.015 -9.15527e-05 161.009 -9.15527e-05C160.051 -9.15527e-05 159.237 0.762918 159.237 1.76437C159.237 2.71813 160.003 3.52883 161.009 3.52883C161.967 3.48114 162.781 2.71813 162.781 1.76437Z" fill="white"/>
<path d="M157.703 7.34372V5.00701C155.069 4.76857 153.201 5.38851 151.765 6.91453L151.621 5.00701H149.083V18.9319H151.765V11.6833C151.765 9.68044 153.393 7.10528 157.703 7.34372Z" fill="white"/>
<path d="M132.512 11.8262C132.512 7.48662 135.769 4.67302 140.079 4.67302C144.389 4.67302 147.31 7.82043 147.31 11.5878C147.31 11.5878 147.31 12.1601 147.262 12.7323L135.29 12.78C135.386 14.926 137.876 16.5474 140.462 16.5474C143.24 16.5474 144.868 14.8306 144.868 14.8306L146.784 16.4997C144.82 18.3595 142.713 18.9318 140.462 18.9318C135.721 18.9318 132.512 16.1659 132.512 11.9216V11.8262ZM144.389 10.634C144.389 8.72651 142.473 7.1528 140.127 7.1528C137.589 7.1528 135.529 8.67882 135.338 10.634H144.389Z" fill="white"/>
<path d="M116.564 10.5873C113.882 10.1104 111.201 9.77659 111.201 8.5367C111.201 7.726 112.015 7.01068 114.361 7.01068C116.133 7.01068 118.145 7.39219 118.671 8.63208L121.162 7.58294C120.204 5.67541 117.378 4.76934 114.17 4.76934C111.344 4.76934 108.327 5.81848 108.327 8.67976C108.327 11.1595 110.578 11.9226 114.313 12.5902C116.804 13.0671 119.102 13.3055 119.102 14.6408C119.102 15.4992 118.001 16.5483 115.175 16.5483C113.164 16.5483 111.153 16.1191 110.53 14.7361L108.136 15.7376C109.141 17.9313 111.727 19.0758 114.792 19.0758C120.874 19.0758 122.024 16.2145 122.024 14.5931C121.976 11.8749 119.246 11.0642 116.564 10.5873Z" fill="white"/>
<path d="M39.4614 7.10606C36.8753 7.10606 34.5765 8.58439 34.5765 11.7795C34.5765 14.9746 36.5879 16.596 39.4135 16.596C40.8981 16.596 44.0588 15.976 44.0588 11.8749C44.0588 7.67832 40.946 7.10606 39.4614 7.10606ZM39.605 18.9327C36.2527 18.9327 34.5765 16.8344 34.5765 16.8344V22.7001H31.9904V4.96009H34.4329L34.5765 6.67686C34.5765 6.67686 36.2048 4.76934 39.5571 4.76934C42.5263 4.76934 46.7886 6.24767 46.7886 11.7795C46.7886 17.3113 42.9574 18.9327 39.605 18.9327Z" fill="white"/>
<path d="M59.5759 11.8272C59.5759 15.6422 62.7367 16.5483 64.2213 16.5483C67.0468 16.5483 69.0582 14.9269 69.0582 11.7318C69.0582 8.5367 66.7595 7.05837 64.1734 7.05837C62.6888 7.10606 59.5759 7.96444 59.5759 11.8272ZM56.8462 11.7795C56.8462 6.5338 61.1084 4.76934 64.0776 4.76934C67.4299 4.76934 69.0582 6.67686 69.0582 6.67686L69.2019 4.96009H71.6443V18.9327H69.2019L69.0582 17.0729C69.0582 17.0729 67.382 18.9327 64.0297 18.9327C60.6774 18.9327 56.8462 16.9775 56.8462 11.7795Z" fill="white"/>
<path d="M57.0378 7.34372V5.00701C54.4039 4.76857 52.5361 5.38851 51.0994 6.91453L50.9558 5.00701H48.4176V18.9319H51.0994V11.6833C51.0994 9.68044 52.7277 7.10528 57.0378 7.34372Z" fill="white"/>
<path d="M8.47659 10.5873C5.79473 10.1104 3.11287 9.77659 3.11287 8.5367C3.11287 7.726 3.92701 7.01068 6.27364 7.01068C8.04558 7.01068 10.057 7.39219 10.5838 8.63208L13.0741 7.58294C12.1163 5.67541 9.29073 4.76934 6.08207 4.76934C3.25654 4.76934 0.239452 5.81848 0.239452 8.67976C0.239452 11.1595 2.4903 11.9226 6.22575 12.5902C8.71604 13.0671 11.0148 13.3055 11.0148 14.6408C11.0148 15.4992 9.86541 16.5483 7.08777 16.5483C5.07638 16.5483 3.06498 16.1191 2.44241 14.7361L0 15.7376C1.0057 17.9313 3.59178 19.0758 6.65676 19.0758C12.6909 19.0758 13.8882 16.2145 13.8882 14.5931C13.8882 11.8749 11.1585 11.0642 8.47659 10.5873Z" fill="white"/>
<path d="M22.7479 4.76934C19.1561 4.76934 14.9418 6.5338 14.9418 11.7795C14.9418 16.9775 18.773 18.9804 22.7479 18.9804C26.7707 18.9804 30.554 16.9775 30.554 11.7795C30.554 6.5338 26.3397 4.76934 22.7479 4.76934ZM22.7479 16.5483C20.5449 16.5483 17.6715 15.5945 17.6715 11.8272C17.6715 7.96444 20.8802 7.20143 22.7479 7.20143C24.6156 7.20143 27.8243 7.96444 27.8243 11.8272C27.8722 15.6422 24.9509 16.5483 22.7479 16.5483Z" fill="white"/>
<path d="M96.8829 18.7886C96.8829 18.7886 92.8601 21.316 85.7723 21.316C83.0426 21.316 80.6959 20.8868 79.7381 19.9331C78.6845 18.9316 78.1577 17.2149 78.1577 15.6412C78.1577 14.3059 78.7324 13.1614 79.8818 13.1614C82.8031 13.2091 92.1418 17.9302 96.8829 18.7886Z" fill="white"/>
<path d="M83.4737 4.19634C83.6174 4.10096 83.8089 4.00558 83.9526 3.91021L84.0005 3.86252H83.9526C80.7439 3.00414 77.5832 3.00414 76.9606 5.00703C76.1943 7.58219 81.2707 10.3004 83.6652 11.6357C84.192 11.9218 84.3836 11.7311 84.0963 11.3495C82.5638 9.63278 80.4087 6.19924 83.4737 4.19634Z" fill="white"/>
<path d="M83.9984 3.86196C83.9984 3.86196 88.0212 1.33449 95.109 1.33449C97.8388 1.33449 100.185 1.76368 101.143 2.71744C102.197 3.71889 102.724 5.43566 102.724 7.00937C102.724 8.34464 102.149 9.48915 101 9.48915C98.0303 9.48915 88.6917 4.72034 83.9984 3.86196Z" fill="white"/>
</svg>
