<svg width="292" height="280" viewBox="0 0 292 280" fill="none" xmlns="http://www.w3.org/2000/svg">
<path d="M43.1497 53.4741H32.3627V64.2611H43.1497V53.4741Z" fill="#704B22"/>
<path d="M53.9367 53.4741H43.1497V64.2611H53.9367V53.4741Z" fill="#704B22"/>
<path d="M64.7237 64.2612L53.9367 64.2611L53.9368 75.0481H64.7237V64.2612Z" fill="#704B22"/>
<path d="M75.5108 64.2612H64.7237V75.0481H75.5108V64.2612Z" fill="#704B22"/>
<path d="M86.2978 75.0482L75.5108 75.0481L75.5108 85.8351H86.2978V75.0482Z" fill="#704B22"/>
<path d="M86.2978 85.8351H75.5108V96.6217H86.2978V85.8351Z" fill="#704B22"/>
<path d="M64.7237 236.852H53.9368V247.639H64.7237V236.852Z" fill="#704B22"/>
<path d="M75.5108 236.852H64.7237V247.639H75.5108V236.852Z" fill="#704B22"/>
<path d="M86.2978 236.852H75.5108V247.639H86.2978V236.852Z" fill="#704B22"/>
<path d="M118.657 139.769H107.87V150.556H118.657V139.769Z" fill="#704B22"/>
<path d="M32.3633 128.982H21.5763V139.769H32.3633V128.982Z" fill="#704B22"/>
<path d="M32.3633 139.769H21.5763V150.556H32.3633V139.769Z" fill="#704B22"/>
<path d="M43.1484 139.769H32.3615V150.556H43.1484V139.769Z" fill="#704B22"/>
<path d="M43.1484 150.556H32.3615V161.343H43.1484V150.556Z" fill="#704B22"/>
<path d="M53.9373 150.556H43.1504V161.343H53.9373V150.556Z" fill="#704B22"/>
<path d="M53.9373 161.343H43.1504V172.13H53.9373V161.343Z" fill="#704B22"/>
<path d="M64.7225 172.13H53.9355V182.917H64.7225V172.13Z" fill="#704B22"/>
<path d="M64.7225 182.917H53.9355V193.704H64.7225V182.917Z" fill="#704B22"/>
<path d="M53.9373 182.917H43.1504V193.704H53.9373V182.917Z" fill="#704B22"/>
<path d="M43.1484 182.917H32.3615V193.704H43.1484V182.917Z" fill="#704B22"/>
<path d="M32.3633 182.917H21.5763V193.704H32.3633V182.917Z" fill="#704B22"/>
<path d="M21.5744 182.917H10.7874V193.704H21.5744V182.917Z" fill="#704B22"/>
<path d="M32.3633 118.195H21.5763V128.982H32.3633V118.195Z" fill="#704B22"/>
<path d="M140.231 161.343H129.444V172.13H140.231V161.343Z" fill="#704B22"/>
<path d="M161.805 161.343H151.018V172.13H161.805V161.343Z" fill="#704B22"/>
<path d="M194.168 172.13H183.381V182.917H194.168V172.13Z" fill="#704B22"/>
<path d="M194.168 193.704H183.381V204.491H194.168V193.704Z" fill="#704B22"/>
<path d="M204.953 193.704H194.166V204.491H204.953V193.704Z" fill="#704B22"/>
<path d="M215.742 204.492H204.955V215.278H215.742V204.492Z" fill="#704B22"/>
<path d="M215.742 161.343H204.955V172.13H215.742V161.343Z" fill="#704B22"/>
<path d="M215.742 128.982H204.955V139.769H215.742V128.982Z" fill="#704B22"/>
<path d="M194.168 215.279H183.381V226.065H194.168V215.279Z" fill="#704B22"/>
<path d="M204.953 215.279H194.166V226.065H204.953V215.279Z" fill="#704B22"/>
<path d="M215.742 226.066H204.955V236.853H215.742V226.066Z" fill="#704B22"/>
<path d="M215.742 182.917H204.955V193.704H215.742V182.917Z" fill="#704B22"/>
<path d="M215.742 150.557H204.955V161.343H215.742V150.557Z" fill="#704B22"/>
<path d="M183.381 215.279H172.594V226.065H183.381V215.279Z" fill="#704B22"/>
<path d="M172.594 226.065L161.807 226.066V236.853H172.594L172.594 226.065Z" fill="#704B22"/>
<path d="M118.657 150.556H107.87V161.344H118.657V150.556Z" fill="#704B22"/>
<path d="M237.316 118.196H226.529V128.983H237.316V118.196Z" fill="#704B22"/>
<path d="M226.527 118.196H215.74V128.983H226.527V118.196Z" fill="#704B22"/>
<path d="M226.527 128.983H215.74V139.769H226.527V128.983Z" fill="#704B22"/>
<path d="M226.527 139.769H215.74V150.556H226.527V139.769Z" fill="#704B22"/>
<path d="M226.527 150.556H215.74V161.344H226.527V150.556Z" fill="#704B22"/>
<path d="M226.527 161.344H215.74V172.13H226.527V161.344Z" fill="#704B22"/>
<path d="M237.316 161.343H226.529V172.13H237.316V161.343Z" fill="#704B22"/>
<path d="M107.872 182.917H97.0849V193.704H107.872V182.917Z" fill="#704B22"/>
<path d="M97.0829 193.704H86.2959V204.491H97.0829V193.704Z" fill="#704B22"/>
<path d="M97.0829 226.066H86.2959V236.853H97.0829V226.066Z" fill="#704B22"/>
<path d="M107.872 226.066H97.0849V236.853H107.872V226.066Z" fill="#704B22"/>
<path d="M118.657 215.279H107.87V226.065H118.657V215.279Z" fill="#704B22"/>
<path d="M129.444 204.492H118.657L118.657 215.279L129.444 215.278V204.492Z" fill="#704B22"/>
<path d="M237.316 172.13H226.529V182.917H237.316V172.13Z" fill="#704B22"/>
<path d="M237.316 182.917H226.529V193.704H237.316V182.917Z" fill="#704B22"/>
<path d="M237.316 193.704H226.529V204.491H237.316V193.704Z" fill="#704B22"/>
<path d="M161.805 204.492H151.018V215.278H161.805V204.492Z" fill="#704B22"/>
<path d="M151.018 215.278L140.231 215.279V226.065H151.018L151.018 215.278Z" fill="#704B22"/>
<path d="M151.018 226.065H140.231V236.853H151.018V226.065Z" fill="#704B22"/>
<path d="M140.231 236.853L129.444 236.852V247.639H140.231L140.231 236.853Z" fill="#704B22"/>
<path d="M129.444 247.639L118.657 247.639V258.426H129.444L129.444 247.639Z" fill="#704B22"/>
<path d="M118.657 247.639H107.87V258.426H118.657V247.639Z" fill="#704B22"/>
<path d="M86.2978 204.492H75.5108V215.278H86.2978V204.492Z" fill="#704B22"/>
<path d="M75.5108 204.492H64.7238V215.278H75.5108V204.492Z" fill="#704B22"/>
<path d="M64.7238 204.492H53.9368V215.278H64.7238V204.492Z" fill="#704B22"/>
<path d="M258.89 193.704H248.103V204.491H258.89V193.704Z" fill="#704B22"/>
<path d="M280.464 204.492H269.677V215.278H280.464V204.492Z" fill="#704B22"/>
<path d="M280.464 215.278H269.677V226.065H280.464V215.278Z" fill="#704B22"/>
<path d="M291.249 226.066H280.462V236.853H291.249V226.066Z" fill="#704B22"/>
<path d="M269.675 193.704H258.888V204.491H269.675V193.704Z" fill="#704B22"/>
<path d="M269.675 204.491H258.888V215.278H269.675V204.491Z" fill="#704B22"/>
<path d="M226.527 172.13H215.74V182.917H226.527V172.13Z" fill="#704B22"/>
<path d="M226.527 182.917H215.74V193.704H226.527V182.917Z" fill="#704B22"/>
<path d="M226.527 193.704H215.74V204.491H226.527V193.704Z" fill="#704B22"/>
<path d="M226.527 204.491H215.74V215.278H226.527V204.491Z" fill="#704B22"/>
<path d="M226.527 215.278H215.74V226.065H226.527V215.278Z" fill="#704B22"/>
<path d="M226.527 226.065H215.74V236.853H226.527V226.065Z" fill="#704B22"/>
<path d="M226.527 107.409H215.74V118.196H226.527V107.409Z" fill="#704B22"/>
<path d="M140.231 172.13H129.444V182.917H140.231V172.13Z" fill="#704B22"/>
<path d="M161.805 172.13H151.018V182.917H161.805V172.13Z" fill="#704B22"/>
<path d="M194.168 182.917H183.381V193.704H194.168V182.917Z" fill="#704B22"/>
<path d="M194.168 204.491H183.381V215.279H194.168V204.491Z" fill="#704B22"/>
<path d="M204.953 204.491H194.166V215.279H204.953V204.491Z" fill="#704B22"/>
<path d="M215.742 215.278H204.955V226.066H215.742V215.278Z" fill="#704B22"/>
<path d="M215.742 172.13H204.955V182.917H215.742V172.13Z" fill="#704B22"/>
<path d="M215.742 139.769H204.955V150.557H215.742V139.769Z" fill="#704B22"/>
<path d="M194.168 226.065H183.381V236.853H194.168V226.065Z" fill="#704B22"/>
<path d="M204.953 226.065H194.166V236.853H204.953V226.065Z" fill="#704B22"/>
<path d="M215.742 236.853H204.955V247.639H215.742V236.853Z" fill="#704B22"/>
<path d="M215.742 193.704H204.955V204.492H215.742V193.704Z" fill="#704B22"/>
<path d="M183.381 226.065H172.594L172.594 236.853H183.381V226.065Z" fill="#704B22"/>
<path d="M183.381 236.853H172.594L172.594 247.639H183.381L183.381 236.853Z" fill="#704B22"/>
<path d="M172.594 236.853H161.807V247.639H172.594L172.594 236.853Z" fill="#704B22"/>
<path d="M161.805 236.852L151.018 236.853L151.018 247.639H161.805V236.852Z" fill="#704B22"/>
<path d="M172.594 247.639H161.807V258.426H172.594L172.594 247.639Z" fill="#704B22"/>
<path d="M161.805 247.639H151.018V258.426H161.805V247.639Z" fill="#704B22"/>
<path d="M161.805 258.426H151.018V269.213H161.805V258.426Z" fill="#704B22"/>
<path d="M140.231 258.426L129.444 258.426L129.444 269.213H140.231V258.426Z" fill="#704B22"/>
<path d="M118.657 258.426H107.87V269.213H118.657L118.657 258.426Z" fill="#704B22"/>
<path d="M151.018 247.639H140.231V258.426L151.018 258.426V247.639Z" fill="#704B22"/>
<path d="M151.018 258.426L140.231 258.426V269.213H151.018V258.426Z" fill="#704B22"/>
<path d="M129.444 258.426H118.657L118.657 269.213H129.444L129.444 258.426Z" fill="#704B22"/>
<path d="M107.872 258.426H97.0849V269.213H107.872V258.426Z" fill="#704B22"/>
<path d="M118.657 161.344H107.87V172.13H118.657V161.344Z" fill="#704B22"/>
<path d="M140.231 182.917H129.444V193.704H140.231V182.917Z" fill="#704B22"/>
<path d="M118.657 172.13H107.87V182.917H118.657V172.13Z" fill="#704B22"/>
<path d="M140.231 193.704H129.444L129.444 204.492L140.231 204.491V193.704Z" fill="#704B22"/>
<path d="M204.953 107.409H194.166V118.196H204.953V107.409Z" fill="#704B22"/>
<path d="M204.953 118.196H194.166V128.983H204.953V118.196Z" fill="#704B22"/>
<path d="M75.5087 172.131L64.7225 172.13V182.917L75.5087 182.918V172.131Z" fill="#B16512"/>
<path d="M75.5087 182.918L64.7225 182.917V193.704L75.5087 193.704V182.918Z" fill="#B16512"/>
<path d="M75.5087 193.704L64.7217 193.704V204.491H75.5087V193.704Z" fill="#B16512"/>
<path d="M86.2976 193.704H75.5107L75.5108 204.492H86.2978L86.2976 193.704Z" fill="#B16512"/>
<path d="M86.2976 182.917H75.5107V193.704H86.2976V182.917Z" fill="#B16512"/>
<path d="M97.0827 182.917H86.2958L86.2959 193.704H97.0829L97.0827 182.917Z" fill="#B16512"/>
<path d="M97.0827 172.131H86.2958V182.917H97.0827V172.131Z" fill="#B16512"/>
<path d="M107.87 172.13L97.0827 172.131V182.917L107.87 182.917V172.13Z" fill="#B16512"/>
<path d="M129.446 193.704H118.659V204.491H129.446V193.704Z" fill="#B16512"/>
<path d="M107.87 161.344L97.0828 161.344L97.0827 172.131L107.87 172.13V161.344Z" fill="#B16512"/>
<path d="M129.446 182.917H118.659V193.704H129.446V182.917Z" fill="#B16512"/>
<path d="M107.87 150.556L97.0828 150.557V161.344L107.87 161.344V150.556Z" fill="#B16512"/>
<path d="M129.446 172.131H118.659V182.917H129.446V172.131Z" fill="#B16512"/>
<path d="M107.87 139.769L97.0828 139.77V150.557L107.87 150.556V139.769Z" fill="#B16512"/>
<path d="M129.446 161.344H118.659V172.131H129.446V161.344Z" fill="#B16512"/>
<path d="M140.233 150.557H129.446L129.446 161.344L140.233 161.344V150.557Z" fill="#B16512"/>
<path d="M151.02 150.557H140.233V161.344H151.02V150.557Z" fill="#B16512"/>
<path d="M151.02 139.77H140.233L140.233 150.557H151.02V139.77Z" fill="#B16512"/>
<path d="M151.02 128.983H140.233V139.77H151.02V128.983Z" fill="#B16512"/>
<path d="M161.807 128.983H151.02V139.77L161.807 139.77V128.983Z" fill="#B16512"/>
<path d="M161.807 139.77L151.02 139.77V150.557L161.807 150.557V139.77Z" fill="#B16512"/>
<path d="M161.807 150.557L151.02 150.557V161.344H161.807V150.557Z" fill="#B16512"/>
<path d="M172.594 150.557L161.807 150.557V161.344H172.594V150.557Z" fill="#B16512"/>
<path d="M183.379 150.557H172.592V161.344H183.379V150.557Z" fill="#B16512"/>
<path d="M194.168 150.557H183.381V161.344H194.168V150.557Z" fill="#B16512"/>
<path d="M204.953 150.557H194.166V161.344H204.953V150.557Z" fill="#B16512"/>
<path d="M204.953 182.917H194.166L194.166 193.704H204.953L204.953 182.917Z" fill="#B16512"/>
<path d="M172.594 139.77L161.807 139.77V150.557L172.594 150.557V139.77Z" fill="#B16512"/>
<path d="M183.379 139.77H172.592V150.557H183.379V139.77Z" fill="#B16512"/>
<path d="M194.168 139.77H183.381V150.557H194.168V139.77Z" fill="#B16512"/>
<path d="M204.953 139.77H194.166V150.557H204.953V139.77Z" fill="#B16512"/>
<path d="M204.953 172.131H194.166V182.917H204.953V172.131Z" fill="#B16512"/>
<path d="M172.594 128.983H161.807V139.77L172.594 139.77V128.983Z" fill="#B16512"/>
<path d="M183.379 128.983H172.592V139.77H183.379V128.983Z" fill="#B16512"/>
<path d="M194.168 128.983H183.381V139.77H194.168V128.983Z" fill="#B16512"/>
<path d="M194.168 118.196H183.381V128.983H194.168V118.196Z" fill="#B16512"/>
<path d="M183.379 118.196H172.592V128.983H183.379V118.196Z" fill="#B16512"/>
<path d="M183.379 107.409H172.592V118.196H183.379V107.409Z" fill="#B16512"/>
<path d="M204.953 128.983H194.166L194.166 139.77H204.953L204.953 128.983Z" fill="#B16512"/>
<path d="M248.101 161.344H237.314V172.131H248.101V161.344Z" fill="#B16512"/>
<path d="M248.101 172.131H237.314V182.918H248.101V172.131Z" fill="#B16512"/>
<path d="M258.888 172.131L248.101 172.131V182.918H258.888V172.131Z" fill="#B16512"/>
<path d="M258.888 161.344H248.101V172.131L258.888 172.131V161.344Z" fill="#B16512"/>
<path d="M258.888 150.557H248.101L248.101 161.344H258.888V150.557Z" fill="#B16512"/>
<path d="M258.888 139.77H248.101V150.557H258.888V139.77Z" fill="#B16512"/>
<path d="M269.675 139.77H258.888V150.557L269.675 150.557V139.77Z" fill="#B16512"/>
<path d="M269.675 128.983H258.888L258.888 139.77H269.675V128.983Z" fill="#B16512"/>
<path d="M269.675 161.344H258.888V172.131L269.675 172.131V161.344Z" fill="#B16512"/>
<path d="M248.101 182.918H237.314V193.704H248.101V182.918Z" fill="#B16512"/>
<path d="M204.953 161.344H194.166V172.131H204.953V161.344Z" fill="#B16512"/>
<path d="M194.168 161.344H183.381L183.381 172.13H194.168L194.168 161.344Z" fill="#B16512"/>
<path d="M172.594 161.344H161.807L161.807 172.131H172.594V161.344Z" fill="#B16512"/>
<path d="M161.807 118.196H151.02L151.02 128.983H161.807V118.196Z" fill="#B16512"/>
<path d="M107.87 128.983H97.0828V139.77L107.87 139.769L107.87 128.983Z" fill="#B16512"/>
<path d="M129.446 150.557H118.659V161.344H129.446L129.446 150.557Z" fill="#B16512"/>
<path d="M140.233 139.77H129.446V150.557H140.233L140.233 139.77Z" fill="#B16512"/>
<path d="M97.0828 161.344H86.2958V172.131H97.0827L97.0828 161.344Z" fill="#B16512"/>
<path d="M97.0828 150.557H86.2958V161.344H97.0828V150.557Z" fill="#B16512"/>
<path d="M86.2976 172.131H75.5107V182.917H86.2976V172.131Z" fill="#B16512"/>
<path d="M86.2976 161.344H75.5107V172.131H86.2976V161.344Z" fill="#B16512"/>
<path d="M64.7236 193.704H53.9366L53.9368 204.492H64.7238L64.7236 193.704Z" fill="#B16512"/>
<path d="M53.9346 193.704L43.1484 193.704L43.1477 204.491H53.9346V193.704Z" fill="#B16512"/>
<path d="M53.9346 204.491H43.1477V215.278H53.9346V204.491Z" fill="#B16512"/>
<path d="M64.7238 215.278H53.9368L53.9366 226.065H64.7236L64.7238 215.278Z" fill="#B16512"/>
<path d="M64.7236 226.065H53.9366L53.9368 236.852H64.7237L64.7236 226.065Z" fill="#B16512"/>
<path d="M75.5087 247.64H64.7217V258.426H75.5087V247.64Z" fill="#B16512"/>
<path d="M86.2978 215.278H75.5108L75.5107 226.065H86.2976L86.2978 215.278Z" fill="#B16512"/>
<path d="M86.2976 226.065H75.5107L75.5108 236.852H86.2978L86.2976 226.065Z" fill="#B16512"/>
<path d="M107.87 215.279L97.0828 215.278L97.0829 226.066L107.87 226.065V215.279Z" fill="#B16512"/>
<path d="M107.87 204.491L97.0829 204.491L97.0828 215.278L107.87 215.279L107.87 204.491Z" fill="#B16512"/>
<path d="M118.657 204.492L107.87 204.491L107.87 215.279H118.657L118.657 204.492Z" fill="#B16512"/>
<path d="M118.657 193.704H107.87L107.87 204.491L118.657 204.492L118.657 193.704Z" fill="#B16512"/>
<path d="M97.0827 247.64H86.2958V258.426H97.0827V247.64Z" fill="#B16512"/>
<path d="M118.657 236.852H107.87L107.87 247.639H118.657L118.657 236.852Z" fill="#B16512"/>
<path d="M129.446 226.065H118.659V236.852H129.446V226.065Z" fill="#B16512"/>
<path d="M107.87 247.639L97.0827 247.64V258.426L107.87 258.426V247.639Z" fill="#B16512"/>
<path d="M129.446 236.852H118.659V247.639H129.446V236.852Z" fill="#B16512"/>
<path d="M140.233 226.065H129.446V236.852H140.233V226.065Z" fill="#B16512"/>
<path d="M161.807 226.066L151.02 226.065V236.852L161.807 236.853V226.066Z" fill="#B16512"/>
<path d="M151.02 236.852H140.233L140.233 247.639H151.02L151.02 236.852Z" fill="#B16512"/>
<path d="M140.233 247.639H129.446L129.446 258.426H140.233L140.233 247.639Z" fill="#B16512"/>
<path d="M140.233 215.278H129.446L129.446 226.065H140.233V215.278Z" fill="#B16512"/>
<path d="M161.807 215.278H151.02V226.065L161.807 226.066L161.807 215.278Z" fill="#B16512"/>
<path d="M172.594 215.279L161.807 215.278L161.807 226.066L172.594 226.065V215.279Z" fill="#B16512"/>
<path d="M172.594 204.491H161.807L161.807 215.278L172.594 215.279L172.594 204.491Z" fill="#B16512"/>
<path d="M43.1495 193.704H32.3626V204.491H43.1495V193.704Z" fill="#B16512"/>
<path d="M43.1495 204.491H32.3626V215.278H43.1495V204.491Z" fill="#B16512"/>
<path d="M53.9346 215.278H43.1477V226.065H53.9346V215.278Z" fill="#B16512"/>
<path d="M75.5087 215.278H64.7217V226.065H75.5087V215.278Z" fill="#B16512"/>
<path d="M75.5087 226.065H64.7217V236.852H75.5087V226.065Z" fill="#B16512"/>
<path d="M86.2978 247.639H75.5108L75.5107 258.426H86.2976L86.2978 247.639Z" fill="#B16512"/>
<path d="M32.3606 193.704L21.5744 193.704L21.5736 204.491H32.3606V193.704Z" fill="#B16512"/>
<path d="M75.51 139.77H64.723V150.557H75.51V139.77Z" fill="#84CDE3"/>
<path d="M43.1504 31.9002H32.3635V42.6872H43.1504V31.9002Z" fill="#EF7D00"/>
<path d="M32.3635 31.9002H21.5765V42.6872H32.3635V31.9002Z" fill="#EF7D00"/>
<path d="M32.3635 42.6872H21.5765V53.4742L32.3627 53.4741L32.3635 42.6872Z" fill="#EF7D00"/>
<path d="M43.1504 42.6872H32.3635L32.3627 53.4741H43.1497L43.1504 42.6872Z" fill="#EF7D00"/>
<path d="M86.2978 96.6217H75.5108V107.409H86.2978V96.6217Z" fill="#EF7D00"/>
<path d="M86.2978 107.409H75.5108V118.195H86.2978V107.409Z" fill="#EF7D00"/>
<path d="M75.5108 107.409L64.7238 107.408V118.195H75.5108V107.409Z" fill="#EF7D00"/>
<path d="M64.7238 107.408H53.9368V118.195H64.7238V107.408Z" fill="#EF7D00"/>
<path d="M97.0829 96.6219H86.2959V107.409H97.0829V96.6219Z" fill="#EF7D00"/>
<path d="M97.0829 107.409H86.2959V118.195H97.0829V107.409Z" fill="#EF7D00"/>
<path d="M107.872 96.6219H97.0849V107.409H107.872V96.6219Z" fill="#EF7D00"/>
<path d="M107.872 107.409H97.0849V118.195H107.872V107.409Z" fill="#EF7D00"/>
<path d="M118.657 96.6219H107.87V107.409H118.657V96.6219Z" fill="#EF7D00"/>
<path d="M118.657 107.409H107.87V118.195H118.657V107.409Z" fill="#EF7D00"/>
<path d="M129.444 96.6219H118.657V107.409H129.444V96.6219Z" fill="#EF7D00"/>
<path d="M151.018 161.343H140.231V172.13H151.018V161.343Z" fill="#EF7D00"/>
<path d="M129.444 107.409H118.657V118.195H129.444V107.409Z" fill="#EF7D00"/>
<path d="M151.018 172.13H140.231V182.917H151.018V172.13Z" fill="#EF7D00"/>
<path d="M140.231 96.6219H129.444V107.409H140.231V96.6219Z" fill="#EF7D00"/>
<path d="M140.231 107.409H129.444V118.195H140.231V107.409Z" fill="#EF7D00"/>
<path d="M151.018 96.6219H140.231V107.409H151.018V96.6219Z" fill="#EF7D00"/>
<path d="M151.018 107.409H140.231V118.195H151.018V107.409Z" fill="#EF7D00"/>
<path d="M151.018 118.195H140.231L140.231 128.982H151.018V118.195Z" fill="#EF7D00"/>
<path d="M140.231 118.195H129.444L129.444 128.982H140.231L140.231 118.195Z" fill="#EF7D00"/>
<path d="M140.231 128.982H129.444V139.77H140.231L140.231 128.982Z" fill="#EF7D00"/>
<path d="M129.444 118.195H118.657L118.657 128.982H129.444L129.444 118.195Z" fill="#EF7D00"/>
<path d="M151.018 182.917H140.231V193.704L151.018 193.705L151.018 182.917Z" fill="#EF7D00"/>
<path d="M161.805 182.917H151.018L151.018 193.705H161.805V182.917Z" fill="#EF7D00"/>
<path d="M172.594 182.918H161.807V193.705H172.594V182.918Z" fill="#EF7D00"/>
<path d="M183.381 182.917L172.594 182.918V193.705L183.381 193.704V182.917Z" fill="#EF7D00"/>
<path d="M291.249 215.279H280.462V226.066H291.249V215.279Z" fill="#EF7D00"/>
<path d="M291.249 204.492H280.462V215.279H291.249V204.492Z" fill="#EF7D00"/>
<path d="M291.249 193.705H280.462V204.492H291.249V193.705Z" fill="#EF7D00"/>
<path d="M280.464 193.705H269.677V204.492H280.464V193.705Z" fill="#EF7D00"/>
<path d="M280.464 182.918H269.677V193.705H280.464V182.918Z" fill="#EF7D00"/>
<path d="M269.675 182.918L258.888 182.918L258.888 193.704H269.675V182.918Z" fill="#EF7D00"/>
<path d="M258.89 182.918H248.103V193.704H258.89V182.918Z" fill="#EF7D00"/>
<path d="M269.675 172.131L258.888 172.131V182.918L269.675 182.918L269.675 172.131Z" fill="#EF7D00"/>
<path d="M280.464 172.131H269.677V182.918H280.464V172.131Z" fill="#EF7D00"/>
<path d="M291.249 172.131H280.462V182.918H291.249V172.131Z" fill="#EF7D00"/>
<path d="M291.249 182.918H280.462V193.705H291.249V182.918Z" fill="#EF7D00"/>
<path d="M280.464 161.344H269.677V172.131H280.464V161.344Z" fill="#EF7D00"/>
<path d="M280.464 150.557H269.677V161.344H280.464V150.557Z" fill="#EF7D00"/>
<path d="M291.249 139.77H280.462V150.557H291.249V139.77Z" fill="#EF7D00"/>
<path d="M280.464 139.77H269.677V150.557H280.464V139.77Z" fill="#EF7D00"/>
<path d="M280.464 128.983H269.677V139.77H280.464V128.983Z" fill="#EF7D00"/>
<path d="M280.464 118.196H269.677V128.983H280.464V118.196Z" fill="#EF7D00"/>
<path d="M269.675 150.557L258.888 150.557V161.344H269.675V150.557Z" fill="#EF7D00"/>
<path d="M291.249 161.344H280.462V172.131H291.249V161.344Z" fill="#EF7D00"/>
<path d="M291.249 150.557H280.462V161.344H291.249V150.557Z" fill="#EF7D00"/>
<path d="M172.594 172.131H161.807L161.807 182.918H172.594L172.594 172.131Z" fill="#EF7D00"/>
<path d="M183.381 172.13L172.594 172.131L172.594 182.918L183.381 182.917V172.13Z" fill="#EF7D00"/>
<path d="M183.381 161.344H172.594V172.131L183.381 172.13L183.381 161.344Z" fill="#EF7D00"/>
<path d="M129.444 128.982H118.657L118.657 139.769L129.444 139.77V128.982Z" fill="#EF7D00"/>
<path d="M151.018 193.705L140.231 193.704V204.491L151.018 204.492L151.018 193.705Z" fill="#EF7D00"/>
<path d="M161.805 193.705H151.018L151.018 204.492H161.805V193.705Z" fill="#EF7D00"/>
<path d="M172.594 193.705H161.807L161.807 204.491H172.594L172.594 193.705Z" fill="#EF7D00"/>
<path d="M183.381 193.704L172.594 193.705L172.594 204.491L183.381 204.491V193.704Z" fill="#EF7D00"/>
<path d="M183.381 204.491L172.594 204.491L172.594 215.279H183.381V204.491Z" fill="#EF7D00"/>
<path d="M237.316 226.065H226.529V236.852H237.316V226.065Z" fill="#EF7D00"/>
<path d="M237.316 236.852H226.529V247.639H237.316V236.852Z" fill="#EF7D00"/>
<path d="M237.316 247.639H226.529V258.426H237.316V247.639Z" fill="#EF7D00"/>
<path d="M226.527 236.853H215.74V247.639H226.527V236.853Z" fill="#EF7D00"/>
<path d="M226.527 247.639H215.74V258.426H226.527V247.639Z" fill="#EF7D00"/>
<path d="M226.527 258.426H215.74V269.213H226.527V258.426Z" fill="#EF7D00"/>
<path d="M226.527 269.213H215.74V280H226.527V269.213Z" fill="#EF7D00"/>
<path d="M215.742 247.639H204.955V258.426H215.742V247.639Z" fill="#EF7D00"/>
<path d="M129.444 139.77L118.657 139.769V150.556L129.444 150.557L129.444 139.77Z" fill="#EF7D00"/>
<path d="M151.018 204.492L140.231 204.491L140.231 215.279L151.018 215.278V204.492Z" fill="#EF7D00"/>
<path d="M118.657 118.195H107.87L107.87 128.983L118.657 128.982L118.657 118.195Z" fill="#EF7D00"/>
<path d="M118.657 128.982L107.87 128.983L107.87 139.769H118.657L118.657 128.982Z" fill="#EF7D00"/>
<path d="M107.872 118.195H97.0849V128.982H107.872V118.195Z" fill="#EF7D00"/>
<path d="M97.0829 118.195H86.2959V128.982L97.0828 128.983L97.0829 118.195Z" fill="#EF7D00"/>
<path d="M97.0828 128.983L86.2959 128.982V139.77L97.0828 139.77V128.983Z" fill="#EF7D00"/>
<path d="M86.2978 118.195H75.5108V128.982H86.2978V118.195Z" fill="#EF7D00"/>
<path d="M86.2978 128.982H75.5108L75.51 139.77L86.2978 139.77V128.982Z" fill="#EF7D00"/>
<path d="M75.5108 118.195H64.7238V128.982H75.5108V118.195Z" fill="#EF7D00"/>
<path d="M75.5108 128.982H64.7238L64.723 139.77H75.51L75.5108 128.982Z" fill="#EF7D00"/>
<path d="M64.7238 118.195H53.9368V128.982H64.7238V118.195Z" fill="#EF7D00"/>
<path d="M64.7238 128.982H53.9368V139.77L64.723 139.77L64.7238 128.982Z" fill="#EF7D00"/>
<path d="M64.723 139.77L53.9368 139.77L53.9373 150.556L64.723 150.557V139.77Z" fill="#EF7D00"/>
<path d="M97.0828 139.77L86.2959 139.77L86.2958 150.557H97.0828V139.77Z" fill="#EF7D00"/>
<path d="M53.9368 118.195L43.1498 118.196V128.982H53.9368V118.195Z" fill="#EF7D00"/>
<path d="M53.9368 128.982H43.1498V139.77H53.9368V128.982Z" fill="#EF7D00"/>
<path d="M53.9368 139.77H43.1498L43.1504 150.556H53.9373L53.9368 139.77Z" fill="#EF7D00"/>
<path d="M86.2978 139.77L75.51 139.77V150.557L86.2978 150.557V139.77Z" fill="#EF7D00"/>
<path d="M86.2978 150.557L75.51 150.557L75.5107 161.344H86.2976L86.2978 150.557Z" fill="#EF7D00"/>
<path d="M75.51 150.557H64.723L64.7238 161.344L75.5107 161.344L75.51 150.557Z" fill="#EF7D00"/>
<path d="M75.5107 161.344L64.7238 161.344V172.131L75.5107 172.131V161.344Z" fill="#EF7D00"/>
<path d="M97.0829 204.491H86.2959V215.279L97.0828 215.278L97.0829 204.491Z" fill="#EF7D00"/>
<path d="M107.872 193.704H97.0849V204.492H107.872V193.704Z" fill="#EF7D00"/>
<path d="M118.657 182.917H107.87L107.87 193.704H118.657L118.657 182.917Z" fill="#EF7D00"/>
<path d="M97.0828 215.278L86.2959 215.279V226.066H97.0829L97.0828 215.278Z" fill="#EF7D00"/>
<path d="M97.0829 236.853H86.2959L86.2958 247.64H97.0827L97.0829 236.853Z" fill="#EF7D00"/>
<path d="M107.872 236.853H97.0849V247.639H107.872V236.853Z" fill="#EF7D00"/>
<path d="M118.657 226.065H107.87L107.87 236.852H118.657L118.657 226.065Z" fill="#EF7D00"/>
<path d="M129.444 215.278L118.657 215.279V226.065L129.444 226.066V215.278Z" fill="#EF7D00"/>
<path d="M140.231 204.491L129.444 204.492V215.278L140.231 215.279L140.231 204.491Z" fill="#EF7D00"/>
<path d="M64.723 150.557L53.9373 150.556V161.343L64.7238 161.344L64.723 150.557Z" fill="#EF7D00"/>
<path d="M64.7238 161.344L53.9373 161.343V172.13L64.7238 172.131V161.344Z" fill="#EF7D00"/>
<path d="M43.1498 128.982L32.3627 128.983V139.77H43.1498V128.982Z" fill="#EF7D00"/>
<path d="M161.805 96.6219H151.018V107.409H161.805V96.6219Z" fill="#EF7D00"/>
<path d="M161.805 107.409H151.018V118.195H161.805V107.409Z" fill="#EF7D00"/>
<path d="M172.594 96.6219H161.807V107.409H172.594V96.6219Z" fill="#EF7D00"/>
<path d="M215.742 96.6219H204.955V107.409H215.742V96.6219Z" fill="#EF7D00"/>
<path d="M215.742 85.8349H204.955V96.6219H215.742V85.8349Z" fill="#EF7D00"/>
<path d="M226.527 85.8349H215.74V96.6219H226.527V85.8349Z" fill="#EF7D00"/>
<path d="M226.527 75.0484H215.74V85.8349H226.527V75.0484Z" fill="#EF7D00"/>
<path d="M226.527 64.2613H215.74V75.0484H226.527V64.2613Z" fill="#EF7D00"/>
<path d="M215.742 75.0484H204.955V85.8349H215.742V75.0484Z" fill="#EF7D00"/>
<path d="M226.527 96.6219H215.74V107.409H226.527V96.6219Z" fill="#EF7D00"/>
<path d="M237.316 96.6219H226.529V107.409H237.316V96.6219Z" fill="#EF7D00"/>
<path d="M237.316 107.409H226.529V118.196H237.316V107.409Z" fill="#EF7D00"/>
<path d="M248.101 96.6219H237.314V107.409H248.101V96.6219Z" fill="#EF7D00"/>
<path d="M248.101 85.8349H237.314V96.6219H248.101V85.8349Z" fill="#EF7D00"/>
<path d="M204.953 96.6219H194.166V107.409H204.953V96.6219Z" fill="#EF7D00"/>
<path d="M172.594 107.409H161.807L161.807 118.196L172.594 118.195V107.409Z" fill="#EF7D00"/>
<path d="M215.742 107.409H204.955V118.195H215.742V107.409Z" fill="#EF7D00"/>
<path d="M172.594 118.195L161.807 118.196V128.983H172.594L172.594 118.195Z" fill="#EF7D00"/>
<path d="M215.742 118.195H204.955V128.982H215.742V118.195Z" fill="#EF7D00"/>
<path d="M75.5091 31.9003H64.7221V42.6873H75.5091V31.9003Z" fill="#FFEABC"/>
<path d="M64.7221 31.9003H53.9351V42.6873H64.7221V31.9003Z" fill="#FFEABC"/>
<path d="M53.9351 31.9003H43.1481V42.6873H53.9351V31.9003Z" fill="#FFEABC"/>
<path d="M53.935 21.1133H43.1481V31.9003H53.9351L53.935 21.1133Z" fill="#FFEABC"/>
<path d="M64.7221 21.1133H53.935L53.9351 31.9003H64.7221L64.7221 21.1133Z" fill="#FFEABC"/>
<path d="M53.3967 10.3263H42.6098V21.1132H53.3967V10.3263Z" fill="#FFEABC"/>
<path d="M42.6098 10.3263H31.8228V21.1132H42.6098V10.3263Z" fill="#FFEABC"/>
<path d="M42.6107 0H31.8237V10.7869H42.6107V0Z" fill="#FFEABC"/>
<path d="M43.1499 21.1133H32.363L32.3635 31.9002H43.1504L43.1499 21.1133Z" fill="#FFEABC"/>
<path d="M31.8228 10.3263H21.0357V21.1132H31.8228V10.3263Z" fill="#FFEABC"/>
<path d="M32.361 21.1133H21.5741V31.9003H32.361V21.1133Z" fill="#FFEABC"/>
<path d="M21.0357 10.3263H10.2487V21.1132H21.0357V10.3263Z" fill="#FFEABC"/>
<path d="M21.5759 21.1133H10.7889V31.9003L21.5765 31.9002L21.5759 21.1133Z" fill="#FFEABC"/>
<path d="M10.7869 21.1133H0V31.9003H10.7869V21.1133Z" fill="#FFEABC"/>
<path d="M21.5765 31.9002L10.7889 31.9003V42.6873L21.5765 42.6872V31.9002Z" fill="#FFEABC"/>
<path d="M10.7869 42.6874H0V53.4743H10.7869V42.6874Z" fill="#FFEABC"/>
<path d="M32.361 53.4739H21.5741V64.2608H32.361V53.4739Z" fill="#FFEABC"/>
<path d="M32.361 64.2608H21.5741V75.0483H32.361V64.2608Z" fill="#FFEABC"/>
<path d="M43.1497 64.2611H32.3627L32.363 75.0483H43.1499L43.1497 64.2611Z" fill="#FFEABC"/>
<path d="M21.5765 42.6872L10.7889 42.6873V53.4743L21.5765 53.4742V42.6872Z" fill="#FFEABC"/>
<path d="M21.5765 53.4742L10.7889 53.4743V64.2608H21.5759L21.5765 53.4742Z" fill="#FFEABC"/>
<path d="M53.9351 42.6873H43.1481V53.4743H53.935L53.9351 42.6873Z" fill="#FFEABC"/>
<path d="M64.7221 42.6873H53.9351L53.935 53.4743H64.7221L64.7221 42.6873Z" fill="#FFEABC"/>
<path d="M10.7869 31.9003H0V42.6874H10.7869V31.9003Z" fill="#FFEABC"/>
</svg>
