<svg width="269" height="59" viewBox="0 0 269 59" fill="none" xmlns="http://www.w3.org/2000/svg">
<rect x="8" y="14" width="259" height="35" fill="black" stroke="black" stroke-width="4"/>
<rect x="12" y="10" width="251" height="43" fill="black" stroke="black" stroke-width="4"/>
<rect x="16" y="6" width="243" height="51" fill="black" stroke="black" stroke-width="4"/>
<rect x="10" y="12" width="255" height="39" fill="black"/>
<rect x="14" y="8" width="247" height="47" fill="black"/>
<rect x="2" y="10" width="259" height="35" fill="#FFAF35" stroke="black" stroke-width="4"/>
<rect x="6" y="6" width="251" height="43" fill="#FFAF35" stroke="black" stroke-width="4"/>
<rect x="10" y="2" width="243" height="51" fill="#FFAF35" stroke="black" stroke-width="4"/>
<rect x="4" y="8" width="255" height="39" fill="white"/>
<rect x="8" y="4" width="247" height="47" fill="white"/>
<path d="M102.809 22.92H99.3286V33H97.4086V22.92H93.9286V21.24H102.809V22.92ZM106.036 23.16H104.356V21.24H106.036V23.16ZM106.036 33H104.356V25.8L106.036 24.12V33ZM111.065 33H109.385V20.76L111.065 19.08V33ZM123.066 31.32C123.066 31.784 122.898 32.184 122.562 32.52C122.242 32.84 121.85 33 121.386 33H116.346V31.584L114.666 33.24V20.76L116.346 19.08V25.8L117.546 24.6H121.386C121.85 24.6 122.242 24.768 122.562 25.104C122.898 25.424 123.066 25.816 123.066 26.28V31.32ZM121.386 31.56V26.04H116.346V31.56H121.386ZM134.216 33H132.536V31.776L131.096 33H127.496C127.032 33 126.632 32.84 126.296 32.52C125.976 32.184 125.816 31.784 125.816 31.32V29.64C125.816 29.176 125.976 28.784 126.296 28.464C126.632 28.128 127.032 27.96 127.496 27.96H132.296L130.856 29.376H127.496V31.56H132.536V26.04H125.816L127.256 24.6H132.536C133 24.6 133.392 24.768 133.712 25.104C134.048 25.424 134.216 25.816 134.216 26.28V33ZM146.437 24.6L142.621 27.936V28.176H144.277C144.741 28.176 145.133 28.344 145.453 28.68C145.789 29 145.957 29.392 145.957 29.856V33H144.277V29.4H139.237V33H137.557V20.76L139.237 19.08V29.184L144.397 24.6H146.437ZM157.232 33H150.512C150.048 33 149.648 32.84 149.312 32.52C148.992 32.184 148.832 31.784 148.832 31.32V26.28C148.832 25.816 148.992 25.424 149.312 25.104C149.648 24.768 150.048 24.6 150.512 24.6H155.552C156.016 24.6 156.408 24.768 156.728 25.104C157.064 25.424 157.232 25.816 157.232 26.28V27.96L155.552 29.64H150.752L152.192 28.2H155.552V26.04H150.512V31.56H157.232V33Z" fill="black"/>
</svg>
