<svg width="269" height="59" viewBox="0 0 269 59" fill="none" xmlns="http://www.w3.org/2000/svg">
<rect x="8" y="14" width="259" height="35" fill="black" stroke="black" stroke-width="4"/>
<rect x="12" y="10" width="251" height="43" fill="black" stroke="black" stroke-width="4"/>
<rect x="16" y="6" width="243" height="51" fill="black" stroke="black" stroke-width="4"/>
<rect x="10" y="12" width="255" height="39" fill="black"/>
<rect x="14" y="8" width="247" height="47" fill="black"/>
<rect x="2" y="10" width="259" height="35" fill="#FFAF35" stroke="black" stroke-width="4"/>
<rect x="6" y="6" width="251" height="43" fill="#FFAF35" stroke="black" stroke-width="4"/>
<rect x="10" y="2" width="243" height="51" fill="#FFAF35" stroke="black" stroke-width="4"/>
<rect x="4" y="8" width="255" height="39" fill="#FFAF35"/>
<rect x="8" y="4" width="247" height="47" fill="#FFAF35"/>
<path d="M108.396 21.24L103.908 33H100.788L96.3958 21.24H98.5558L102.156 31.368H102.636L106.236 21.24H108.396ZM112.215 23.16H110.535V21.24H112.215V23.16ZM112.215 33H110.535V25.8L112.215 24.12V33ZM123.725 33H122.045V31.8L120.845 33H117.005C116.541 33 116.141 32.84 115.805 32.52C115.485 32.184 115.325 31.784 115.325 31.32V26.28C115.325 25.816 115.485 25.424 115.805 25.104C116.141 24.768 116.541 24.6 117.005 24.6H122.045V20.76L123.725 19.08V33ZM122.045 31.56V24.84L120.845 26.04H117.005V31.56H122.045ZM135.475 33H128.755C128.291 33 127.891 32.84 127.555 32.52C127.235 32.184 127.075 31.784 127.075 31.32V26.28C127.075 25.816 127.235 25.424 127.555 25.104C127.891 24.768 128.291 24.6 128.755 24.6H133.795C134.259 24.6 134.651 24.768 134.971 25.104C135.307 25.424 135.475 25.816 135.475 26.28V27.96L133.795 29.64H128.995L130.435 28.2H133.795V26.04H128.755V31.56H135.475V33ZM144.584 27.96H142.904V26.04H139.544V33H137.864V24.6H139.544V25.8L140.744 24.6H142.904C143.368 24.6 143.76 24.768 144.08 25.104C144.416 25.424 144.584 25.816 144.584 26.28V27.96ZM155.365 33H148.645C148.181 33 147.781 32.84 147.445 32.52C147.125 32.184 146.965 31.784 146.965 31.32V26.28C146.965 25.816 147.125 25.424 147.445 25.104C147.781 24.768 148.181 24.6 148.645 24.6H153.685C154.149 24.6 154.541 24.768 154.861 25.104C155.197 25.424 155.365 25.816 155.365 26.28V27.96L153.685 29.64H148.885L150.325 28.2H153.685V26.04H148.645V31.56H155.365V33Z" fill="black"/>
</svg>
